<svg xmlns="http://www.w3.org/2000/svg" width="4.78in" height="2.92in" viewBox="0 0 344.25 209.98"><defs><style>.a{fill:#fff;}.b,.d{fill:#dd7a29;}.b{opacity:0.22;}.c{fill:none;stroke:#dd7a29;stroke-miterlimit:10;stroke-width:0.45px;}.e{fill:#e4df4a;}</style></defs><path class="a" d="M0,31.49H344.25a0,0,0,0,1,0,0V210a0,0,0,0,1,0,0H7.2a7.2,7.2,0,0,1-7.2-7.2V31.49A0,0,0,0,1,0,31.49Z"/><rect class="b" y="165.28" width="344.25" height="44.7"/><rect class="b" y="75.89" width="344.25" height="44.7"/><rect class="c" x="28.69" y="31.19" width="28.69" height="44.7"/><rect class="c" x="57.38" y="31.19" width="28.69" height="44.7"/><rect class="c" x="86.06" y="31.19" width="28.69" height="44.7"/><rect class="c" x="114.75" y="31.19" width="28.69" height="44.7"/><rect class="c" x="143.44" y="31.19" width="28.69" height="44.7"/><rect class="c" x="172.13" y="31.19" width="28.69" height="44.7"/><rect class="c" x="200.81" y="31.19" width="28.69" height="44.7"/><rect class="c" x="229.5" y="31.19" width="28.69" height="44.7"/><rect class="c" x="258.19" y="31.19" width="28.69" height="44.7"/><rect class="c" x="286.88" y="31.19" width="28.69" height="44.7"/><rect class="c" x="315.56" y="31.19" width="28.69" height="44.7"/><rect class="c" y="75.89" width="28.69" height="44.7"/><rect class="c" x="28.69" y="75.89" width="28.69" height="44.7"/><rect class="c" x="57.38" y="75.89" width="28.69" height="44.7"/><rect class="c" x="86.06" y="75.89" width="28.69" height="44.7"/><rect class="c" x="114.75" y="75.89" width="28.69" height="44.7"/><rect class="c" x="143.44" y="75.89" width="28.69" height="44.7"/><rect class="c" x="172.13" y="75.89" width="28.69" height="44.7"/><rect class="c" x="200.81" y="75.89" width="28.69" height="44.7"/><rect class="c" x="229.5" y="75.89" width="28.69" height="44.7"/><rect class="c" x="258.19" y="75.89" width="28.69" height="44.7"/><rect class="c" x="286.88" y="75.89" width="28.69" height="44.7"/><rect class="c" x="315.56" y="75.89" width="28.69" height="44.7"/><rect class="c" y="120.59" width="28.69" height="44.7"/><rect class="c" x="28.69" y="120.59" width="28.69" height="44.7"/><rect class="c" x="57.38" y="120.59" width="28.69" height="44.7"/><rect class="c" x="86.06" y="120.59" width="28.69" height="44.7"/><rect class="c" x="114.75" y="120.59" width="28.69" height="44.7"/><rect class="c" x="143.44" y="120.59" width="28.69" height="44.7"/><rect class="c" x="172.13" y="120.59" width="28.69" height="44.7"/><rect class="c" x="200.81" y="120.59" width="28.69" height="44.7"/><rect class="c" x="229.5" y="120.59" width="28.69" height="44.7"/><rect class="c" x="258.19" y="120.59" width="28.69" height="44.7"/><rect class="c" x="286.88" y="120.59" width="28.69" height="44.7"/><rect class="c" x="315.56" y="120.59" width="28.69" height="44.7"/><rect class="c" y="165.28" width="28.69" height="44.7"/><rect class="c" x="28.69" y="165.28" width="28.69" height="44.7"/><rect class="c" x="57.38" y="165.28" width="28.69" height="44.7"/><rect class="c" x="86.06" y="165.28" width="28.69" height="44.7"/><rect class="c" x="114.75" y="165.28" width="28.69" height="44.7"/><rect class="c" x="143.44" y="165.28" width="28.69" height="44.7"/><rect class="c" x="172.13" y="165.28" width="28.69" height="44.7"/><rect class="c" x="200.81" y="165.28" width="28.69" height="44.7"/><rect class="c" x="229.5" y="165.28" width="28.69" height="44.7"/><rect class="c" x="258.19" y="165.28" width="28.69" height="44.7"/><rect class="c" x="286.88" y="165.28" width="28.69" height="44.7"/><rect class="c" x="315.56" y="165.28" width="28.69" height="44.7"/><rect class="d" width="28.69" height="31.49"/><rect class="c" y="31.19" width="28.69" height="44.7"/><rect class="d" x="186.47" y="126.62" width="100.41" height="32.63" rx="16.31"/><rect class="d" y="171.24" width="344.25" height="32.63" rx="16.31"/><rect class="e" x="28.69" y="37.38" width="86.06" height="32.63" rx="16.31"/><rect class="d" x="57.38" y="81.92" width="143.44" height="32.63" rx="16.31"/><path class="a" d="M43.79,48.67h-.6v-1h1.66v4.38H43.79Z"/><path class="a" d="M46.14,52.14a.56.56,0,1,1,.6-.55A.56.56,0,0,1,46.14,52.14Z"/><path class="a" d="M48.62,47.88h2.74v.82H49.65v.89h1.28v.8H49.65v1.7h-1Z"/><path class="a" d="M51.81,47.85a.61.61,0,1,1,.61.55A.57.57,0,0,1,51.81,47.85Zm.1.9h1v3.34h-1Z"/><path class="a" d="M55.16,52.14a1.72,1.72,0,0,1,0-3.44,1.58,1.58,0,0,1,1.67,1.66c0,.1,0,.2,0,.3H54.49a.63.63,0,0,0,.64.65.55.55,0,0,0,.53-.33h1.09A1.55,1.55,0,0,1,55.16,52.14Zm-.66-2h1.28a.58.58,0,0,0-.63-.57A.62.62,0,0,0,54.5,50.09Z"/><path class="a" d="M57.37,47.65h1v4.44h-1Z"/><path class="a" d="M60.41,48.7a1.2,1.2,0,0,1,1,.51V47.65h1v4.44h-1v-.48a1.14,1.14,0,0,1-1,.53,1.74,1.74,0,0,1,0-3.44Zm.3.89a.75.75,0,0,0-.73.82.76.76,0,0,0,.73.84.84.84,0,0,0,0-1.66Z"/><path class="a" d="M66.15,50.58h-.64v1.51h-1V47.88h1.66c1,0,1.55.58,1.55,1.36A1.36,1.36,0,0,1,66.15,50.58Zm-.08-.81c.41,0,.58-.21.58-.53s-.17-.53-.58-.53h-.56v1.06Z"/><path class="a" d="M69.26,52.09h-1V48.75h1v.55a1.25,1.25,0,0,1,1-.59V49.8H70c-.48,0-.76.16-.76.74Z"/><path class="a" d="M72.29,52.14a1.72,1.72,0,0,1,0-3.44A1.57,1.57,0,0,1,74,50.36c0,.1,0,.2,0,.3H71.61a.63.63,0,0,0,.64.65.54.54,0,0,0,.53-.33h1.1A1.57,1.57,0,0,1,72.29,52.14Zm-.67-2H72.9a.57.57,0,0,0-.63-.57A.63.63,0,0,0,71.62,50.09Z"/><path class="a" d="M76.55,48.7a1.74,1.74,0,0,1,0,3.44,1.19,1.19,0,0,1-1-.52v2.07h-1V48.75h1v.47A1.19,1.19,0,0,1,76.55,48.7Zm-.3.89a.84.84,0,1,0,.73.82A.74.74,0,0,0,76.25,49.59Z"/><path class="a" d="M79.84,48.7a1.17,1.17,0,0,1,1,.52v-.47h1v3.34h-1v-.47a1.19,1.19,0,0,1-1,.52,1.74,1.74,0,0,1,0-3.44Zm.3.89a.75.75,0,0,0-.73.82.76.76,0,0,0,.73.84.84.84,0,0,0,0-1.66Z"/><path class="a" d="M83.67,52.09h-1V48.75h1v.55a1.25,1.25,0,0,1,1-.59V49.8h-.28c-.49,0-.77.16-.77.74Z"/><path class="a" d="M86.48,48.7a1.17,1.17,0,0,1,1,.52v-.47h1v3.34h-1v-.47a1.18,1.18,0,0,1-1,.52,1.74,1.74,0,0,1,0-3.44Zm.3.89a.75.75,0,0,0-.73.82.76.76,0,0,0,.73.84.84.84,0,0,0,0-1.66Z"/><path class="a" d="M89.45,49.6H89v-.85h.41v-.82h1v.82h.67v.85h-.67v1.34c0,.2.09.28.31.28h.37v.87h-.52a1,1,0,0,1-1.18-1.16Z"/><path class="a" d="M91.62,47.85a.57.57,0,0,1,.62-.56.56.56,0,1,1,0,1.11A.57.57,0,0,1,91.62,47.85Zm.1.9h1v3.34h-1Z"/><path class="a" d="M95,52.14a1.72,1.72,0,1,1,1.75-1.72A1.66,1.66,0,0,1,95,52.14Zm0-.89a.73.73,0,0,0,.71-.83c0-.57-.34-.83-.7-.83s-.69.26-.69.83S94.64,51.25,95,51.25Z"/><path class="a" d="M99.62,50.28a.64.64,0,1,0-1.28,0v1.81h-1V48.75h1v.44a1.22,1.22,0,0,1,1-.48,1.27,1.27,0,0,1,1.29,1.43v2h-1Z"/><path class="a" d="M45.42,56.1a.29.29,0,0,0-.31-.33.3.3,0,0,0-.33.3c0,.17.11.34.33.58l1,1a1.3,1.3,0,0,1,.08-.17l.22-.38h1l-.28.53a4.7,4.7,0,0,1-.38.67l1,1h-1.2l-.39-.38a2.17,2.17,0,0,1-1.39.45c-1,0-1.59-.51-1.59-1.29a1.33,1.33,0,0,1,.85-1.24,1.14,1.14,0,0,1-.29-.76c0-.59.48-1.07,1.31-1.07s1.29.52,1.27,1.1Zm.18,2.2-.93-.9a.68.68,0,0,0-.43.6c0,.29.24.53.65.53A1.14,1.14,0,0,0,45.6,58.3Z"/><path class="a" d="M51.12,57.78h-.63v1.51h-1V55.08h1.66c1,0,1.55.58,1.55,1.36A1.36,1.36,0,0,1,51.12,57.78ZM51.05,57c.4,0,.58-.21.58-.53s-.18-.53-.58-.53h-.56V57Z"/><path class="a" d="M53.21,54.85h1v4.44h-1Z"/><path class="a" d="M56.25,55.9a1.17,1.17,0,0,1,1,.52V56h1v3.34h-1v-.47a1.2,1.2,0,0,1-1,.52,1.74,1.74,0,0,1,0-3.44Zm.3.89a.74.74,0,0,0-.73.82.74.74,0,1,0,.73-.82Z"/><path class="a" d="M61.36,57.48a.64.64,0,1,0-1.28,0v1.81h-1V56h1v.44a1.22,1.22,0,0,1,1-.48,1.27,1.27,0,0,1,1.29,1.43v1.95h-1Z"/><path class="a" d="M63.26,56.8h-.41V56h.41v-.82h1V56H65v.85h-.67v1.34c0,.2.09.28.31.28H65v.87h-.52a1,1,0,0,1-1.18-1.16Z"/><path class="a" d="M65.44,55.05a.61.61,0,1,1,.61.55A.56.56,0,0,1,65.44,55.05Zm.09.9h1v3.34h-1Z"/><path class="a" d="M69.61,57.48a.64.64,0,1,0-1.28,0v1.81h-1V56h1v.44a1.22,1.22,0,0,1,1-.48,1.27,1.27,0,0,1,1.29,1.43v1.95h-1Z"/><path class="a" d="M72.62,55.9a1.16,1.16,0,0,1,1,.52V56h1v3.34a1.73,1.73,0,0,1-3.4.35h1a.63.63,0,0,0,.67.41c.39,0,.7-.2.7-.76v-.48a1.18,1.18,0,0,1-1,.53,1.74,1.74,0,0,1,0-3.44Zm.3.89a.75.75,0,0,0-.74.82.76.76,0,0,0,.74.84.84.84,0,0,0,0-1.66Z"/><path class="a" d="M10.13,12.84h1v2.87A1.27,1.27,0,0,1,9.77,17.1,1.35,1.35,0,0,1,8.3,15.64h1c0,.36.15.54.42.54s.39-.16.39-.47Z"/><path class="a" d="M14.6,16.31H13l-.25.74H11.71l1.52-4.21h1.19l1.52,4.21H14.85ZM13.82,14l-.52,1.54h1Z"/><path class="a" d="M20.17,12.84v4.21h-1l-1.71-2.59v2.59h-1V12.84h1l1.71,2.61V12.84Z"/><rect class="d" x="28.69" width="28.69" height="31.49"/><path class="a" d="M38.16,12.84H40.9v.83H39.19v.88h1.28v.8H39.19v1.7h-1Z"/><path class="a" d="M44,13.67H42.47v.85h1.37v.79H42.47v.92H44v.82H41.44V12.84H44Z"/><path class="a" d="M46.65,17.05h-2V12.84h1.9c.85,0,1.36.43,1.36,1.1a1,1,0,0,1-.71,1,1,1,0,0,1,.81,1C48.05,16.6,47.54,17.05,46.65,17.05Zm-.26-3.38h-.67v.88h.67c.33,0,.52-.15.52-.44S46.72,13.67,46.39,13.67Zm.07,1.63h-.74v.93h.75c.34,0,.54-.16.54-.46S46.8,15.3,46.46,15.3Z"/><rect class="d" x="57.38" width="28.69" height="31.49"/><path class="a" d="M65.17,12.84h1.21l1.18,2.92,1.17-2.92h1.21v4.21h-1V14.53L68,17.05h-.83l-.94-2.53v2.53h-1Z"/><path class="a" d="M73.3,16.31H71.73l-.25.74H70.4l1.53-4.21h1.18l1.53,4.21H73.55ZM72.51,14,72,15.52h1Z"/><path class="a" d="M76.82,12.84c1,0,1.55.6,1.55,1.33a1.23,1.23,0,0,1-.94,1.22l1,1.66H77.25l-.88-1.59h-.24v1.59h-1V12.84Zm-.06.86h-.63v1h.63a.49.49,0,0,0,.56-.53C77.32,13.9,77.14,13.7,76.76,13.7Z"/><rect class="d" x="86.06" width="28.69" height="31.49"/><path class="a" d="M97.36,16.31H95.79l-.25.74H94.46L96,12.84h1.18l1.53,4.21H97.61ZM96.57,14l-.51,1.54h1Z"/><path class="a" d="M100.82,15.54h-.63v1.51h-1V12.84h1.66c1,0,1.55.59,1.55,1.36S101.9,15.54,100.82,15.54Zm-.08-.81c.41,0,.59-.21.59-.53s-.18-.53-.59-.53h-.55v1.06Z"/><path class="a" d="M104.63,12.84c1,0,1.54.6,1.54,1.33a1.22,1.22,0,0,1-.93,1.22l1,1.66h-1.16l-.87-1.59h-.25v1.59h-1V12.84Zm-.06.86h-.64v1h.64a.49.49,0,0,0,.56-.53C105.13,13.9,105,13.7,104.57,13.7Z"/><rect class="d" x="114.75" width="28.69" height="31.49"/><path class="a" d="M122.49,12.84h1.21l1.18,2.92,1.17-2.92h1.21v4.21h-1V14.53l-.94,2.52h-.83l-.95-2.53v2.53h-1Z"/><path class="a" d="M130.62,16.31h-1.57l-.26.74h-1.07l1.52-4.21h1.19L132,17.05h-1.08ZM129.83,14l-.51,1.54h1Z"/><path class="a" d="M132.09,12.84h1.16l.82,1.77.81-1.77H136l-1.46,2.82v1.39h-1V15.66Z"/><rect class="d" x="143.44" width="28.69" height="31.49"/><path class="a" d="M153.66,12.84h1v2.87a1.27,1.27,0,0,1-1.39,1.39,1.36,1.36,0,0,1-1.47-1.46h1c0,.36.16.54.42.54s.39-.16.39-.47Z"/><path class="a" d="M155.5,12.84h1v2.52a.74.74,0,1,0,1.48,0V12.84h1v2.52a1.65,1.65,0,0,1-1.78,1.74,1.62,1.62,0,0,1-1.74-1.74Z"/><path class="a" d="M163.51,12.84v4.21h-1l-1.72-2.59v2.59h-1V12.84h1l1.72,2.61V12.84Z"/><rect class="d" x="172.13" width="28.69" height="31.49"/><path class="a" d="M183.17,12.84h1v2.87a1.27,1.27,0,0,1-1.39,1.39,1.35,1.35,0,0,1-1.46-1.46h1c0,.36.15.54.42.54s.38-.16.38-.47Z"/><path class="a" d="M185,12.84h1v2.52c0,.5.24.79.73.79a.69.69,0,0,0,.74-.79V12.84h1v2.52a1.66,1.66,0,0,1-1.79,1.74A1.62,1.62,0,0,1,185,15.36Z"/><path class="a" d="M190.29,12.84v3.42h1.34v.79h-2.37V12.84Z"/><rect class="d" x="200.81" width="28.69" height="31.49"/><path class="a" d="M211.54,16.31H210l-.26.74h-1.07l1.52-4.21h1.19l1.52,4.21h-1.08ZM210.75,14l-.51,1.54h1Z"/><path class="a" d="M213.32,12.84h1v2.52c0,.5.24.79.73.79a.69.69,0,0,0,.74-.79V12.84h1v2.52a1.66,1.66,0,0,1-1.79,1.74,1.62,1.62,0,0,1-1.74-1.74Z"/><path class="a" d="M221.5,14.18h-1.14a.86.86,0,0,0-.82-.44,1.08,1.08,0,0,0-1.1,1.2,1.11,1.11,0,0,0,1.18,1.24,1,1,0,0,0,1-.75h-1.3v-.75h2.23v1a2.15,2.15,0,0,1-4.18-.69,2.06,2.06,0,0,1,2.15-2.14A1.87,1.87,0,0,1,221.5,14.18Z"/><rect class="d" x="229.5" width="28.69" height="31.49"/><path class="a" d="M240.4,17.1c-.91,0-1.61-.45-1.64-1.31h1.09a.48.48,0,0,0,.52.48c.3,0,.49-.15.49-.39,0-.78-2.1-.36-2.09-1.85,0-.8.65-1.25,1.53-1.25s1.54.46,1.58,1.26h-1.11a.45.45,0,0,0-.48-.43.38.38,0,0,0-.44.38c0,.73,2.08.4,2.08,1.81A1.35,1.35,0,0,1,240.4,17.1Z"/><path class="a" d="M245.14,13.67h-1.55v.85H245v.79h-1.38v.92h1.55v.82h-2.57V12.84h2.57Z"/><path class="a" d="M247.47,15.54h-.63v1.51h-1V12.84h1.66c1,0,1.55.59,1.55,1.36S248.55,15.54,247.47,15.54Zm-.07-.81c.4,0,.58-.21.58-.53s-.18-.53-.58-.53h-.56v1.06Z"/><rect class="d" x="258.19" width="28.69" height="31.49"/><path class="a" d="M268.48,17.1a2.16,2.16,0,1,1,0-4.32,2.16,2.16,0,0,1,0,4.32Zm0-.94a1.1,1.1,0,0,0,1.11-1.22,1.12,1.12,0,1,0-2.23,0A1.1,1.1,0,0,0,268.48,16.16Z"/><path class="a" d="M273.15,12.8a2,2,0,0,1,2,1.47H274a.94.94,0,0,0-.89-.54,1.07,1.07,0,0,0-1.06,1.21,1.07,1.07,0,0,0,1.06,1.21.94.94,0,0,0,.89-.54h1.12a1.94,1.94,0,0,1-2,1.47A2,2,0,0,1,271,14.94,2,2,0,0,1,273.15,12.8Z"/><path class="a" d="M275.55,12.84h3.25v.83h-1.11v3.38h-1V13.67h-1.11Z"/><rect class="d" x="286.88" width="28.69" height="31.49"/><path class="a" d="M298.55,12.84v4.21h-1l-1.72-2.59v2.59h-1V12.84h1l1.72,2.61V12.84Z"/><path class="a" d="M301.29,17.1a2.16,2.16,0,1,1,2.15-2.16A2.12,2.12,0,0,1,301.29,17.1Zm0-.94a1.1,1.1,0,0,0,1.11-1.22,1.12,1.12,0,1,0-2.22,0A1.1,1.1,0,0,0,301.29,16.16Z"/><path class="a" d="M306.88,12.84H308l-1.5,4.21h-1.28l-1.49-4.21h1.09l1,3.18Z"/><rect class="d" x="315.56" width="28.69" height="31.49"/><path class="a" d="M328,15a2,2,0,0,1-2.2,2.1h-1.58V12.84h1.58A2,2,0,0,1,328,15Zm-2.27,1.22A1.12,1.12,0,0,0,326.93,15a1.13,1.13,0,0,0-1.23-1.23h-.48v2.45Z"/><path class="a" d="M331.13,13.67h-1.55v.85H331v.79h-1.37v.92h1.55v.82h-2.58V12.84h2.58Z"/><path class="a" d="M333.74,12.8a2,2,0,0,1,2,1.47h-1.13a.92.92,0,0,0-.88-.54,1.07,1.07,0,0,0-1.06,1.21,1.07,1.07,0,0,0,1.06,1.21.92.92,0,0,0,.88-.54h1.13a2,2,0,0,1-2,1.47,2,2,0,0,1-2.12-2.14A2,2,0,0,1,333.74,12.8Z"/><path class="a" d="M72.93,99.88c.93-.77,1.92-1.53,1.92-2.27,0-.31-.14-.52-.45-.52s-.49.24-.49.66h-1a1.43,1.43,0,0,1,1.52-1.52,1.27,1.27,0,0,1,1.44,1.32,3.23,3.23,0,0,1-1.55,2.26h1.61v.83h-3Z"/><path class="a" d="M77,100.75a.56.56,0,1,1,.6-.55A.56.56,0,0,1,77,100.75Z"/><path class="a" d="M79.46,96.49h1v4.21h-1Z"/><path class="a" d="M82.26,100.7h-1V97.36h1v.55a1.25,1.25,0,0,1,1-.59v1.09H83c-.49,0-.77.16-.77.74Z"/><path class="a" d="M84.83,100.7h-1V97.36h1v.55a1.25,1.25,0,0,1,1-.59v1.09h-.29c-.48,0-.76.16-.76.74Z"/><path class="a" d="M86.27,96.46a.61.61,0,1,1,.61.55A.57.57,0,0,1,86.27,96.46Zm.1.9h1v3.34h-1Z"/><path class="a" d="M89.41,97.31a1.16,1.16,0,0,1,1,.52v-.47h1v3.34a1.73,1.73,0,0,1-3.41.35h1a.65.65,0,0,0,.68.42c.38,0,.69-.21.69-.77v-.48a1.18,1.18,0,0,1-1,.53,1.74,1.74,0,0,1,0-3.44Zm.3.89A.75.75,0,0,0,89,99a.76.76,0,0,0,.73.84.84.84,0,0,0,0-1.66Z"/><path class="a" d="M93.48,97.31a1.17,1.17,0,0,1,1,.52v-.47h1v3.34h-1v-.47a1.18,1.18,0,0,1-1,.52,1.74,1.74,0,0,1,0-3.44Zm.3.89a.75.75,0,0,0-.73.82.76.76,0,0,0,.73.84.84.84,0,0,0,0-1.66Z"/><path class="a" d="M96.45,98.21H96v-.85h.41v-.82h1v.82h.67v.85h-.67v1.34c0,.2.09.28.31.28h.37v.87h-.52a1,1,0,0,1-1.18-1.16Z"/><path class="a" d="M98.63,96.46a.61.61,0,1,1,.61.55A.57.57,0,0,1,98.63,96.46Zm.09.9h1v3.34h-1Z"/><path class="a" d="M102,100.75A1.72,1.72,0,1,1,103.77,99,1.66,1.66,0,0,1,102,100.75Zm0-.89a.73.73,0,0,0,.71-.83c0-.57-.33-.83-.69-.83s-.7.26-.7.83S101.64,99.86,102,99.86Z"/><path class="a" d="M106.62,98.89a.64.64,0,1,0-1.28,0v1.81h-1V97.36h1v.44a1.22,1.22,0,0,1,1-.48,1.27,1.27,0,0,1,1.29,1.43v2h-1Z"/><path class="a" d="M111.65,97.51a.29.29,0,0,0-.31-.33.31.31,0,0,0-.34.3c0,.17.12.34.34.58l1,1a.89.89,0,0,0,.08-.17l.22-.38h1l-.29.53a4.69,4.69,0,0,1-.37.67l1,1h-1.19l-.39-.37a2.22,2.22,0,0,1-1.39.44c-1,0-1.6-.51-1.6-1.29a1.34,1.34,0,0,1,.86-1.24,1.09,1.09,0,0,1-.29-.76c0-.59.47-1.07,1.31-1.07s1.28.52,1.27,1.1Zm.18,2.2-.94-.9a.7.7,0,0,0-.43.6c0,.29.25.53.66.53A1.16,1.16,0,0,0,111.83,99.71Z"/><path class="a" d="M119.62,97.82h-1.14a.87.87,0,0,0-.82-.43,1.08,1.08,0,0,0-1.1,1.2,1.11,1.11,0,0,0,1.18,1.24,1,1,0,0,0,1-.75h-1.3v-.75h2.23v1a2.14,2.14,0,1,1-2-2.83A1.87,1.87,0,0,1,119.62,97.82Z"/><path class="a" d="M121.29,100.7h-1V97.36h1v.55a1.25,1.25,0,0,1,1-.59v1.09h-.29c-.48,0-.76.16-.76.74Z"/><path class="a" d="M124.35,100.75A1.72,1.72,0,1,1,126.1,99,1.66,1.66,0,0,1,124.35,100.75Zm0-.89a.73.73,0,0,0,.71-.83c0-.57-.34-.83-.7-.83s-.69.26-.69.83S124,99.86,124.35,99.86Z"/><path class="a" d="M126.3,97.36h1l.47,2.39.57-2.39h1.08l.57,2.38.47-2.38h1l-.9,3.34h-1.13l-.53-2.17-.55,2.17h-1.13Z"/><path class="a" d="M131.75,96.46a.61.61,0,1,1,.61.55A.57.57,0,0,1,131.75,96.46Zm.1.9h1v3.34h-1Z"/><path class="a" d="M135.93,98.89a.63.63,0,0,0-.65-.71.62.62,0,0,0-.64.71v1.81h-1V97.36h1v.44a1.3,1.3,0,0,1,2.3,1v2h-1Z"/><path class="a" d="M138.93,97.31a1.16,1.16,0,0,1,1,.52v-.47h1v3.34a1.73,1.73,0,0,1-3.41.35h1a.63.63,0,0,0,.67.42c.39,0,.69-.21.69-.77v-.48a1.16,1.16,0,0,1-1,.53,1.74,1.74,0,0,1,0-3.44Zm.3.89a.75.75,0,0,0-.73.82.76.76,0,0,0,.73.84.84.84,0,0,0,0-1.66Z"/><path class="a" d="M202.68,140.67c.92,0,1.42.53,1.42,1.19a1,1,0,0,1-.66,1v0a1,1,0,0,1,.74,1,1.28,1.28,0,0,1-1.45,1.27,1.41,1.41,0,0,1-1.6-1.42h1a.52.52,0,0,0,.57.57.46.46,0,0,0,.49-.5c0-.39-.24-.54-.77-.54h-.19v-.84h.19c.35,0,.68-.08.68-.48a.41.41,0,0,0-.45-.45.44.44,0,0,0-.46.48h-1A1.33,1.33,0,0,1,202.68,140.67Z"/><path class="a" d="M205.36,145.2a.56.56,0,1,1,0-1.12.56.56,0,1,1,0,1.12Z"/><path class="a" d="M210.46,143.42h-1.59v1.73h-1v-4.21h1v1.65h1.59v-1.65h1v4.21h-1Z"/><path class="a" d="M213.5,141.76a1.15,1.15,0,0,1,1,.52v-.48h1v3.35h-1v-.47a1.18,1.18,0,0,1-1,.52,1.74,1.74,0,0,1,0-3.44Zm.3.89a.83.83,0,1,0,.73.83A.75.75,0,0,0,213.8,142.65Z"/><path class="a" d="M217.33,145.15h-1V141.8h1v.56a1.25,1.25,0,0,1,1-.59v1.08h-.28c-.49,0-.77.17-.77.75Z"/><path class="a" d="M219.65,141.8l.73,2.39.72-2.39h1.09L221,145.15h-1.27l-1.19-3.35Z"/><path class="a" d="M224.11,145.2a1.72,1.72,0,0,1,0-3.44,1.57,1.57,0,0,1,1.67,1.66,1.51,1.51,0,0,1,0,.3h-2.32a.62.62,0,0,0,.64.64.53.53,0,0,0,.53-.32h1.09A1.55,1.55,0,0,1,224.11,145.2Zm-.66-2h1.28a.58.58,0,0,0-.63-.57A.63.63,0,0,0,223.45,143.15Z"/><path class="a" d="M227.68,145.2a1.38,1.38,0,0,1-1.54-1.15h1a.46.46,0,0,0,.51.39c.27,0,.4-.12.4-.27,0-.54-1.82-.15-1.82-1.38,0-.57.49-1,1.36-1A1.26,1.26,0,0,1,229,142.9h-1a.44.44,0,0,0-.49-.38c-.24,0-.37.09-.37.26,0,.53,1.81.15,1.83,1.4C229,144.76,228.52,145.2,227.68,145.2Z"/><path class="a" d="M229.83,142.66h-.4v-.86h.4V141h1v.81h.67v.86h-.67V144c0,.2.08.28.31.28h.37v.87H231a1,1,0,0,1-1.18-1.16Z"/><path class="a" d="M29.84,188.64h-2v-.83l1.9-2.71h1.14v2.65h.49v.89h-.49v.78h-1Zm.07-.89v-1.52l-1,1.52Z"/><path class="a" d="M32.44,189.47a.56.56,0,1,1,.61-.55A.57.57,0,0,1,32.44,189.47Z"/><path class="a" d="M34.93,185.21h1.21l1.18,2.92,1.17-2.92h1.2v4.21h-1V186.9l-.94,2.52H36.9L36,186.89v2.53h-1Z"/><path class="a" d="M40.34,185.18a.61.61,0,0,1,1.22,0,.57.57,0,0,1-.61.55A.56.56,0,0,1,40.34,185.18Zm.09.89h1v3.35h-1Z"/><path class="a" d="M42.2,185h1v4.44h-1Z"/><path class="a" d="M44,185h1v4.44H44Z"/><path class="a" d="M45.65,185.18a.61.61,0,0,1,1.22,0,.57.57,0,0,1-.61.55A.56.56,0,0,1,45.65,185.18Zm.09.89h1v3.35h-1Z"/><path class="a" d="M49.82,187.6a.64.64,0,1,0-1.28,0v1.82h-1v-3.35h1v.45a1.22,1.22,0,0,1,1-.48,1.27,1.27,0,0,1,1.29,1.43v1.95h-1Z"/><path class="a" d="M52.83,186a1.16,1.16,0,0,1,1,.52v-.48h1v3.35a1.73,1.73,0,0,1-3.41.35h1a.63.63,0,0,0,.67.41c.39,0,.7-.2.7-.76v-.48a1.18,1.18,0,0,1-1,.53,1.74,1.74,0,0,1,0-3.44Zm.3.89a.74.74,0,0,0-.73.82.74.74,0,1,0,1.46,0A.74.74,0,0,0,53.13,186.92Z"/><path class="a" d="M58.92,186.23a.29.29,0,0,0-.31-.33.3.3,0,0,0-.33.3c0,.17.11.34.33.58l1,1a1.3,1.3,0,0,1,.08-.17l.22-.38h1l-.28.52a4.33,4.33,0,0,1-.38.68l1,1h-1.2l-.39-.38a2.17,2.17,0,0,1-1.39.45c-1,0-1.59-.51-1.59-1.29A1.33,1.33,0,0,1,57.6,187a1.14,1.14,0,0,1-.29-.76c0-.59.48-1.07,1.31-1.07s1.29.52,1.27,1.1Zm.18,2.2-.93-.9a.68.68,0,0,0-.43.6c0,.29.24.53.65.53A1.14,1.14,0,0,0,59.1,188.43Z"/><path class="a" d="M64.49,189.46c-.91,0-1.62-.45-1.65-1.3h1.09a.48.48,0,0,0,.53.48c.3,0,.49-.15.49-.39,0-.78-2.11-.36-2.09-1.86,0-.79.65-1.24,1.53-1.24s1.54.46,1.58,1.26H64.86a.46.46,0,0,0-.49-.44.38.38,0,0,0-.43.39c0,.73,2.08.4,2.08,1.81A1.35,1.35,0,0,1,64.49,189.46Z"/><path class="a" d="M66.82,186.93h-.41v-.86h.41v-.81h1v.81h.67v.86h-.67v1.34c0,.2.08.28.31.28h.37v.87H68a1,1,0,0,1-1.18-1.16Z"/><path class="a" d="M70.61,189.47a1.72,1.72,0,1,1,1.75-1.72A1.66,1.66,0,0,1,70.61,189.47Zm0-.89a.73.73,0,0,0,.71-.83c0-.57-.34-.84-.7-.84s-.69.27-.69.84S70.24,188.58,70.61,188.58Z"/><path class="a" d="M73.94,189.42h-1v-3.35h1v.56a1.25,1.25,0,0,1,1-.59v1.08H74.7c-.48,0-.76.17-.76.75Z"/><path class="a" d="M76.75,186a1.17,1.17,0,0,1,1,.52v-.48h1v3.35h-1V189a1.19,1.19,0,0,1-1,.52,1.74,1.74,0,0,1,0-3.44Zm.3.89a.75.75,0,0,0-.73.82.76.76,0,0,0,.73.84.84.84,0,0,0,0-1.66Z"/><path class="a" d="M80.82,186a1.16,1.16,0,0,1,1,.52v-.48h1v3.35a1.73,1.73,0,0,1-3.41.35h1a.63.63,0,0,0,.67.41c.39,0,.7-.2.7-.76v-.48a1.18,1.18,0,0,1-1,.53,1.74,1.74,0,0,1,0-3.44Zm.3.89a.75.75,0,0,0-.73.82.74.74,0,1,0,1.47,0A.75.75,0,0,0,81.12,186.92Z"/><path class="a" d="M85.11,189.47a1.72,1.72,0,0,1,0-3.44,1.57,1.57,0,0,1,1.67,1.66c0,.1,0,.2,0,.3H84.44a.63.63,0,0,0,.64.65.54.54,0,0,0,.53-.33H86.7A1.55,1.55,0,0,1,85.11,189.47Zm-.66-2.05h1.28a.58.58,0,0,0-.63-.57A.63.63,0,0,0,84.45,187.42Z"/></svg>