<svg xmlns="http://www.w3.org/2000/svg" width="3.07in" height="2.81in" viewBox="0 0 221.29 202.61"><defs><style>.a{fill:#231f20;}.b{fill:#dd7a29;}.c{fill:#723f26;}.d{fill:#f9f3eb;}.e{fill:#f7dcc4;}.f{fill:none;stroke:#e4df4a;stroke-linecap:round;stroke-miterlimit:10;}</style></defs><path class="a" d="M120.24,24.83h-3.55V28h-.91V21h.91v3.06h3.55V21h.91v7h-.91Z"/><path class="a" d="M127.55,28h-.91v-.81a2,2,0,0,1-1.75.89,2.14,2.14,0,0,1-2.25-2.35V22.51h.9V25.6a1.47,1.47,0,0,0,1.53,1.68c.94,0,1.57-.58,1.57-1.76v-3h.91Z"/><path class="a" d="M131,28.08c-1.28,0-2.18-.7-2.24-1.7h.94c.05.53.52.93,1.29.93s1.12-.36,1.12-.81c0-1.22-3.24-.51-3.24-2.55,0-.84.79-1.53,2-1.53A1.84,1.84,0,0,1,133,24.14h-.91a1.05,1.05,0,0,0-1.19-.95c-.67,0-1.07.32-1.07.76,0,1.3,3.18.59,3.22,2.55C133,27.4,132.24,28.08,131,28.08Z"/><path class="a" d="M134.31,20.59h.91v4.35l2.11-2.43h1.27L136,25.24,138.61,28h-1.24l-2.15-2.42V28h-.91Z"/><path class="a" d="M118.38,64.06h-2.6v-7h2.5c1.47,0,2.21.8,2.21,1.77a1.63,1.63,0,0,1-1.22,1.61,1.74,1.74,0,0,1,1.38,1.71C120.65,63.24,119.82,64.06,118.38,64.06Zm-.18-6.21h-1.51v2.26h1.53c.85,0,1.34-.42,1.34-1.13S119.09,57.85,118.2,57.85Zm.07,3h-1.58v2.45h1.61c.9,0,1.44-.45,1.44-1.21S119.16,60.86,118.27,60.86Z"/><path class="a" d="M122.82,64.06h-.91V58.59h.91v.89a1.85,1.85,0,0,1,1.77-1v.94h-.24c-.87,0-1.53.39-1.53,1.66Z"/><path class="a" d="M127.9,58.5a2.27,2.27,0,0,1,2,1.09v-1h.92v5.47h-.92V63a2.29,2.29,0,0,1-2,1.11,2.63,2.63,0,0,1-2.59-2.84A2.6,2.6,0,0,1,127.9,58.5Zm.18.79a1.85,1.85,0,0,0-1.85,2,1.86,1.86,0,1,0,1.85-2Z"/><path class="a" d="M136.41,61c0-1.12-.61-1.69-1.53-1.69s-1.57.58-1.57,1.76v3h-.91V58.59h.91v.78a2,2,0,0,1,1.76-.88,2.13,2.13,0,0,1,2.24,2.35v3.22h-.9Z"/><path class="a" d="M175.52,45.17c1.33-1.07,2.59-2.08,2.59-3.12,0-.56-.24-1-.93-1s-1,.46-1,1.1h-.62a1.55,1.55,0,0,1,1.63-1.64,1.42,1.42,0,0,1,1.57,1.5c0,1.26-1.36,2.33-2.26,3.06h2.41v.54h-3.37Z"/><path class="a" d="M180.44,44.32a.94.94,0,0,0,1,.84c.74,0,1.14-.51,1.12-2a1.36,1.36,0,0,1-1.25.67,1.53,1.53,0,0,1-1.63-1.65,1.55,1.55,0,0,1,1.67-1.67c1.37,0,1.77,1,1.77,2.54s-.39,2.63-1.72,2.63a1.43,1.43,0,0,1-1.56-1.37Zm2.06-2.1a1.06,1.06,0,0,0-1.12-1.17,1.13,1.13,0,0,0,.05,2.25A1,1,0,0,0,182.5,42.22Z"/><path class="a" d="M184.92,40.72a1,1,0,0,1,0,2.09,1,1,0,0,1,0-2.09Zm-.51,1c0,.43.2.66.51.66s.51-.23.51-.66-.21-.65-.51-.65S184.41,41.32,184.41,41.76Zm2.94-1H188l-2.83,4.89h-.63Zm.25,2.87a1.06,1.06,0,1,1-1,1.06A1,1,0,0,1,187.6,43.66Zm-.53,1.06c0,.43.21.64.52.64s.52-.21.52-.64-.21-.66-.52-.66S187.07,44.27,187.07,44.72Z"/><path class="a" d="M194.13,43.51a1,1,0,0,0-1.07-1.18c-.65,0-1.1.4-1.1,1.23v2.12h-.64V41.84H192v.55a1.41,1.41,0,0,1,1.23-.62,1.49,1.49,0,0,1,1.57,1.65v2.26h-.63Z"/><path class="a" d="M199.2,45.68h-.63v-.57a1.43,1.43,0,0,1-1.23.63,1.5,1.5,0,0,1-1.57-1.65V41.84h.63V44c0,.78.42,1.17,1.07,1.17s1.1-.4,1.1-1.23V41.84h.63Z"/><path class="a" d="M200.42,42.37h-.5v-.53h.5v-1h.64v1h1v.53h-1v2.26c0,.38.14.51.53.51h.47v.54h-.57c-.68,0-1.07-.28-1.07-1Z"/><path class="a" d="M203.47,45.68h-.64V41.84h.64v.63a1.29,1.29,0,0,1,1.24-.7v.66h-.17c-.61,0-1.07.28-1.07,1.16Z"/><path class="a" d="M205.33,40.79a.43.43,0,1,1,.86,0,.42.42,0,0,1-.42.43A.43.43,0,0,1,205.33,40.79Zm.11,1.05h.64v3.84h-.64Z"/><path class="a" d="M208.82,45.74a1.85,1.85,0,0,1-1.9-2,1.83,1.83,0,0,1,1.9-2,1.75,1.75,0,0,1,1.84,1.84,2.36,2.36,0,0,1,0,.38h-3.07a1.21,1.21,0,0,0,1.25,1.21,1.06,1.06,0,0,0,1.08-.71h.69A1.73,1.73,0,0,1,208.82,45.74Zm-1.24-2.26H210a1.13,1.13,0,0,0-1.22-1.16A1.19,1.19,0,0,0,207.58,43.48Z"/><path class="a" d="M214.31,43.51a1,1,0,0,0-1.07-1.18c-.65,0-1.1.4-1.1,1.23v2.12h-.64V41.84h.64v.55a1.41,1.41,0,0,1,1.23-.62,1.49,1.49,0,0,1,1.57,1.65v2.26h-.63Z"/><path class="a" d="M216.12,42.37h-.5v-.53h.5v-1h.64v1h1v.53h-1v2.26c0,.38.14.51.53.51h.47v.54h-.57c-.68,0-1.07-.28-1.07-1Z"/><path class="a" d="M219.89,45.74c-.9,0-1.53-.49-1.57-1.19H219c0,.38.36.66.9.66s.79-.26.79-.57c0-.86-2.27-.36-2.27-1.79,0-.59.55-1.07,1.4-1.07A1.29,1.29,0,0,1,221.25,43h-.63a.75.75,0,0,0-.84-.67c-.47,0-.75.22-.75.53,0,.91,2.23.42,2.26,1.79C221.29,45.27,220.74,45.74,219.89,45.74Z"/><path class="a" d="M118.67,127v.56h-2.45v1.6a1.44,1.44,0,0,1,1.15-.51,1.53,1.53,0,0,1,1.63,1.67,1.76,1.76,0,0,1-3.48.38h.63a1.14,1.14,0,0,0,2.24-.37,1,1,0,0,0-1.11-1.14,1.09,1.09,0,0,0-1,.67h-.6V127Z"/><path class="a" d="M120.72,127.14a1,1,0,1,1-1,1A1,1,0,0,1,120.72,127.14Zm-.51,1c0,.43.21.66.51.66s.52-.23.52-.66-.21-.65-.52-.65S120.21,127.74,120.21,128.18Zm3-1h.63L121,132.1h-.64Zm.25,2.87a1.06,1.06,0,1,1-1,1.06A1,1,0,0,1,123.41,130.08Zm-.53,1.06c0,.43.21.64.52.64s.52-.21.52-.64-.21-.66-.52-.66S122.88,130.69,122.88,131.14Z"/><path class="a" d="M129.94,129.93a1,1,0,0,0-1.07-1.18c-.66,0-1.1.4-1.1,1.23v2.12h-.64v-3.84h.64v.55a1.41,1.41,0,0,1,1.23-.62,1.49,1.49,0,0,1,1.57,1.65v2.26h-.63Z"/><path class="a" d="M135,132.1h-.64v-.57a1.4,1.4,0,0,1-1.22.63,1.5,1.5,0,0,1-1.58-1.65v-2.25h.63v2.17a1,1,0,0,0,1.08,1.17c.65,0,1.09-.4,1.09-1.23v-2.11H135Z"/><path class="a" d="M136.23,128.79h-.5v-.53h.5v-1h.64v1h1v.53h-1v2.26c0,.38.14.51.53.51h.47v.54h-.58c-.68,0-1.06-.28-1.06-1Z"/><path class="a" d="M139.27,132.1h-.63v-3.84h.63v.63a1.3,1.3,0,0,1,1.24-.7v.66h-.16c-.61,0-1.08.28-1.08,1.16Z"/><path class="a" d="M141.14,127.21a.43.43,0,1,1,.86,0,.42.42,0,0,1-.42.43A.43.43,0,0,1,141.14,127.21Zm.11,1h.63v3.84h-.63Z"/><path class="a" d="M144.63,132.16a1.85,1.85,0,0,1-1.9-2,1.83,1.83,0,0,1,1.9-2,1.76,1.76,0,0,1,1.84,1.84c0,.14,0,.25,0,.38h-3.07a1.21,1.21,0,0,0,1.25,1.21,1.07,1.07,0,0,0,1.08-.71h.68A1.71,1.71,0,0,1,144.63,132.16Zm-1.24-2.26h2.42a1.12,1.12,0,0,0-1.21-1.16A1.19,1.19,0,0,0,143.39,129.9Z"/><path class="a" d="M150.12,129.93a1,1,0,0,0-1.07-1.18c-.65,0-1.1.4-1.1,1.23v2.12h-.64v-3.84H148v.55a1.41,1.41,0,0,1,1.23-.62,1.49,1.49,0,0,1,1.57,1.65v2.26h-.63Z"/><path class="a" d="M151.93,128.79h-.5v-.53h.5v-1h.64v1h1v.53h-1v2.26c0,.38.14.51.53.51h.47v.54H153c-.68,0-1.06-.28-1.06-1Z"/><path class="a" d="M155.7,132.16c-.9,0-1.53-.49-1.57-1.19h.66c0,.38.36.66.9.66s.78-.26.78-.57c0-.86-2.27-.36-2.27-1.79,0-.59.56-1.07,1.41-1.07a1.29,1.29,0,0,1,1.45,1.21h-.64a.73.73,0,0,0-.83-.67c-.47,0-.75.22-.75.53,0,.91,2.23.42,2.26,1.79C157.1,131.69,156.54,132.16,155.7,132.16Z"/><path class="a" d="M118.27,198.67a.88.88,0,0,0-1-.78c-.81,0-1.24.55-1.23,2.06a1.44,1.44,0,0,1,1.37-.78,1.53,1.53,0,0,1,1.58,1.69,1.55,1.55,0,0,1-1.65,1.68c-1.5,0-1.86-1.08-1.86-2.61s.51-2.57,1.8-2.57a1.44,1.44,0,0,1,1.54,1.31Zm-2.12,2.14a1.11,1.11,0,0,0,1.19,1.2,1.15,1.15,0,0,0,0-2.3A1.09,1.09,0,0,0,116.15,200.81Z"/><path class="a" d="M122.71,198.67a.87.87,0,0,0-1-.78c-.8,0-1.24.55-1.23,2.06a1.45,1.45,0,0,1,1.37-.78,1.53,1.53,0,0,1,1.59,1.69,1.56,1.56,0,0,1-1.66,1.68c-1.49,0-1.85-1.08-1.85-2.61s.51-2.57,1.79-2.57a1.42,1.42,0,0,1,1.54,1.31Zm-2.11,2.14a1.11,1.11,0,0,0,1.19,1.2,1.15,1.15,0,0,0,0-2.3A1.08,1.08,0,0,0,120.6,200.81Z"/><path class="a" d="M125.22,197.56a1.05,1.05,0,0,1,0,2.1,1.05,1.05,0,0,1,0-2.1Zm-.51,1.05c0,.43.2.65.51.65s.52-.22.52-.65-.21-.66-.52-.66S124.71,198.16,124.71,198.61Zm3-1h.63l-2.84,4.89h-.63Zm.24,2.87a1.05,1.05,0,1,1-1,1.05A1,1,0,0,1,127.9,200.51Zm-.52,1.05c0,.44.21.65.51.65s.52-.21.52-.65-.21-.65-.52-.65S127.38,201.12,127.38,201.56Z"/><path class="a" d="M134.43,200.36c0-.79-.43-1.19-1.07-1.19s-1.1.41-1.1,1.24v2.12h-.64v-3.84h.64v.55a1.41,1.41,0,0,1,1.23-.62,1.49,1.49,0,0,1,1.57,1.65v2.26h-.63Z"/><path class="a" d="M139.51,202.53h-.64V202a1.42,1.42,0,0,1-1.23.62,1.49,1.49,0,0,1-1.57-1.64v-2.25h.63v2.16a1,1,0,0,0,1.07,1.18c.66,0,1.1-.41,1.1-1.23v-2.11h.64Z"/><path class="a" d="M140.72,199.21h-.49v-.52h.49v-1h.64v1h1v.52h-1v2.27c0,.38.14.51.53.51h.47v.54h-.57c-.68,0-1.07-.28-1.07-1.05Z"/><path class="a" d="M143.77,202.53h-.64v-3.84h.64v.62a1.3,1.3,0,0,1,1.24-.69v.66h-.17c-.61,0-1.07.27-1.07,1.16Z"/><path class="a" d="M145.64,197.63a.43.43,0,1,1,.43.44A.43.43,0,0,1,145.64,197.63Zm.1,1.06h.64v3.84h-.64Z"/><path class="a" d="M149.12,202.59a1.84,1.84,0,0,1-1.89-2,1.82,1.82,0,0,1,1.89-2,1.76,1.76,0,0,1,1.85,1.83,2.56,2.56,0,0,1,0,.39h-3.06a1.2,1.2,0,0,0,1.24,1.2,1,1,0,0,0,1.08-.71h.69A1.73,1.73,0,0,1,149.12,202.59Zm-1.24-2.26h2.43a1.13,1.13,0,0,0-1.21-1.16A1.19,1.19,0,0,0,147.88,200.33Z"/><path class="a" d="M154.61,200.36c0-.79-.43-1.19-1.07-1.19s-1.1.41-1.1,1.24v2.12h-.64v-3.84h.64v.55a1.42,1.42,0,0,1,1.23-.62,1.49,1.49,0,0,1,1.57,1.65v2.26h-.63Z"/><path class="a" d="M156.42,199.21h-.49v-.52h.49v-1h.64v1h1v.52h-1v2.27c0,.38.14.51.53.51h.47v.54h-.57c-.68,0-1.07-.28-1.07-1.05Z"/><path class="a" d="M160.19,202.59c-.9,0-1.53-.49-1.57-1.19h.66c0,.37.36.65.9.65s.79-.25.79-.57c0-.85-2.27-.35-2.27-1.78,0-.59.55-1.07,1.41-1.07a1.29,1.29,0,0,1,1.45,1.2h-.64a.74.74,0,0,0-.83-.66c-.47,0-.75.22-.75.53,0,.91,2.22.41,2.25,1.78C161.59,202.11,161,202.59,160.19,202.59Z"/><path class="a" d="M122.15,184.12h-1.09a2.22,2.22,0,0,0-2.12-1.28,2.73,2.73,0,0,0,0,5.46,2.35,2.35,0,0,0,2.45-2.26h-2.78v-.73h3.75V186a3.38,3.38,0,0,1-3.42,3.12,3.55,3.55,0,0,1,0-7.1A3.3,3.3,0,0,1,122.15,184.12Z"/><path class="a" d="M125.93,189.15a2.64,2.64,0,0,1-2.71-2.84,2.6,2.6,0,0,1,2.71-2.81,2.51,2.51,0,0,1,2.63,2.61,4.93,4.93,0,0,1,0,.55h-4.38a1.72,1.72,0,0,0,1.78,1.72,1.51,1.51,0,0,0,1.54-1h1A2.46,2.46,0,0,1,125.93,189.15Zm-1.77-3.23h3.46a1.61,1.61,0,0,0-1.73-1.65A1.7,1.7,0,0,0,124.16,185.92Z"/><path class="a" d="M130.67,189.06h-.91v-5.47h.91v.89a1.85,1.85,0,0,1,1.77-1v.94h-.24c-.87,0-1.53.39-1.53,1.65Z"/><path class="a" d="M141.4,186c0-1.11-.6-1.68-1.5-1.68s-1.55.59-1.55,1.76v3h-.9V186c0-1.11-.6-1.68-1.5-1.68s-1.55.59-1.55,1.76v3h-.91v-5.47h.91v.79a2,2,0,0,1,1.73-.89,2.06,2.06,0,0,1,2,1.22,2,2,0,0,1,1.94-1.22,2.12,2.12,0,0,1,2.22,2.35v3.22h-.9Z"/><path class="b" d="M49.52,12.35C86.44,12.35,99,51.91,99,100.71s-12.6,88.35-48.52,88.35C14.44,189.06,0,149.5,0,100.71S14.44,12.35,49.52,12.35Z"/><path class="c" d="M49.52,20.92c33.34,0,45.69,35.72,45.69,79.79s-12.35,79.78-44.78,79.78c-32.59,0-46.6-35.72-46.6-79.78S17.84,20.92,49.52,20.92Z"/><path class="d" d="M49.52,25.71c30.11,0,42.24,33.57,42.24,75s-12.13,75-41.42,75-43.05-33.58-43.05-75S20.91,25.71,49.52,25.71Z"/><path class="b" d="M31.67,16.82l18.18-.08,17.53.08C58.77,12,53.4,6.67,50.74,1a1.71,1.71,0,0,0-3.08,0C45,6.67,39.63,12,31.67,16.82Z"/><path class="e" d="M73.35,135.14c7.11,4.31,6.92,15,1.2,24.43s-16.08,13.39-23,9.2S46,155,51.74,145.51,66.59,131.05,73.35,135.14Z"/><line class="f" x1="65.48" y1="152.07" x2="112.57" y2="184.98"/><path class="a" d="M115.24,111.67h1l1.52,5.91,1.68-5.91h1l1.6,5.89,1.53-5.89h1l-2,7h-1L119.88,113l-1.68,5.61h-1Z"/><path class="a" d="M125.54,111.24h.91V114a2.06,2.06,0,0,1,1.81-.89,2.11,2.11,0,0,1,2.19,2.35v3.23h-.9v-3.1c0-1.12-.61-1.69-1.53-1.69s-1.57.58-1.57,1.76v3h-.91Z"/><path class="a" d="M131.79,111.65a.61.61,0,1,1,.62.62A.61.61,0,0,1,131.79,111.65Zm.15,1.51h.91v5.48h-.91Z"/><path class="a" d="M134.6,113.91h-.71v-.75h.71v-1.38h.91v1.38h1.43v.75h-1.43v3.23c0,.54.2.73.76.73h.67v.77h-.82c-1,0-1.52-.4-1.52-1.5Z"/><path class="a" d="M140.41,118.73a2.64,2.64,0,0,1-2.71-2.84,2.61,2.61,0,0,1,2.71-2.82,2.51,2.51,0,0,1,2.63,2.62,4.93,4.93,0,0,1,0,.55h-4.38a1.72,1.72,0,0,0,1.78,1.72,1.51,1.51,0,0,0,1.54-1h1A2.46,2.46,0,0,1,140.41,118.73Zm-1.77-3.23h3.46a1.61,1.61,0,0,0-1.73-1.66A1.7,1.7,0,0,0,138.64,115.5Z"/><path class="a" d="M147.82,118.64h-.91v-5.48h.91v.89a1.85,1.85,0,0,1,1.77-1V114h-.24c-.87,0-1.53.39-1.53,1.66Z"/><path class="a" d="M150.49,111.65a.61.61,0,1,1,.62.62A.61.61,0,0,1,150.49,111.65Zm.15,1.51h.91v5.48h-.91Z"/><path class="a" d="M155.43,113.07a2.38,2.38,0,0,1,2.53,1.85h-1a1.49,1.49,0,0,0-1.55-1.08c-1,0-1.74.71-1.74,2s.74,2.07,1.74,2.07a1.47,1.47,0,0,0,1.55-1.08h1a2.44,2.44,0,0,1-2.53,1.85,2.83,2.83,0,0,1,0-5.66Z"/><path class="a" d="M161.54,118.73a2.64,2.64,0,0,1-2.71-2.84,2.61,2.61,0,0,1,2.71-2.82,2.51,2.51,0,0,1,2.63,2.62,4.93,4.93,0,0,1,0,.55h-4.38a1.72,1.72,0,0,0,1.78,1.72,1.51,1.51,0,0,0,1.54-1h1A2.46,2.46,0,0,1,161.54,118.73Zm-1.77-3.23h3.46a1.61,1.61,0,0,0-1.73-1.66A1.7,1.7,0,0,0,159.77,115.5Z"/><line class="f" x1="82.91" y1="36.85" x2="111.47" y2="25.47"/><line class="f" x1="89.94" y1="65.59" x2="110.73" y2="62.53"/><line class="f" x1="63.95" y1="106.82" x2="110.73" y2="115.12"/><polyline class="f" points="144.82 25.71 166.68 25.71 166.68 60.78 144.82 60.78"/></svg>