<svg width="139" height="105" viewBox="0 0 139 105" fill="none" xmlns="http://www.w3.org/2000/svg">
<path d="M68.9116 100.435C120.766 100.435 136.076 76.4385 136.076 46.8374H1.74756C1.74756 76.4385 17.0577 100.435 68.9116 100.435Z" fill="#B66B3C"/>
<rect x="40.751" y="81.301" width="56.3213" height="23.5076" fill="#B66B3C"/>
<path d="M19.315 26.3616C8.37437 23.3648 -5.61311 32.0199 2.34055 47.0766H136.097C144.669 31.7359 125.469 19.265 116.006 26.3616C116.006 11.1151 97.0821 2.11485 84.6287 9.23049C71.9482 -3.79899 54.7981 -2.91192 43.5384 11.1151C29.6638 8.29385 17.0111 10.4464 19.315 26.3616Z" fill="white"/>
<path d="M26.9721 43.4716C22.8017 29.5915 35.904 24.6596 44.5489 28.9586" stroke="#FFF0A6" stroke-width="2"/>
<path d="M76.4814 41.715C72.3109 27.8348 85.4133 22.903 94.0582 27.202" stroke="#FFF0A6" stroke-width="2"/>
<path d="M52.297 21.8479C54.09 7.46611 68.068 8.24835 74.239 15.6736" stroke="#FFF0A6" stroke-width="2"/>
</svg>
