<svg width="1559" height="588" viewBox="0 0 1559 588" fill="none" xmlns="http://www.w3.org/2000/svg">
<path d="M56.135 77.5116C66.1212 83.2771 70.0115 95.2343 69.8388 95.5336C69.666 95.8328 57.3656 98.4423 47.3794 92.6768C37.3932 86.9112 33.5029 74.954 33.6757 74.6548C33.8484 74.3555 46.1489 71.7461 56.135 77.5116Z" fill="#B66B3C"/>
<path d="M83.8438 71.624C83.8438 60.0929 75.4337 50.7452 75.0881 50.7452C74.7426 50.7452 66.3325 60.0929 66.3325 71.624C66.3325 83.155 74.7426 92.5027 75.0881 92.5027C75.4337 92.5027 83.8438 83.155 83.8438 71.624Z" fill="#B66B3C"/>
<path d="M41.6546 52.4308C51.6407 58.1963 55.5311 70.1535 55.3583 70.4528C55.1855 70.752 42.8851 73.3615 32.8989 67.5959C22.9128 61.8304 19.0224 49.8732 19.1952 49.574C19.368 49.2747 31.6684 46.6653 41.6546 52.4308Z" fill="#B66B3C"/>
<path d="M69.3633 46.5431C69.3633 35.0121 60.9532 25.6644 60.6077 25.6644C60.2621 25.6644 51.8521 35.0121 51.8521 46.5431C51.8521 58.0742 60.2621 67.4219 60.6077 67.4219C60.9532 67.4219 69.3633 58.0742 69.3633 46.5431Z" fill="#B66B3C"/>
<path d="M45.2419 29.4809C39.4764 19.4947 27.5192 15.6044 27.2199 15.7771C26.9207 15.9499 24.3112 28.2503 30.0767 38.2365C35.8422 48.2227 47.7995 52.113 48.0987 51.9402C48.3979 51.7675 51.0074 39.467 45.2419 29.4809Z" fill="#B66B3C"/>
<path fill-rule="evenodd" clip-rule="evenodd" d="M46.938 47.685L84.3178 112.429L82.3735 113.551L44.9938 48.8075L46.938 47.685Z" fill="#B66B3C"/>
<path d="M176.807 77.5115C186.793 83.277 190.683 95.2342 190.511 95.5334C190.338 95.8327 178.037 98.4422 168.051 92.6766C158.065 86.9111 154.175 74.9539 154.348 74.6547C154.52 74.3554 166.821 71.7459 176.807 77.5115Z" fill="#B66B3C"/>
<path d="M204.516 71.6239C204.516 60.0929 196.106 50.7451 195.761 50.7451C195.415 50.7451 187.005 60.0929 187.005 71.6239C187.005 83.1549 195.415 92.5027 195.761 92.5027C196.106 92.5027 204.516 83.1549 204.516 71.6239Z" fill="#B66B3C"/>
<path d="M162.326 52.4307C172.313 58.1962 176.203 70.1535 176.03 70.4527C175.857 70.7519 163.557 73.3614 153.571 67.5959C143.585 61.8304 139.694 49.8731 139.867 49.5739C140.04 49.2747 152.34 46.6652 162.326 52.4307Z" fill="#B66B3C"/>
<path d="M190.036 46.5431C190.036 35.0121 181.626 25.6643 181.28 25.6643C180.935 25.6643 172.524 35.0121 172.524 46.5431C172.524 58.0741 180.935 67.4219 181.28 67.4219C181.626 67.4219 190.036 58.0741 190.036 46.5431Z" fill="#B66B3C"/>
<path d="M165.914 29.4809C160.148 19.4947 148.191 15.6044 147.892 15.7771C147.593 15.9499 144.983 28.2503 150.749 38.2365C156.514 48.2227 168.471 52.113 168.771 51.9402C169.07 51.7675 171.679 39.467 165.914 29.4809Z" fill="#B66B3C"/>
<path fill-rule="evenodd" clip-rule="evenodd" d="M167.61 47.6849L204.99 112.429L203.045 113.551L165.666 48.8074L167.61 47.6849Z" fill="#B66B3C"/>
<path d="M297.479 77.5118C307.465 83.2773 311.355 95.2346 311.183 95.5338C311.01 95.833 298.709 98.4425 288.723 92.677C278.737 86.9115 274.847 74.9543 275.019 74.655C275.192 74.3558 287.493 71.7463 297.479 77.5118Z" fill="#B66B3C"/>
<path d="M325.188 71.6242C325.188 60.0932 316.777 50.7454 316.432 50.7454C316.086 50.7454 307.676 60.0932 307.676 71.6242C307.676 83.1552 316.086 92.503 316.432 92.503C316.777 92.503 325.188 83.1552 325.188 71.6242Z" fill="#B66B3C"/>
<path d="M282.998 52.4308C292.984 58.1963 296.875 70.1536 296.702 70.4528C296.529 70.7521 284.229 73.3615 274.243 67.596C264.257 61.8305 260.366 49.8733 260.539 49.574C260.712 49.2748 273.012 46.6653 282.998 52.4308Z" fill="#B66B3C"/>
<path d="M310.707 46.5432C310.707 35.0122 302.297 25.6644 301.951 25.6644C301.606 25.6644 293.196 35.0122 293.196 46.5432C293.196 58.0742 301.606 67.422 301.951 67.422C302.297 67.422 310.707 58.0742 310.707 46.5432Z" fill="#B66B3C"/>
<path d="M286.585 29.481C280.82 19.4948 268.862 15.6045 268.563 15.7772C268.264 15.95 265.654 28.2504 271.42 38.2366C277.185 48.2228 289.143 52.1131 289.442 51.9404C289.741 51.7676 292.351 39.4672 286.585 29.481Z" fill="#B66B3C"/>
<path fill-rule="evenodd" clip-rule="evenodd" d="M288.282 47.685L325.662 112.429L323.717 113.551L286.338 48.8075L288.282 47.685Z" fill="#B66B3C"/>
<path d="M418.151 77.5118C428.137 83.2773 432.027 95.2345 431.854 95.5337C431.682 95.833 419.381 98.4425 409.395 92.6769C399.409 86.9114 395.519 74.9542 395.691 74.655C395.864 74.3557 408.164 71.7462 418.151 77.5118Z" fill="#B66B3C"/>
<path d="M445.859 71.6241C445.859 60.0931 437.449 50.7454 437.104 50.7454C436.758 50.7454 428.348 60.0931 428.348 71.6241C428.348 83.1552 436.758 92.5029 437.104 92.5029C437.449 92.5029 445.859 83.1552 445.859 71.6241Z" fill="#B66B3C"/>
<path d="M403.67 52.4308C413.656 58.1963 417.547 70.1536 417.374 70.4528C417.201 70.7521 404.901 73.3615 394.915 67.596C384.928 61.8305 381.038 49.8733 381.211 49.574C381.384 49.2748 393.684 46.6653 403.67 52.4308Z" fill="#B66B3C"/>
<path d="M431.379 46.5432C431.379 35.0122 422.969 25.6644 422.623 25.6644C422.278 25.6644 413.868 35.0122 413.868 46.5432C413.868 58.0742 422.278 67.422 422.623 67.422C422.969 67.422 431.379 58.0742 431.379 46.5432Z" fill="#B66B3C"/>
<path d="M407.257 29.481C401.492 19.4948 389.534 15.6045 389.235 15.7772C388.936 15.95 386.326 28.2504 392.092 38.2366C397.857 48.2228 409.815 52.1131 410.114 51.9404C410.413 51.7676 413.023 39.4672 407.257 29.481Z" fill="#B66B3C"/>
<path fill-rule="evenodd" clip-rule="evenodd" d="M408.953 47.685L446.333 112.429L444.389 113.551L407.009 48.8075L408.953 47.685Z" fill="#B66B3C"/>
<path d="M538.823 77.5118C548.809 83.2773 552.699 95.2345 552.526 95.5337C552.354 95.833 540.053 98.4425 530.067 92.6769C520.081 86.9114 516.19 74.9542 516.363 74.655C516.536 74.3557 528.836 71.7462 538.823 77.5118Z" fill="#B66B3C"/>
<path d="M566.531 71.6241C566.531 60.0931 558.121 50.7454 557.776 50.7454C557.43 50.7454 549.02 60.0931 549.02 71.6241C549.02 83.1552 557.43 92.5029 557.776 92.5029C558.121 92.5029 566.531 83.1552 566.531 71.6241Z" fill="#B66B3C"/>
<path d="M524.343 52.4308C534.329 58.1963 538.219 70.1536 538.046 70.4528C537.874 70.7521 525.573 73.3615 515.587 67.596C505.601 61.8305 501.71 49.8733 501.883 49.574C502.056 49.2748 514.356 46.6653 524.343 52.4308Z" fill="#B66B3C"/>
<path d="M552.051 46.5432C552.051 35.0122 543.641 25.6644 543.296 25.6644C542.95 25.6644 534.54 35.0122 534.54 46.5432C534.54 58.0742 542.95 67.422 543.296 67.422C543.641 67.422 552.051 58.0742 552.051 46.5432Z" fill="#B66B3C"/>
<path d="M527.929 29.4809C522.163 19.4948 510.206 15.6044 509.907 15.7772C509.608 15.95 506.998 28.2504 512.764 38.2366C518.529 48.2227 530.486 52.1131 530.786 51.9403C531.085 51.7675 533.694 39.4671 527.929 29.4809Z" fill="#B66B3C"/>
<path fill-rule="evenodd" clip-rule="evenodd" d="M529.626 47.685L567.005 112.429L565.061 113.551L527.681 48.8075L529.626 47.685Z" fill="#B66B3C"/>
<path d="M659.495 77.5116C669.481 83.2771 673.371 95.2343 673.199 95.5336C673.026 95.8328 660.725 98.4423 650.739 92.6768C640.753 86.9112 636.863 74.954 637.036 74.6548C637.208 74.3555 649.509 71.7461 659.495 77.5116Z" fill="#B66B3C"/>
<path d="M687.204 71.624C687.204 60.0929 678.794 50.7452 678.448 50.7452C678.102 50.7452 669.692 60.0929 669.692 71.624C669.692 83.155 678.102 92.5027 678.448 92.5027C678.794 92.5027 687.204 83.155 687.204 71.624Z" fill="#B66B3C"/>
<path d="M645.014 52.4307C655.001 58.1962 658.891 70.1535 658.718 70.4527C658.545 70.7519 646.245 73.3614 636.259 67.5959C626.273 61.8304 622.382 49.8731 622.555 49.5739C622.728 49.2747 635.028 46.6652 645.014 52.4307Z" fill="#B66B3C"/>
<path d="M672.723 46.5431C672.723 35.0121 664.313 25.6643 663.968 25.6643C663.622 25.6643 655.212 35.0121 655.212 46.5431C655.212 58.0741 663.622 67.4219 663.968 67.4219C664.313 67.4219 672.723 58.0741 672.723 46.5431Z" fill="#B66B3C"/>
<path d="M648.601 29.4809C642.836 19.4947 630.879 15.6044 630.579 15.7771C630.28 15.9499 627.671 28.2503 633.436 38.2365C639.202 48.2227 651.159 52.113 651.458 51.9402C651.757 51.7675 654.367 39.467 648.601 29.4809Z" fill="#B66B3C"/>
<path fill-rule="evenodd" clip-rule="evenodd" d="M650.298 47.6849L687.678 112.429L685.733 113.551L648.354 48.8074L650.298 47.6849Z" fill="#B66B3C"/>
<path d="M780.167 77.5116C790.153 83.2771 794.043 95.2343 793.871 95.5336C793.698 95.8328 781.397 98.4423 771.411 92.6768C761.425 86.9112 757.535 74.954 757.707 74.6548C757.88 74.3555 770.181 71.7461 780.167 77.5116Z" fill="#B66B3C"/>
<path d="M807.875 71.624C807.875 60.093 799.465 50.7452 799.12 50.7452C798.774 50.7452 790.364 60.093 790.364 71.624C790.364 83.1551 798.774 92.5028 799.12 92.5028C799.465 92.5028 807.875 83.1551 807.875 71.624Z" fill="#B66B3C"/>
<path d="M765.686 52.4308C775.672 58.1963 779.563 70.1535 779.39 70.4528C779.217 70.752 766.917 73.3615 756.931 67.5959C746.945 61.8304 743.054 49.8732 743.227 49.574C743.4 49.2747 755.7 46.6653 765.686 52.4308Z" fill="#B66B3C"/>
<path d="M793.396 46.5431C793.396 35.0121 784.985 25.6644 784.64 25.6644C784.294 25.6644 775.884 35.0121 775.884 46.5431C775.884 58.0742 784.294 67.4219 784.64 67.4219C784.985 67.4219 793.396 58.0742 793.396 46.5431Z" fill="#B66B3C"/>
<path d="M769.274 29.4809C763.508 19.4948 751.551 15.6044 751.252 15.7772C750.952 15.95 748.343 28.2504 754.108 38.2366C759.874 48.2227 771.831 52.1131 772.13 51.9403C772.43 51.7675 775.039 39.4671 769.274 29.4809Z" fill="#B66B3C"/>
<path fill-rule="evenodd" clip-rule="evenodd" d="M770.97 47.685L808.35 112.429L806.405 113.551L769.026 48.8075L770.97 47.685Z" fill="#B66B3C"/>
<path d="M900.839 77.5116C910.825 83.2772 914.716 95.2344 914.543 95.5336C914.37 95.8329 902.07 98.4423 892.084 92.6768C882.097 86.9113 878.207 74.9541 878.38 74.6548C878.553 74.3556 890.853 71.7461 900.839 77.5116Z" fill="#B66B3C"/>
<path d="M928.548 71.624C928.548 60.093 920.138 50.7452 919.792 50.7452C919.447 50.7452 911.037 60.093 911.037 71.624C911.037 83.1551 919.447 92.5028 919.792 92.5028C920.138 92.5028 928.548 83.1551 928.548 71.624Z" fill="#B66B3C"/>
<path d="M886.359 52.4307C896.345 58.1962 900.235 70.1535 900.062 70.4527C899.89 70.7519 887.589 73.3614 877.603 67.5959C867.617 61.8304 863.727 49.8731 863.899 49.5739C864.072 49.2747 876.372 46.6652 886.359 52.4307Z" fill="#B66B3C"/>
<path d="M914.067 46.5431C914.067 35.0121 905.657 25.6643 905.312 25.6643C904.966 25.6643 896.556 35.0121 896.556 46.5431C896.556 58.0741 904.966 67.4219 905.312 67.4219C905.657 67.4219 914.067 58.0741 914.067 46.5431Z" fill="#B66B3C"/>
<path d="M889.946 29.4809C884.18 19.4947 872.223 15.6044 871.924 15.7771C871.624 15.9499 869.015 28.2503 874.78 38.2365C880.546 48.2227 892.503 52.113 892.802 51.9402C893.102 51.7675 895.711 39.467 889.946 29.4809Z" fill="#B66B3C"/>
<path fill-rule="evenodd" clip-rule="evenodd" d="M891.642 47.6849L929.021 112.429L927.077 113.551L889.697 48.8074L891.642 47.6849Z" fill="#B66B3C"/>
<path d="M1021.51 77.5116C1031.5 83.2772 1035.39 95.2344 1035.21 95.5336C1035.04 95.8329 1022.74 98.4423 1012.76 92.6768C1002.77 86.9113 998.879 74.9541 999.052 74.6548C999.224 74.3556 1011.52 71.7461 1021.51 77.5116Z" fill="#B66B3C"/>
<path d="M1049.22 71.624C1049.22 60.093 1040.81 50.7452 1040.46 50.7452C1040.12 50.7452 1031.71 60.093 1031.71 71.624C1031.71 83.1551 1040.12 92.5028 1040.46 92.5028C1040.81 92.5028 1049.22 83.1551 1049.22 71.624Z" fill="#B66B3C"/>
<path d="M1007.03 52.4307C1017.02 58.1962 1020.91 70.1535 1020.73 70.4527C1020.56 70.7519 1008.26 73.3614 998.275 67.5959C988.289 61.8304 984.399 49.8731 984.572 49.5739C984.744 49.2747 997.045 46.6652 1007.03 52.4307Z" fill="#B66B3C"/>
<path d="M1034.74 46.5431C1034.74 35.0121 1026.33 25.6643 1025.98 25.6643C1025.64 25.6643 1017.23 35.0121 1017.23 46.5431C1017.23 58.0741 1025.64 67.4219 1025.98 67.4219C1026.33 67.4219 1034.74 58.0741 1034.74 46.5431Z" fill="#B66B3C"/>
<path d="M1010.62 29.4809C1004.85 19.4947 992.895 15.6044 992.595 15.7771C992.296 15.9499 989.687 28.2503 995.452 38.2365C1001.22 48.2227 1013.17 52.113 1013.47 51.9402C1013.77 51.7675 1016.38 39.467 1010.62 29.4809Z" fill="#B66B3C"/>
<path fill-rule="evenodd" clip-rule="evenodd" d="M1012.31 47.6849L1049.69 112.429L1047.75 113.551L1010.37 48.8074L1012.31 47.6849Z" fill="#B66B3C"/>
<path d="M1142.18 77.5116C1152.17 83.2772 1156.06 95.2344 1155.89 95.5336C1155.71 95.8329 1143.41 98.4423 1133.43 92.6768C1123.44 86.9113 1119.55 74.9541 1119.72 74.6548C1119.9 74.3556 1132.2 71.7461 1142.18 77.5116Z" fill="#B66B3C"/>
<path d="M1169.89 71.624C1169.89 60.093 1161.48 50.7452 1161.14 50.7452C1160.79 50.7452 1152.38 60.093 1152.38 71.624C1152.38 83.1551 1160.79 92.5028 1161.14 92.5028C1161.48 92.5028 1169.89 83.1551 1169.89 71.624Z" fill="#B66B3C"/>
<path d="M1127.7 52.4307C1137.69 58.1962 1141.58 70.1535 1141.41 70.4527C1141.23 70.7519 1128.93 73.3614 1118.95 67.5959C1108.96 61.8304 1105.07 49.8731 1105.24 49.5739C1105.42 49.2747 1117.72 46.6652 1127.7 52.4307Z" fill="#B66B3C"/>
<path d="M1155.41 46.5431C1155.41 35.0121 1147 25.6643 1146.66 25.6643C1146.31 25.6643 1137.9 35.0121 1137.9 46.5431C1137.9 58.0741 1146.31 67.4219 1146.66 67.4219C1147 67.4219 1155.41 58.0741 1155.41 46.5431Z" fill="#B66B3C"/>
<path d="M1131.29 29.4809C1125.52 19.4947 1113.57 15.6044 1113.27 15.7771C1112.97 15.9499 1110.36 28.2503 1116.13 38.2365C1121.89 48.2227 1133.85 52.113 1134.15 51.9402C1134.45 51.7675 1137.06 39.467 1131.29 29.4809Z" fill="#B66B3C"/>
<path fill-rule="evenodd" clip-rule="evenodd" d="M1132.99 47.685L1170.37 112.429L1168.42 113.551L1131.04 48.8075L1132.99 47.685Z" fill="#B66B3C"/>
<path d="M1262.86 77.5115C1272.84 83.277 1276.73 95.2343 1276.56 95.5335C1276.39 95.8327 1264.09 98.4422 1254.1 92.6767C1244.11 86.9112 1240.22 74.954 1240.4 74.6547C1240.57 74.3555 1252.87 71.746 1262.86 77.5115Z" fill="#B66B3C"/>
<path d="M1290.56 71.624C1290.56 60.0929 1282.15 50.7452 1281.81 50.7452C1281.46 50.7452 1273.05 60.0929 1273.05 71.624C1273.05 83.155 1281.46 92.5027 1281.81 92.5027C1282.15 92.5027 1290.56 83.155 1290.56 71.624Z" fill="#B66B3C"/>
<path d="M1248.38 52.4307C1258.36 58.1962 1262.25 70.1535 1262.08 70.4527C1261.91 70.7519 1249.61 73.3614 1239.62 67.5959C1229.63 61.8304 1225.74 49.8731 1225.92 49.5739C1226.09 49.2747 1238.39 46.6652 1248.38 52.4307Z" fill="#B66B3C"/>
<path d="M1276.08 46.5431C1276.08 35.0121 1267.67 25.6643 1267.33 25.6643C1266.98 25.6643 1258.57 35.0121 1258.57 46.5431C1258.57 58.0741 1266.98 67.4219 1267.33 67.4219C1267.67 67.4219 1276.08 58.0741 1276.08 46.5431Z" fill="#B66B3C"/>
<path d="M1251.96 29.4809C1246.2 19.4947 1234.24 15.6044 1233.94 15.7771C1233.64 15.9499 1231.03 28.2503 1236.8 38.2365C1242.56 48.2227 1254.52 52.113 1254.82 51.9402C1255.12 51.7675 1257.73 39.467 1251.96 29.4809Z" fill="#B66B3C"/>
<path fill-rule="evenodd" clip-rule="evenodd" d="M1253.66 47.6849L1291.04 112.429L1289.09 113.551L1251.71 48.8074L1253.66 47.6849Z" fill="#B66B3C"/>
<path d="M1383.53 77.5115C1393.51 83.277 1397.4 95.2343 1397.23 95.5335C1397.06 95.8327 1384.76 98.4422 1374.77 92.6767C1364.79 86.9112 1360.9 74.954 1361.07 74.6547C1361.24 74.3555 1373.54 71.746 1383.53 77.5115Z" fill="#B66B3C"/>
<path d="M1411.24 71.6239C1411.24 60.0929 1402.83 50.7451 1402.48 50.7451C1402.14 50.7451 1393.73 60.0929 1393.73 71.6239C1393.73 83.1549 1402.14 92.5027 1402.48 92.5027C1402.83 92.5027 1411.24 83.1549 1411.24 71.6239Z" fill="#B66B3C"/>
<path d="M1369.05 52.4307C1379.03 58.1962 1382.92 70.1535 1382.75 70.4527C1382.58 70.7519 1370.28 73.3614 1360.29 67.5959C1350.31 61.8304 1346.42 49.8731 1346.59 49.5739C1346.76 49.2747 1359.06 46.6652 1369.05 52.4307Z" fill="#B66B3C"/>
<path d="M1396.76 46.5431C1396.76 35.0121 1388.35 25.6643 1388 25.6643C1387.65 25.6643 1379.24 35.0121 1379.24 46.5431C1379.24 58.0741 1387.65 67.4219 1388 67.4219C1388.35 67.4219 1396.76 58.0741 1396.76 46.5431Z" fill="#B66B3C"/>
<path d="M1372.63 29.4809C1366.87 19.4947 1354.91 15.6044 1354.61 15.7771C1354.31 15.9499 1351.7 28.2503 1357.47 38.2365C1363.23 48.2227 1375.19 52.113 1375.49 51.9402C1375.79 51.7675 1378.4 39.467 1372.63 29.4809Z" fill="#B66B3C"/>
<path fill-rule="evenodd" clip-rule="evenodd" d="M1374.33 47.6849L1411.71 112.429L1409.77 113.551L1372.39 48.8074L1374.33 47.6849Z" fill="#B66B3C"/>
<path d="M1504.2 77.5116C1514.19 83.2772 1518.08 95.2344 1517.9 95.5336C1517.73 95.8329 1505.43 98.4423 1495.44 92.6768C1485.46 86.9113 1481.57 74.9541 1481.74 74.6548C1481.91 74.3556 1494.21 71.7461 1504.2 77.5116Z" fill="#B66B3C"/>
<path d="M1531.91 71.624C1531.91 60.093 1523.5 50.7452 1523.15 50.7452C1522.81 50.7452 1514.4 60.093 1514.4 71.624C1514.4 83.1551 1522.81 92.5028 1523.15 92.5028C1523.5 92.5028 1531.91 83.1551 1531.91 71.624Z" fill="#B66B3C"/>
<path d="M1489.72 52.4308C1499.71 58.1963 1503.6 70.1535 1503.42 70.4528C1503.25 70.752 1490.95 73.3615 1480.96 67.5959C1470.98 61.8304 1467.09 49.8732 1467.26 49.574C1467.43 49.2747 1479.73 46.6653 1489.72 52.4308Z" fill="#B66B3C"/>
<path d="M1517.43 46.5431C1517.43 35.0121 1509.02 25.6644 1508.67 25.6644C1508.33 25.6644 1499.92 35.0121 1499.92 46.5431C1499.92 58.0742 1508.33 67.4219 1508.67 67.4219C1509.02 67.4219 1517.43 58.0742 1517.43 46.5431Z" fill="#B66B3C"/>
<path d="M1493.31 29.4809C1487.54 19.4948 1475.58 15.6044 1475.28 15.7772C1474.99 15.95 1472.38 28.2504 1478.14 38.2366C1483.91 48.2227 1495.86 52.1131 1496.16 51.9403C1496.46 51.7675 1499.07 39.4671 1493.31 29.4809Z" fill="#B66B3C"/>
<path fill-rule="evenodd" clip-rule="evenodd" d="M1495 47.685L1532.38 112.429L1530.44 113.551L1493.06 48.8075L1495 47.685Z" fill="#B66B3C"/>
<path d="M56.135 192.217C66.1212 197.983 70.0115 209.94 69.8388 210.239C69.666 210.539 57.3656 213.148 47.3794 207.383C37.3932 201.617 33.5029 189.66 33.6757 189.361C33.8484 189.061 46.1489 186.452 56.135 192.217Z" fill="#B66B3C"/>
<path d="M83.8438 186.33C83.8438 174.799 75.4337 165.451 75.0881 165.451C74.7426 165.451 66.3325 174.799 66.3325 186.33C66.3325 197.861 74.7426 207.208 75.0881 207.208C75.4337 207.208 83.8438 197.861 83.8438 186.33Z" fill="#B66B3C"/>
<path d="M41.6546 167.137C51.6407 172.902 55.5311 184.859 55.3583 185.159C55.1855 185.458 42.8851 188.067 32.8989 182.302C22.9128 176.536 19.0224 164.579 19.1952 164.28C19.368 163.98 31.6684 161.371 41.6546 167.137Z" fill="#B66B3C"/>
<path d="M69.3633 161.249C69.3633 149.718 60.9532 140.37 60.6077 140.37C60.2621 140.37 51.8521 149.718 51.8521 161.249C51.8521 172.78 60.2621 182.128 60.6077 182.128C60.9532 182.128 69.3633 172.78 69.3633 161.249Z" fill="#B66B3C"/>
<path d="M45.2419 144.187C39.4764 134.2 27.5192 130.31 27.2199 130.483C26.9207 130.656 24.3112 142.956 30.0767 152.942C35.8422 162.928 47.7995 166.819 48.0987 166.646C48.3979 166.473 51.0074 154.173 45.2419 144.187Z" fill="#B66B3C"/>
<path fill-rule="evenodd" clip-rule="evenodd" d="M46.938 162.391L84.3178 227.134L82.3735 228.257L44.9938 163.513L46.938 162.391Z" fill="#B66B3C"/>
<path d="M176.807 192.217C186.793 197.982 190.683 209.94 190.511 210.239C190.338 210.538 178.037 213.148 168.051 207.382C158.065 201.617 154.175 189.659 154.348 189.36C154.52 189.061 166.821 186.451 176.807 192.217Z" fill="#B66B3C"/>
<path d="M204.516 186.329C204.516 174.798 196.106 165.45 195.76 165.45C195.414 165.45 187.004 174.798 187.004 186.329C187.004 197.86 195.414 207.208 195.76 207.208C196.106 207.208 204.516 197.86 204.516 186.329Z" fill="#B66B3C"/>
<path d="M162.326 167.136C172.313 172.902 176.203 184.859 176.03 185.158C175.857 185.457 163.557 188.067 153.571 182.301C143.585 176.536 139.694 164.578 139.867 164.279C140.04 163.98 152.34 161.371 162.326 167.136Z" fill="#B66B3C"/>
<path d="M190.036 161.248C190.036 149.717 181.626 140.37 181.28 140.37C180.935 140.37 172.524 149.717 172.524 161.248C172.524 172.779 180.935 182.127 181.28 182.127C181.626 182.127 190.036 172.779 190.036 161.248Z" fill="#B66B3C"/>
<path d="M165.914 144.186C160.148 134.2 148.191 130.31 147.892 130.482C147.593 130.655 144.983 142.956 150.749 152.942C156.514 162.928 168.471 166.818 168.771 166.646C169.07 166.473 171.679 154.172 165.914 144.186Z" fill="#B66B3C"/>
<path fill-rule="evenodd" clip-rule="evenodd" d="M167.61 162.39L204.99 227.134L203.045 228.256L165.666 163.513L167.61 162.39Z" fill="#B66B3C"/>
<path d="M297.479 192.217C307.465 197.982 311.355 209.94 311.183 210.239C311.01 210.538 298.709 213.148 288.723 207.382C278.737 201.617 274.847 189.659 275.019 189.36C275.192 189.061 287.493 186.451 297.479 192.217Z" fill="#B66B3C"/>
<path d="M325.188 186.329C325.188 174.798 316.777 165.451 316.432 165.451C316.086 165.451 307.676 174.798 307.676 186.329C307.676 197.86 316.086 207.208 316.432 207.208C316.777 207.208 325.188 197.86 325.188 186.329Z" fill="#B66B3C"/>
<path d="M282.998 167.136C292.984 172.902 296.875 184.859 296.702 185.158C296.529 185.457 284.229 188.067 274.243 182.301C264.257 176.536 260.366 164.579 260.539 164.279C260.712 163.98 273.012 161.371 282.998 167.136Z" fill="#B66B3C"/>
<path d="M310.707 161.248C310.707 149.717 302.297 140.37 301.951 140.37C301.606 140.37 293.196 149.717 293.196 161.248C293.196 172.779 301.606 182.127 301.951 182.127C302.297 182.127 310.707 172.779 310.707 161.248Z" fill="#B66B3C"/>
<path d="M286.585 144.186C280.82 134.2 268.862 130.31 268.563 130.483C268.264 130.655 265.654 142.956 271.42 152.942C277.185 162.928 289.143 166.819 289.442 166.646C289.741 166.473 292.351 154.173 286.585 144.186Z" fill="#B66B3C"/>
<path fill-rule="evenodd" clip-rule="evenodd" d="M288.281 162.39L325.661 227.134L323.717 228.256L286.337 163.513L288.281 162.39Z" fill="#B66B3C"/>
<path d="M418.151 192.217C428.137 197.982 432.027 209.94 431.854 210.239C431.682 210.538 419.381 213.148 409.395 207.382C399.409 201.617 395.519 189.659 395.691 189.36C395.864 189.061 408.164 186.451 418.151 192.217Z" fill="#B66B3C"/>
<path d="M445.859 186.329C445.859 174.798 437.449 165.45 437.104 165.45C436.758 165.45 428.348 174.798 428.348 186.329C428.348 197.86 436.758 207.208 437.104 207.208C437.449 207.208 445.859 197.86 445.859 186.329Z" fill="#B66B3C"/>
<path d="M403.67 167.136C413.656 172.902 417.547 184.859 417.374 185.158C417.201 185.457 404.901 188.067 394.915 182.301C384.928 176.536 381.038 164.578 381.211 164.279C381.384 163.98 393.684 161.371 403.67 167.136Z" fill="#B66B3C"/>
<path d="M431.379 161.248C431.379 149.717 422.969 140.369 422.623 140.369C422.278 140.369 413.868 149.717 413.868 161.248C413.868 172.779 422.278 182.127 422.623 182.127C422.969 182.127 431.379 172.779 431.379 161.248Z" fill="#B66B3C"/>
<path d="M407.257 144.186C401.492 134.2 389.534 130.31 389.235 130.483C388.936 130.655 386.326 142.956 392.092 152.942C397.857 162.928 409.815 166.818 410.114 166.646C410.413 166.473 413.023 154.172 407.257 144.186Z" fill="#B66B3C"/>
<path fill-rule="evenodd" clip-rule="evenodd" d="M408.953 162.39L446.333 227.134L444.389 228.256L407.009 163.513L408.953 162.39Z" fill="#B66B3C"/>
<path d="M538.823 192.217C548.809 197.982 552.699 209.94 552.526 210.239C552.354 210.538 540.053 213.148 530.067 207.382C520.081 201.617 516.19 189.659 516.363 189.36C516.536 189.061 528.836 186.451 538.823 192.217Z" fill="#B66B3C"/>
<path d="M566.531 186.329C566.531 174.798 558.121 165.451 557.776 165.451C557.43 165.451 549.02 174.798 549.02 186.329C549.02 197.86 557.43 207.208 557.776 207.208C558.121 207.208 566.531 197.86 566.531 186.329Z" fill="#B66B3C"/>
<path d="M524.342 167.136C534.328 172.902 538.219 184.859 538.046 185.158C537.873 185.457 525.573 188.067 515.586 182.301C505.6 176.536 501.71 164.578 501.883 164.279C502.055 163.98 514.356 161.371 524.342 167.136Z" fill="#B66B3C"/>
<path d="M552.051 161.248C552.051 149.717 543.641 140.37 543.295 140.37C542.95 140.37 534.54 149.717 534.54 161.248C534.54 172.779 542.95 182.127 543.295 182.127C543.641 182.127 552.051 172.779 552.051 161.248Z" fill="#B66B3C"/>
<path d="M527.929 144.186C522.164 134.2 510.207 130.31 509.907 130.483C509.608 130.655 506.999 142.956 512.764 152.942C518.53 162.928 530.487 166.818 530.786 166.646C531.085 166.473 533.695 154.172 527.929 144.186Z" fill="#B66B3C"/>
<path fill-rule="evenodd" clip-rule="evenodd" d="M529.626 162.39L567.005 227.134L565.061 228.256L527.681 163.513L529.626 162.39Z" fill="#B66B3C"/>
<path d="M659.494 192.217C669.481 197.982 673.371 209.94 673.198 210.239C673.025 210.538 660.725 213.148 650.739 207.382C640.753 201.617 636.862 189.659 637.035 189.36C637.208 189.061 649.508 186.451 659.494 192.217Z" fill="#B66B3C"/>
<path d="M687.203 186.329C687.203 174.798 678.793 165.451 678.448 165.451C678.102 165.451 669.692 174.798 669.692 186.329C669.692 197.86 678.102 207.208 678.448 207.208C678.793 207.208 687.203 197.86 687.203 186.329Z" fill="#B66B3C"/>
<path d="M645.014 167.136C655 172.902 658.89 184.859 658.718 185.158C658.545 185.457 646.244 188.067 636.258 182.301C626.272 176.536 622.382 164.579 622.555 164.279C622.727 163.98 635.028 161.371 645.014 167.136Z" fill="#B66B3C"/>
<path d="M672.723 161.248C672.723 149.717 664.313 140.37 663.967 140.37C663.622 140.37 655.211 149.717 655.211 161.248C655.211 172.779 663.622 182.127 663.967 182.127C664.313 182.127 672.723 172.779 672.723 161.248Z" fill="#B66B3C"/>
<path d="M648.601 144.186C642.835 134.2 630.878 130.31 630.579 130.483C630.28 130.655 627.67 142.956 633.436 152.942C639.201 162.928 651.158 166.818 651.458 166.646C651.757 166.473 654.366 154.172 648.601 144.186Z" fill="#B66B3C"/>
<path fill-rule="evenodd" clip-rule="evenodd" d="M650.297 162.39L687.677 227.134L685.732 228.256L648.353 163.513L650.297 162.39Z" fill="#B66B3C"/>
<path d="M780.166 192.217C790.152 197.982 794.043 209.939 793.87 210.239C793.697 210.538 781.397 213.147 771.411 207.382C761.424 201.616 757.534 189.659 757.707 189.36C757.88 189.061 770.18 186.451 780.166 192.217Z" fill="#B66B3C"/>
<path d="M807.875 186.329C807.875 174.798 799.465 165.45 799.119 165.45C798.774 165.45 790.364 174.798 790.364 186.329C790.364 197.86 798.774 207.208 799.119 207.208C799.465 207.208 807.875 197.86 807.875 186.329Z" fill="#B66B3C"/>
<path d="M765.686 167.136C775.672 172.901 779.562 184.859 779.39 185.158C779.217 185.457 766.916 188.067 756.93 182.301C746.944 176.536 743.054 164.578 743.226 164.279C743.399 163.98 755.7 161.37 765.686 167.136Z" fill="#B66B3C"/>
<path d="M793.395 161.248C793.395 149.717 784.985 140.369 784.639 140.369C784.294 140.369 775.884 149.717 775.884 161.248C775.884 172.779 784.294 182.127 784.639 182.127C784.985 182.127 793.395 172.779 793.395 161.248Z" fill="#B66B3C"/>
<path d="M769.273 144.186C763.508 134.2 751.55 130.31 751.251 130.482C750.952 130.655 748.342 142.956 754.108 152.942C759.873 162.928 771.831 166.818 772.13 166.646C772.429 166.473 775.039 154.172 769.273 144.186Z" fill="#B66B3C"/>
<path fill-rule="evenodd" clip-rule="evenodd" d="M770.969 162.39L808.349 227.134L806.405 228.256L769.025 163.513L770.969 162.39Z" fill="#B66B3C"/>
<path d="M900.838 192.217C910.824 197.982 914.715 209.94 914.542 210.239C914.369 210.538 902.069 213.148 892.083 207.382C882.096 201.617 878.206 189.659 878.379 189.36C878.552 189.061 890.852 186.451 900.838 192.217Z" fill="#B66B3C"/>
<path d="M928.547 186.329C928.547 174.798 920.137 165.45 919.791 165.45C919.446 165.45 911.036 174.798 911.036 186.329C911.036 197.86 919.446 207.208 919.791 207.208C920.137 207.208 928.547 197.86 928.547 186.329Z" fill="#B66B3C"/>
<path d="M886.358 167.136C896.344 172.902 900.234 184.859 900.061 185.158C899.889 185.457 887.588 188.067 877.602 182.301C867.616 176.536 863.726 164.578 863.898 164.279C864.071 163.98 876.372 161.371 886.358 167.136Z" fill="#B66B3C"/>
<path d="M914.066 161.248C914.066 149.717 905.656 140.37 905.311 140.37C904.965 140.37 896.555 149.717 896.555 161.248C896.555 172.779 904.965 182.127 905.311 182.127C905.656 182.127 914.066 172.779 914.066 161.248Z" fill="#B66B3C"/>
<path d="M889.945 144.186C884.179 134.2 872.222 130.31 871.923 130.482C871.623 130.655 869.014 142.956 874.779 152.942C880.545 162.928 892.502 166.818 892.801 166.646C893.101 166.473 895.71 154.172 889.945 144.186Z" fill="#B66B3C"/>
<path fill-rule="evenodd" clip-rule="evenodd" d="M891.641 162.39L929.02 227.134L927.076 228.256L889.696 163.513L891.641 162.39Z" fill="#B66B3C"/>
<path d="M1021.51 192.217C1031.5 197.982 1035.39 209.94 1035.21 210.239C1035.04 210.538 1022.74 213.148 1012.75 207.382C1002.77 201.617 998.878 189.659 999.051 189.36C999.223 189.061 1011.52 186.451 1021.51 192.217Z" fill="#B66B3C"/>
<path d="M1049.22 186.329C1049.22 174.798 1040.81 165.451 1040.46 165.451C1040.12 165.451 1031.71 174.798 1031.71 186.329C1031.71 197.86 1040.12 207.208 1040.46 207.208C1040.81 207.208 1049.22 197.86 1049.22 186.329Z" fill="#B66B3C"/>
<path d="M1007.03 167.136C1017.02 172.902 1020.91 184.859 1020.73 185.158C1020.56 185.457 1008.26 188.067 998.274 182.301C988.288 176.536 984.398 164.579 984.571 164.279C984.743 163.98 997.044 161.371 1007.03 167.136Z" fill="#B66B3C"/>
<path d="M1034.74 161.249C1034.74 149.717 1026.33 140.37 1025.98 140.37C1025.64 140.37 1017.23 149.717 1017.23 161.249C1017.23 172.78 1025.64 182.127 1025.98 182.127C1026.33 182.127 1034.74 172.78 1034.74 161.249Z" fill="#B66B3C"/>
<path d="M1010.62 144.186C1004.85 134.2 992.894 130.31 992.594 130.483C992.295 130.655 989.686 142.956 995.451 152.942C1001.22 162.928 1013.17 166.818 1013.47 166.646C1013.77 166.473 1016.38 154.172 1010.62 144.186Z" fill="#B66B3C"/>
<path fill-rule="evenodd" clip-rule="evenodd" d="M1012.31 162.39L1049.69 227.134L1047.75 228.256L1010.37 163.513L1012.31 162.39Z" fill="#B66B3C"/>
<path d="M1142.18 192.217C1152.17 197.982 1156.06 209.939 1155.89 210.239C1155.71 210.538 1143.41 213.147 1133.43 207.382C1123.44 201.616 1119.55 189.659 1119.72 189.36C1119.9 189.061 1132.2 186.451 1142.18 192.217Z" fill="#B66B3C"/>
<path d="M1169.89 186.329C1169.89 174.798 1161.48 165.45 1161.14 165.45C1160.79 165.45 1152.38 174.798 1152.38 186.329C1152.38 197.86 1160.79 207.208 1161.14 207.208C1161.48 207.208 1169.89 197.86 1169.89 186.329Z" fill="#B66B3C"/>
<path d="M1127.7 167.136C1137.69 172.902 1141.58 184.859 1141.41 185.158C1141.23 185.457 1128.93 188.067 1118.95 182.301C1108.96 176.536 1105.07 164.578 1105.24 164.279C1105.41 163.98 1117.72 161.371 1127.7 167.136Z" fill="#B66B3C"/>
<path d="M1155.41 161.248C1155.41 149.717 1147 140.37 1146.65 140.37C1146.31 140.37 1137.9 149.717 1137.9 161.248C1137.9 172.779 1146.31 182.127 1146.65 182.127C1147 182.127 1155.41 172.779 1155.41 161.248Z" fill="#B66B3C"/>
<path d="M1131.29 144.186C1125.52 134.2 1113.57 130.31 1113.27 130.482C1112.97 130.655 1110.36 142.956 1116.12 152.942C1121.89 162.928 1133.85 166.818 1134.15 166.646C1134.44 166.473 1137.05 154.172 1131.29 144.186Z" fill="#B66B3C"/>
<path fill-rule="evenodd" clip-rule="evenodd" d="M1132.98 162.39L1170.36 227.134L1168.42 228.256L1131.04 163.513L1132.98 162.39Z" fill="#B66B3C"/>
<path d="M1262.85 192.217C1272.84 197.982 1276.73 209.94 1276.56 210.239C1276.39 210.538 1264.08 213.148 1254.1 207.382C1244.11 201.617 1240.22 189.659 1240.39 189.36C1240.57 189.061 1252.87 186.451 1262.85 192.217Z" fill="#B66B3C"/>
<path d="M1290.56 186.329C1290.56 174.798 1282.15 165.45 1281.81 165.45C1281.46 165.45 1273.05 174.798 1273.05 186.329C1273.05 197.86 1281.46 207.208 1281.81 207.208C1282.15 207.208 1290.56 197.86 1290.56 186.329Z" fill="#B66B3C"/>
<path d="M1248.37 167.136C1258.36 172.902 1262.25 184.859 1262.08 185.158C1261.9 185.457 1249.6 188.067 1239.62 182.301C1229.63 176.536 1225.74 164.578 1225.91 164.279C1226.09 163.98 1238.39 161.371 1248.37 167.136Z" fill="#B66B3C"/>
<path d="M1276.08 161.248C1276.08 149.717 1267.67 140.37 1267.33 140.37C1266.98 140.37 1258.57 149.717 1258.57 161.248C1258.57 172.779 1266.98 182.127 1267.33 182.127C1267.67 182.127 1276.08 172.779 1276.08 161.248Z" fill="#B66B3C"/>
<path d="M1251.96 144.186C1246.2 134.2 1234.24 130.31 1233.94 130.483C1233.64 130.655 1231.03 142.956 1236.8 152.942C1242.56 162.928 1254.52 166.818 1254.82 166.646C1255.12 166.473 1257.73 154.172 1251.96 144.186Z" fill="#B66B3C"/>
<path fill-rule="evenodd" clip-rule="evenodd" d="M1253.66 162.39L1291.04 227.134L1289.09 228.256L1251.71 163.513L1253.66 162.39Z" fill="#B66B3C"/>
<path d="M1383.53 192.217C1393.51 197.982 1397.4 209.939 1397.23 210.239C1397.06 210.538 1384.76 213.147 1374.77 207.382C1364.78 201.616 1360.89 189.659 1361.07 189.36C1361.24 189.061 1373.54 186.451 1383.53 192.217Z" fill="#B66B3C"/>
<path d="M1411.23 186.329C1411.23 174.798 1402.82 165.45 1402.48 165.45C1402.13 165.45 1393.72 174.798 1393.72 186.329C1393.72 197.86 1402.13 207.208 1402.48 207.208C1402.82 207.208 1411.23 197.86 1411.23 186.329Z" fill="#B66B3C"/>
<path d="M1369.05 167.136C1379.03 172.901 1382.92 184.859 1382.75 185.158C1382.58 185.457 1370.28 188.066 1360.29 182.301C1350.3 176.535 1346.41 164.578 1346.59 164.279C1346.76 163.98 1359.06 161.37 1369.05 167.136Z" fill="#B66B3C"/>
<path d="M1396.75 161.248C1396.75 149.717 1388.34 140.369 1388 140.369C1387.65 140.369 1379.24 149.717 1379.24 161.248C1379.24 172.779 1387.65 182.127 1388 182.127C1388.34 182.127 1396.75 172.779 1396.75 161.248Z" fill="#B66B3C"/>
<path d="M1372.63 144.186C1366.87 134.2 1354.91 130.309 1354.61 130.482C1354.31 130.655 1351.7 142.955 1357.47 152.942C1363.23 162.928 1375.19 166.818 1375.49 166.645C1375.79 166.473 1378.4 154.172 1372.63 144.186Z" fill="#B66B3C"/>
<path fill-rule="evenodd" clip-rule="evenodd" d="M1374.33 162.39L1411.71 227.134L1409.76 228.256L1372.38 163.513L1374.33 162.39Z" fill="#B66B3C"/>
<path d="M1504.2 192.217C1514.18 197.982 1518.07 209.94 1517.9 210.239C1517.73 210.538 1505.43 213.148 1495.44 207.382C1485.46 201.617 1481.57 189.659 1481.74 189.36C1481.91 189.061 1494.21 186.451 1504.2 192.217Z" fill="#B66B3C"/>
<path d="M1531.91 186.329C1531.91 174.798 1523.5 165.45 1523.15 165.45C1522.81 165.45 1514.4 174.798 1514.4 186.329C1514.4 197.86 1522.81 207.208 1523.15 207.208C1523.5 207.208 1531.91 197.86 1531.91 186.329Z" fill="#B66B3C"/>
<path d="M1489.72 167.136C1499.7 172.902 1503.59 184.859 1503.42 185.158C1503.25 185.457 1490.95 188.067 1480.96 182.301C1470.98 176.536 1467.08 164.579 1467.26 164.279C1467.43 163.98 1479.73 161.371 1489.72 167.136Z" fill="#B66B3C"/>
<path d="M1517.43 161.249C1517.43 149.717 1509.02 140.37 1508.67 140.37C1508.32 140.37 1499.91 149.717 1499.91 161.249C1499.91 172.78 1508.32 182.127 1508.67 182.127C1509.02 182.127 1517.43 172.78 1517.43 161.249Z" fill="#B66B3C"/>
<path d="M1493.3 144.186C1487.54 134.2 1475.58 130.31 1475.28 130.483C1474.98 130.655 1472.37 142.956 1478.14 152.942C1483.9 162.928 1495.86 166.818 1496.16 166.646C1496.46 166.473 1499.07 154.172 1493.3 144.186Z" fill="#B66B3C"/>
<path fill-rule="evenodd" clip-rule="evenodd" d="M1495 162.39L1532.38 227.134L1530.44 228.256L1493.06 163.513L1495 162.39Z" fill="#B66B3C"/>
<path d="M56.135 306.923C66.1212 312.688 70.0115 324.646 69.8388 324.945C69.666 325.244 57.3656 327.853 47.3794 322.088C37.3932 316.322 33.5029 304.365 33.6757 304.066C33.8484 303.767 46.1489 301.157 56.135 306.923Z" fill="#B66B3C"/>
<path d="M83.8438 301.035C83.8438 289.504 75.4337 280.156 75.0881 280.156C74.7426 280.156 66.3325 289.504 66.3325 301.035C66.3325 312.566 74.7426 321.914 75.0881 321.914C75.4337 321.914 83.8438 312.566 83.8438 301.035Z" fill="#B66B3C"/>
<path d="M41.6546 281.842C51.6407 287.607 55.5311 299.565 55.3583 299.864C55.1855 300.163 42.8851 302.773 32.8989 297.007C22.9128 291.242 19.0224 279.284 19.1952 278.985C19.368 278.686 31.6684 276.076 41.6546 281.842Z" fill="#B66B3C"/>
<path d="M69.3633 275.954C69.3633 264.423 60.9532 255.076 60.6077 255.076C60.2621 255.076 51.8521 264.423 51.8521 275.954C51.8521 287.485 60.2621 296.833 60.6077 296.833C60.9532 296.833 69.3633 287.485 69.3633 275.954Z" fill="#B66B3C"/>
<path d="M45.2419 258.892C39.4764 248.906 27.5192 245.016 27.2199 245.188C26.9207 245.361 24.3112 257.662 30.0767 267.648C35.8422 277.634 47.7995 281.524 48.0987 281.351C48.3979 281.179 51.0074 268.878 45.2419 258.892Z" fill="#B66B3C"/>
<path fill-rule="evenodd" clip-rule="evenodd" d="M46.938 277.096L84.3178 341.84L82.3735 342.962L44.9938 278.219L46.938 277.096Z" fill="#B66B3C"/>
<path d="M176.807 306.922C186.793 312.688 190.683 324.645 190.511 324.944C190.338 325.243 178.037 327.853 168.051 322.087C158.065 316.322 154.175 304.365 154.348 304.065C154.52 303.766 166.821 301.157 176.807 306.922Z" fill="#B66B3C"/>
<path d="M204.516 301.035C204.516 289.504 196.106 280.156 195.761 280.156C195.415 280.156 187.005 289.504 187.005 301.035C187.005 312.566 195.415 321.913 195.761 321.913C196.106 321.913 204.516 312.566 204.516 301.035Z" fill="#B66B3C"/>
<path d="M162.326 281.841C172.313 287.607 176.203 299.564 176.03 299.863C175.857 300.163 163.557 302.772 153.571 297.007C143.585 291.241 139.694 279.284 139.867 278.985C140.04 278.685 152.34 276.076 162.326 281.841Z" fill="#B66B3C"/>
<path d="M190.036 275.954C190.036 264.423 181.626 255.075 181.28 255.075C180.935 255.075 172.524 264.423 172.524 275.954C172.524 287.485 180.935 296.833 181.28 296.833C181.626 296.833 190.036 287.485 190.036 275.954Z" fill="#B66B3C"/>
<path d="M165.914 258.891C160.148 248.905 148.191 245.015 147.892 245.188C147.593 245.36 144.983 257.661 150.749 267.647C156.514 277.633 168.471 281.524 168.771 281.351C169.07 281.178 171.679 268.878 165.914 258.891Z" fill="#B66B3C"/>
<path fill-rule="evenodd" clip-rule="evenodd" d="M167.61 277.096L204.99 341.839L203.045 342.962L165.666 278.218L167.61 277.096Z" fill="#B66B3C"/>
<path d="M297.479 306.922C307.465 312.688 311.356 324.645 311.183 324.944C311.01 325.243 298.71 327.853 288.724 322.087C278.737 316.322 274.847 304.365 275.02 304.065C275.193 303.766 287.493 301.157 297.479 306.922Z" fill="#B66B3C"/>
<path d="M325.188 301.035C325.188 289.504 316.778 280.156 316.432 280.156C316.087 280.156 307.677 289.504 307.677 301.035C307.677 312.566 316.087 321.913 316.432 321.913C316.778 321.913 325.188 312.566 325.188 301.035Z" fill="#B66B3C"/>
<path d="M282.999 281.841C292.985 287.607 296.875 299.564 296.703 299.863C296.53 300.163 284.229 302.772 274.243 297.007C264.257 291.241 260.367 279.284 260.539 278.985C260.712 278.685 273.013 276.076 282.999 281.841Z" fill="#B66B3C"/>
<path d="M310.708 275.954C310.708 264.423 302.297 255.075 301.952 255.075C301.606 255.075 293.196 264.423 293.196 275.954C293.196 287.485 301.606 296.833 301.952 296.833C302.297 296.833 310.708 287.485 310.708 275.954Z" fill="#B66B3C"/>
<path d="M286.586 258.891C280.82 248.905 268.863 245.015 268.564 245.188C268.264 245.36 265.655 257.661 271.42 267.647C277.186 277.633 289.143 281.524 289.442 281.351C289.742 281.178 292.351 268.878 286.586 258.891Z" fill="#B66B3C"/>
<path fill-rule="evenodd" clip-rule="evenodd" d="M288.282 277.096L325.662 341.839L323.718 342.962L286.338 278.218L288.282 277.096Z" fill="#B66B3C"/>
<path d="M418.151 306.922C428.137 312.688 432.028 324.645 431.855 324.944C431.682 325.244 419.382 327.853 409.396 322.087C399.409 316.322 395.519 304.365 395.692 304.065C395.865 303.766 408.165 301.157 418.151 306.922Z" fill="#B66B3C"/>
<path d="M445.86 301.035C445.86 289.504 437.45 280.156 437.104 280.156C436.759 280.156 428.349 289.504 428.349 301.035C428.349 312.566 436.759 321.913 437.104 321.913C437.45 321.913 445.86 312.566 445.86 301.035Z" fill="#B66B3C"/>
<path d="M403.671 281.841C413.657 287.607 417.547 299.564 417.374 299.863C417.202 300.163 404.901 302.772 394.915 297.007C384.929 291.241 381.039 279.284 381.211 278.985C381.384 278.685 393.685 276.076 403.671 281.841Z" fill="#B66B3C"/>
<path d="M431.379 275.954C431.379 264.423 422.969 255.075 422.624 255.075C422.278 255.075 413.868 264.423 413.868 275.954C413.868 287.485 422.278 296.833 422.624 296.833C422.969 296.833 431.379 287.485 431.379 275.954Z" fill="#B66B3C"/>
<path d="M407.258 258.892C401.492 248.905 389.535 245.015 389.236 245.188C388.936 245.361 386.327 257.661 392.092 267.647C397.858 277.633 409.815 281.524 410.114 281.351C410.414 281.178 413.023 268.878 407.258 258.892Z" fill="#B66B3C"/>
<path fill-rule="evenodd" clip-rule="evenodd" d="M408.954 277.096L446.333 341.839L444.389 342.962L407.009 278.218L408.954 277.096Z" fill="#B66B3C"/>
<path d="M538.823 306.922C548.809 312.688 552.7 324.645 552.527 324.944C552.354 325.244 540.054 327.853 530.067 322.087C520.081 316.322 516.191 304.365 516.364 304.065C516.536 303.766 528.837 301.157 538.823 306.922Z" fill="#B66B3C"/>
<path d="M566.532 301.035C566.532 289.504 558.122 280.156 557.776 280.156C557.431 280.156 549.021 289.504 549.021 301.035C549.021 312.566 557.431 321.913 557.776 321.913C558.122 321.913 566.532 312.566 566.532 301.035Z" fill="#B66B3C"/>
<path d="M524.343 281.841C534.329 287.607 538.22 299.564 538.047 299.863C537.874 300.163 525.574 302.772 515.587 297.007C505.601 291.241 501.711 279.284 501.884 278.985C502.056 278.685 514.357 276.076 524.343 281.841Z" fill="#B66B3C"/>
<path d="M552.052 275.954C552.052 264.423 543.642 255.075 543.296 255.075C542.951 255.075 534.541 264.423 534.541 275.954C534.541 287.485 542.951 296.833 543.296 296.833C543.642 296.833 552.052 287.485 552.052 275.954Z" fill="#B66B3C"/>
<path d="M527.93 258.891C522.164 248.905 510.207 245.015 509.908 245.188C509.609 245.36 506.999 257.661 512.765 267.647C518.53 277.633 530.487 281.524 530.787 281.351C531.086 281.178 533.695 268.878 527.93 258.891Z" fill="#B66B3C"/>
<path fill-rule="evenodd" clip-rule="evenodd" d="M529.626 277.096L567.006 341.839L565.062 342.962L527.682 278.218L529.626 277.096Z" fill="#B66B3C"/>
<path d="M659.495 306.922C669.482 312.688 673.372 324.645 673.199 324.944C673.026 325.243 660.726 327.853 650.74 322.087C640.754 316.322 636.863 304.365 637.036 304.065C637.209 303.766 649.509 301.157 659.495 306.922Z" fill="#B66B3C"/>
<path d="M687.204 301.035C687.204 289.504 678.794 280.156 678.448 280.156C678.103 280.156 669.693 289.504 669.693 301.035C669.693 312.566 678.103 321.913 678.448 321.913C678.794 321.913 687.204 312.566 687.204 301.035Z" fill="#B66B3C"/>
<path d="M645.015 281.841C655.001 287.607 658.891 299.564 658.719 299.863C658.546 300.162 646.245 302.772 636.259 297.006C626.273 291.241 622.383 279.284 622.556 278.984C622.728 278.685 635.029 276.076 645.015 281.841Z" fill="#B66B3C"/>
<path d="M672.724 275.954C672.724 264.423 664.314 255.075 663.968 255.075C663.622 255.075 655.212 264.423 655.212 275.954C655.212 287.485 663.622 296.832 663.968 296.832C664.314 296.832 672.724 287.485 672.724 275.954Z" fill="#B66B3C"/>
<path d="M648.602 258.891C642.836 248.905 630.879 245.015 630.58 245.188C630.281 245.36 627.671 257.661 633.437 267.647C639.202 277.633 651.159 281.523 651.459 281.351C651.758 281.178 654.367 268.878 648.602 258.891Z" fill="#B66B3C"/>
<path fill-rule="evenodd" clip-rule="evenodd" d="M650.298 277.095L687.678 341.839L685.733 342.962L648.354 278.218L650.298 277.095Z" fill="#B66B3C"/>
<path d="M780.168 306.922C790.154 312.688 794.044 324.645 793.871 324.944C793.699 325.243 781.398 327.853 771.412 322.087C761.426 316.322 757.536 304.365 757.708 304.065C757.881 303.766 770.182 301.157 780.168 306.922Z" fill="#B66B3C"/>
<path d="M807.876 301.035C807.876 289.504 799.466 280.156 799.121 280.156C798.775 280.156 790.365 289.504 790.365 301.035C790.365 312.566 798.775 321.913 799.121 321.913C799.466 321.913 807.876 312.566 807.876 301.035Z" fill="#B66B3C"/>
<path d="M765.687 281.841C775.673 287.607 779.563 299.564 779.391 299.863C779.218 300.163 766.917 302.772 756.931 297.007C746.945 291.241 743.055 279.284 743.227 278.985C743.4 278.685 755.701 276.076 765.687 281.841Z" fill="#B66B3C"/>
<path d="M793.396 275.954C793.396 264.423 784.986 255.075 784.64 255.075C784.295 255.075 775.885 264.423 775.885 275.954C775.885 287.485 784.295 296.832 784.64 296.832C784.986 296.832 793.396 287.485 793.396 275.954Z" fill="#B66B3C"/>
<path d="M769.274 258.891C763.509 248.905 751.551 245.015 751.252 245.188C750.953 245.36 748.343 257.661 754.109 267.647C759.874 277.633 771.832 281.523 772.131 281.351C772.43 281.178 775.04 268.878 769.274 258.891Z" fill="#B66B3C"/>
<path fill-rule="evenodd" clip-rule="evenodd" d="M770.97 277.095L808.35 341.839L806.406 342.962L769.026 278.218L770.97 277.095Z" fill="#B66B3C"/>
<path d="M900.84 306.922C910.826 312.688 914.716 324.645 914.543 324.944C914.371 325.243 902.07 327.853 892.084 322.087C882.098 316.322 878.207 304.365 878.38 304.065C878.553 303.766 890.853 301.157 900.84 306.922Z" fill="#B66B3C"/>
<path d="M928.548 301.035C928.548 289.504 920.138 280.156 919.793 280.156C919.447 280.156 911.037 289.504 911.037 301.035C911.037 312.566 919.447 321.913 919.793 321.913C920.138 321.913 928.548 312.566 928.548 301.035Z" fill="#B66B3C"/>
<path d="M886.359 281.841C896.345 287.607 900.236 299.564 900.063 299.863C899.89 300.163 887.59 302.772 877.604 297.007C867.617 291.241 863.727 279.284 863.9 278.985C864.073 278.685 876.373 276.076 886.359 281.841Z" fill="#B66B3C"/>
<path d="M914.068 275.954C914.068 264.423 905.658 255.075 905.312 255.075C904.967 255.075 896.557 264.423 896.557 275.954C896.557 287.485 904.967 296.833 905.312 296.833C905.658 296.833 914.068 287.485 914.068 275.954Z" fill="#B66B3C"/>
<path d="M889.946 258.891C884.18 248.905 872.223 245.015 871.924 245.188C871.625 245.36 869.015 257.661 874.781 267.647C880.546 277.633 892.504 281.524 892.803 281.351C893.102 281.178 895.712 268.878 889.946 258.891Z" fill="#B66B3C"/>
<path fill-rule="evenodd" clip-rule="evenodd" d="M891.642 277.096L929.022 341.839L927.078 342.962L889.698 278.218L891.642 277.096Z" fill="#B66B3C"/>
<path d="M1021.51 306.922C1031.5 312.688 1035.39 324.645 1035.22 324.944C1035.04 325.244 1022.74 327.853 1012.76 322.087C1002.77 316.322 998.879 304.365 999.052 304.065C999.225 303.766 1011.53 301.157 1021.51 306.922Z" fill="#B66B3C"/>
<path d="M1049.22 301.035C1049.22 289.504 1040.81 280.156 1040.46 280.156C1040.12 280.156 1031.71 289.504 1031.71 301.035C1031.71 312.566 1040.12 321.913 1040.46 321.913C1040.81 321.913 1049.22 312.566 1049.22 301.035Z" fill="#B66B3C"/>
<path d="M1007.03 281.841C1017.02 287.607 1020.91 299.564 1020.74 299.863C1020.56 300.163 1008.26 302.772 998.276 297.007C988.29 291.241 984.399 279.284 984.572 278.985C984.745 278.685 997.045 276.076 1007.03 281.841Z" fill="#B66B3C"/>
<path d="M1034.74 275.954C1034.74 264.423 1026.33 255.075 1025.98 255.075C1025.64 255.075 1017.23 264.423 1017.23 275.954C1017.23 287.485 1025.64 296.833 1025.98 296.833C1026.33 296.833 1034.74 287.485 1034.74 275.954Z" fill="#B66B3C"/>
<path d="M1010.62 258.892C1004.85 248.905 992.895 245.015 992.596 245.188C992.297 245.361 989.687 257.661 995.453 267.647C1001.22 277.633 1013.18 281.524 1013.47 281.351C1013.77 281.178 1016.38 268.878 1010.62 258.892Z" fill="#B66B3C"/>
<path fill-rule="evenodd" clip-rule="evenodd" d="M1012.31 277.096L1049.69 341.839L1047.75 342.962L1010.37 278.218L1012.31 277.096Z" fill="#B66B3C"/>
<path d="M1142.18 306.922C1152.17 312.688 1156.06 324.645 1155.89 324.944C1155.71 325.243 1143.41 327.853 1133.43 322.087C1123.44 316.322 1119.55 304.365 1119.72 304.065C1119.9 303.766 1132.2 301.157 1142.18 306.922Z" fill="#B66B3C"/>
<path d="M1169.89 301.035C1169.89 289.504 1161.48 280.156 1161.14 280.156C1160.79 280.156 1152.38 289.504 1152.38 301.035C1152.38 312.566 1160.79 321.913 1161.14 321.913C1161.48 321.913 1169.89 312.566 1169.89 301.035Z" fill="#B66B3C"/>
<path d="M1127.7 281.841C1137.69 287.607 1141.58 299.564 1141.41 299.863C1141.23 300.163 1128.93 302.772 1118.95 297.007C1108.96 291.241 1105.07 279.284 1105.24 278.985C1105.42 278.685 1117.72 276.076 1127.7 281.841Z" fill="#B66B3C"/>
<path d="M1155.41 275.954C1155.41 264.423 1147 255.075 1146.66 255.075C1146.31 255.075 1137.9 264.423 1137.9 275.954C1137.9 287.485 1146.31 296.833 1146.66 296.833C1147 296.833 1155.41 287.485 1155.41 275.954Z" fill="#B66B3C"/>
<path d="M1131.29 258.891C1125.52 248.905 1113.57 245.015 1113.27 245.188C1112.97 245.36 1110.36 257.661 1116.13 267.647C1121.89 277.633 1133.85 281.524 1134.15 281.351C1134.45 281.178 1137.06 268.878 1131.29 258.891Z" fill="#B66B3C"/>
<path fill-rule="evenodd" clip-rule="evenodd" d="M1132.99 277.095L1170.37 341.839L1168.42 342.962L1131.04 278.218L1132.99 277.095Z" fill="#B66B3C"/>
<path d="M1262.86 306.922C1272.84 312.688 1276.73 324.645 1276.56 324.944C1276.39 325.244 1264.09 327.853 1254.1 322.087C1244.11 316.322 1240.22 304.365 1240.4 304.065C1240.57 303.766 1252.87 301.157 1262.86 306.922Z" fill="#B66B3C"/>
<path d="M1290.56 301.035C1290.56 289.504 1282.15 280.156 1281.81 280.156C1281.46 280.156 1273.05 289.504 1273.05 301.035C1273.05 312.566 1281.46 321.913 1281.81 321.913C1282.15 321.913 1290.56 312.566 1290.56 301.035Z" fill="#B66B3C"/>
<path d="M1248.37 281.841C1258.36 287.607 1262.25 299.564 1262.08 299.863C1261.91 300.163 1249.61 302.772 1239.62 297.007C1229.63 291.241 1225.74 279.284 1225.92 278.985C1226.09 278.685 1238.39 276.076 1248.37 281.841Z" fill="#B66B3C"/>
<path d="M1276.08 275.954C1276.08 264.423 1267.67 255.075 1267.33 255.075C1266.98 255.075 1258.57 264.423 1258.57 275.954C1258.57 287.485 1266.98 296.833 1267.33 296.833C1267.67 296.833 1276.08 287.485 1276.08 275.954Z" fill="#B66B3C"/>
<path d="M1251.96 258.892C1246.2 248.905 1234.24 245.015 1233.94 245.188C1233.64 245.361 1231.03 257.661 1236.8 267.647C1242.56 277.633 1254.52 281.524 1254.82 281.351C1255.12 281.178 1257.73 268.878 1251.96 258.892Z" fill="#B66B3C"/>
<path fill-rule="evenodd" clip-rule="evenodd" d="M1253.66 277.096L1291.04 341.839L1289.09 342.962L1251.71 278.218L1253.66 277.096Z" fill="#B66B3C"/>
<path d="M1383.53 306.922C1393.51 312.688 1397.4 324.645 1397.23 324.944C1397.06 325.243 1384.76 327.853 1374.77 322.087C1364.79 316.322 1360.9 304.364 1361.07 304.065C1361.24 303.766 1373.54 301.157 1383.53 306.922Z" fill="#B66B3C"/>
<path d="M1411.24 301.034C1411.24 289.503 1402.83 280.156 1402.48 280.156C1402.14 280.156 1393.73 289.503 1393.73 301.034C1393.73 312.565 1402.14 321.913 1402.48 321.913C1402.83 321.913 1411.24 312.565 1411.24 301.034Z" fill="#B66B3C"/>
<path d="M1369.05 281.841C1379.03 287.607 1382.92 299.564 1382.75 299.863C1382.58 300.163 1370.28 302.772 1360.29 297.007C1350.31 291.241 1346.42 279.284 1346.59 278.985C1346.76 278.685 1359.06 276.076 1369.05 281.841Z" fill="#B66B3C"/>
<path d="M1396.76 275.954C1396.76 264.423 1388.35 255.075 1388 255.075C1387.65 255.075 1379.24 264.423 1379.24 275.954C1379.24 287.485 1387.65 296.833 1388 296.833C1388.35 296.833 1396.76 287.485 1396.76 275.954Z" fill="#B66B3C"/>
<path d="M1372.63 258.891C1366.87 248.905 1354.91 245.015 1354.61 245.188C1354.31 245.36 1351.7 257.661 1357.47 267.647C1363.23 277.633 1375.19 281.523 1375.49 281.351C1375.79 281.178 1378.4 268.878 1372.63 258.891Z" fill="#B66B3C"/>
<path fill-rule="evenodd" clip-rule="evenodd" d="M1374.33 277.095L1411.71 341.839L1409.77 342.962L1372.39 278.218L1374.33 277.095Z" fill="#B66B3C"/>
<path d="M1504.2 306.922C1514.19 312.688 1518.08 324.645 1517.9 324.944C1517.73 325.243 1505.43 327.853 1495.44 322.087C1485.46 316.322 1481.57 304.364 1481.74 304.065C1481.91 303.766 1494.21 301.157 1504.2 306.922Z" fill="#B66B3C"/>
<path d="M1531.91 301.034C1531.91 289.503 1523.5 280.156 1523.15 280.156C1522.81 280.156 1514.4 289.503 1514.4 301.034C1514.4 312.565 1522.81 321.913 1523.15 321.913C1523.5 321.913 1531.91 312.565 1531.91 301.034Z" fill="#B66B3C"/>
<path d="M1489.72 281.841C1499.71 287.607 1503.6 299.564 1503.42 299.863C1503.25 300.163 1490.95 302.772 1480.96 297.007C1470.98 291.241 1467.09 279.284 1467.26 278.985C1467.43 278.685 1479.73 276.076 1489.72 281.841Z" fill="#B66B3C"/>
<path d="M1517.43 275.954C1517.43 264.423 1509.02 255.075 1508.67 255.075C1508.33 255.075 1499.92 264.423 1499.92 275.954C1499.92 287.485 1508.33 296.833 1508.67 296.833C1509.02 296.833 1517.43 287.485 1517.43 275.954Z" fill="#B66B3C"/>
<path d="M1493.31 258.891C1487.54 248.905 1475.58 245.015 1475.28 245.188C1474.99 245.36 1472.38 257.661 1478.14 267.647C1483.91 277.633 1495.86 281.523 1496.16 281.351C1496.46 281.178 1499.07 268.878 1493.31 258.891Z" fill="#B66B3C"/>
<path fill-rule="evenodd" clip-rule="evenodd" d="M1495 277.095L1532.38 341.839L1530.44 342.962L1493.06 278.218L1495 277.095Z" fill="#B66B3C"/>
<path d="M56.135 421.628C66.1212 427.393 70.0115 439.351 69.8388 439.65C69.666 439.949 57.3656 442.559 47.3794 436.793C37.3932 431.028 33.5029 419.07 33.6757 418.771C33.8484 418.472 46.1489 415.862 56.135 421.628Z" fill="#B66B3C"/>
<path d="M83.8438 415.74C83.8438 404.209 75.4337 394.861 75.0881 394.861C74.7426 394.861 66.3325 404.209 66.3325 415.74C66.3325 427.271 74.7426 436.619 75.0881 436.619C75.4337 436.619 83.8438 427.271 83.8438 415.74Z" fill="#B66B3C"/>
<path d="M41.6546 396.547C51.6407 402.312 55.5311 414.27 55.3583 414.569C55.1855 414.868 42.8851 417.478 32.8989 411.712C22.9128 405.947 19.0224 393.989 19.1952 393.69C19.368 393.391 31.6684 390.781 41.6546 396.547Z" fill="#B66B3C"/>
<path d="M69.3633 390.659C69.3633 379.128 60.9532 369.781 60.6077 369.781C60.2621 369.781 51.8521 379.128 51.8521 390.659C51.8521 402.19 60.2621 411.538 60.6077 411.538C60.9532 411.538 69.3633 402.19 69.3633 390.659Z" fill="#B66B3C"/>
<path d="M45.2419 373.597C39.4764 363.611 27.5192 359.721 27.2199 359.893C26.9207 360.066 24.3112 372.366 30.0767 382.353C35.8422 392.339 47.7995 396.229 48.0987 396.056C48.3979 395.884 51.0074 383.583 45.2419 373.597Z" fill="#B66B3C"/>
<path fill-rule="evenodd" clip-rule="evenodd" d="M46.938 391.801L84.3178 456.545L82.3735 457.667L44.9938 392.924L46.938 391.801Z" fill="#B66B3C"/>
<path d="M176.807 421.628C186.794 427.393 190.684 439.351 190.511 439.65C190.338 439.949 178.038 442.559 168.052 436.793C158.066 431.028 154.175 419.07 154.348 418.771C154.521 418.472 166.821 415.862 176.807 421.628Z" fill="#B66B3C"/>
<path d="M204.516 415.74C204.516 404.209 196.106 394.861 195.761 394.861C195.415 394.861 187.005 404.209 187.005 415.74C187.005 427.271 195.415 436.619 195.761 436.619C196.106 436.619 204.516 427.271 204.516 415.74Z" fill="#B66B3C"/>
<path d="M162.326 396.547C172.313 402.313 176.203 414.27 176.03 414.569C175.857 414.868 163.557 417.478 153.571 411.712C143.585 405.947 139.694 393.989 139.867 393.69C140.04 393.391 152.34 390.782 162.326 396.547Z" fill="#B66B3C"/>
<path d="M190.036 390.659C190.036 379.128 181.626 369.781 181.28 369.781C180.935 369.781 172.524 379.128 172.524 390.659C172.524 402.19 180.935 411.538 181.28 411.538C181.626 411.538 190.036 402.19 190.036 390.659Z" fill="#B66B3C"/>
<path d="M165.914 373.597C160.148 363.611 148.191 359.721 147.892 359.893C147.593 360.066 144.983 372.366 150.749 382.353C156.514 392.339 168.471 396.229 168.771 396.056C169.07 395.884 171.679 383.583 165.914 373.597Z" fill="#B66B3C"/>
<path fill-rule="evenodd" clip-rule="evenodd" d="M167.61 391.801L204.99 456.545L203.045 457.667L165.666 392.923L167.61 391.801Z" fill="#B66B3C"/>
<path d="M297.479 421.628C307.465 427.393 311.356 439.351 311.183 439.65C311.01 439.949 298.71 442.559 288.724 436.793C278.737 431.028 274.847 419.07 275.02 418.771C275.193 418.472 287.493 415.862 297.479 421.628Z" fill="#B66B3C"/>
<path d="M325.188 415.74C325.188 404.209 316.778 394.861 316.432 394.861C316.087 394.861 307.677 404.209 307.677 415.74C307.677 427.271 316.087 436.619 316.432 436.619C316.778 436.619 325.188 427.271 325.188 415.74Z" fill="#B66B3C"/>
<path d="M282.999 396.547C292.985 402.312 296.875 414.27 296.703 414.569C296.53 414.868 284.229 417.478 274.243 411.712C264.257 405.947 260.367 393.989 260.539 393.69C260.712 393.391 273.013 390.781 282.999 396.547Z" fill="#B66B3C"/>
<path d="M310.708 390.659C310.708 379.128 302.297 369.781 301.952 369.781C301.606 369.781 293.196 379.128 293.196 390.659C293.196 402.19 301.606 411.538 301.952 411.538C302.297 411.538 310.708 402.19 310.708 390.659Z" fill="#B66B3C"/>
<path d="M286.586 373.597C280.82 363.611 268.863 359.721 268.564 359.893C268.264 360.066 265.655 372.366 271.42 382.353C277.186 392.339 289.143 396.229 289.442 396.056C289.742 395.884 292.351 383.583 286.586 373.597Z" fill="#B66B3C"/>
<path fill-rule="evenodd" clip-rule="evenodd" d="M288.282 391.801L325.662 456.545L323.717 457.667L286.338 392.923L288.282 391.801Z" fill="#B66B3C"/>
<path d="M418.151 421.628C428.137 427.393 432.028 439.351 431.855 439.65C431.682 439.949 419.382 442.559 409.396 436.793C399.409 431.028 395.519 419.07 395.692 418.771C395.865 418.472 408.165 415.862 418.151 421.628Z" fill="#B66B3C"/>
<path d="M445.86 415.74C445.86 404.209 437.45 394.862 437.104 394.862C436.759 394.862 428.349 404.209 428.349 415.74C428.349 427.271 436.759 436.619 437.104 436.619C437.45 436.619 445.86 427.271 445.86 415.74Z" fill="#B66B3C"/>
<path d="M403.671 396.547C413.657 402.312 417.547 414.27 417.374 414.569C417.202 414.868 404.901 417.478 394.915 411.712C384.929 405.947 381.039 393.989 381.211 393.69C381.384 393.391 393.685 390.781 403.671 396.547Z" fill="#B66B3C"/>
<path d="M431.379 390.659C431.379 379.128 422.969 369.781 422.624 369.781C422.278 369.781 413.868 379.128 413.868 390.659C413.868 402.19 422.278 411.538 422.624 411.538C422.969 411.538 431.379 402.19 431.379 390.659Z" fill="#B66B3C"/>
<path d="M407.258 373.597C401.492 363.611 389.535 359.721 389.236 359.893C388.936 360.066 386.327 372.367 392.092 382.353C397.858 392.339 409.815 396.229 410.114 396.057C410.414 395.884 413.023 383.583 407.258 373.597Z" fill="#B66B3C"/>
<path fill-rule="evenodd" clip-rule="evenodd" d="M408.954 391.801L446.334 456.545L444.39 457.667L407.01 392.924L408.954 391.801Z" fill="#B66B3C"/>
<path d="M538.823 421.628C548.809 427.393 552.7 439.351 552.527 439.65C552.354 439.949 540.054 442.559 530.067 436.793C520.081 431.028 516.191 419.07 516.364 418.771C516.536 418.472 528.837 415.862 538.823 421.628Z" fill="#B66B3C"/>
<path d="M566.532 415.74C566.532 404.209 558.122 394.861 557.776 394.861C557.431 394.861 549.021 404.209 549.021 415.74C549.021 427.271 557.431 436.619 557.776 436.619C558.122 436.619 566.532 427.271 566.532 415.74Z" fill="#B66B3C"/>
<path d="M524.343 396.547C534.329 402.312 538.22 414.27 538.047 414.569C537.874 414.868 525.574 417.478 515.587 411.712C505.601 405.947 501.711 393.989 501.884 393.69C502.056 393.391 514.357 390.781 524.343 396.547Z" fill="#B66B3C"/>
<path d="M552.052 390.659C552.052 379.128 543.642 369.781 543.296 369.781C542.951 369.781 534.541 379.128 534.541 390.659C534.541 402.19 542.951 411.538 543.296 411.538C543.642 411.538 552.052 402.19 552.052 390.659Z" fill="#B66B3C"/>
<path d="M527.93 373.597C522.164 363.611 510.207 359.721 509.908 359.893C509.609 360.066 506.999 372.366 512.765 382.353C518.53 392.339 530.487 396.229 530.787 396.056C531.086 395.884 533.695 383.583 527.93 373.597Z" fill="#B66B3C"/>
<path fill-rule="evenodd" clip-rule="evenodd" d="M529.626 391.801L567.006 456.545L565.062 457.667L527.682 392.924L529.626 391.801Z" fill="#B66B3C"/>
<path d="M659.495 421.628C669.482 427.393 673.372 439.351 673.199 439.65C673.026 439.949 660.726 442.559 650.74 436.793C640.754 431.028 636.863 419.07 637.036 418.771C637.209 418.472 649.509 415.862 659.495 421.628Z" fill="#B66B3C"/>
<path d="M687.204 415.74C687.204 404.209 678.794 394.861 678.448 394.861C678.103 394.861 669.693 404.209 669.693 415.74C669.693 427.271 678.103 436.619 678.448 436.619C678.794 436.619 687.204 427.271 687.204 415.74Z" fill="#B66B3C"/>
<path d="M645.015 396.547C655.001 402.312 658.891 414.27 658.719 414.569C658.546 414.868 646.245 417.478 636.259 411.712C626.273 405.947 622.383 393.989 622.556 393.69C622.728 393.391 635.029 390.781 645.015 396.547Z" fill="#B66B3C"/>
<path d="M672.724 390.659C672.724 379.128 664.314 369.78 663.968 369.78C663.622 369.78 655.212 379.128 655.212 390.659C655.212 402.19 663.622 411.538 663.968 411.538C664.314 411.538 672.724 402.19 672.724 390.659Z" fill="#B66B3C"/>
<path d="M648.602 373.597C642.836 363.611 630.879 359.721 630.58 359.893C630.281 360.066 627.671 372.366 633.437 382.353C639.202 392.339 651.159 396.229 651.459 396.056C651.758 395.884 654.367 383.583 648.602 373.597Z" fill="#B66B3C"/>
<path fill-rule="evenodd" clip-rule="evenodd" d="M650.298 391.801L687.678 456.545L685.733 457.667L648.354 392.923L650.298 391.801Z" fill="#B66B3C"/>
<path d="M780.167 421.628C790.153 427.393 794.044 439.351 793.871 439.65C793.698 439.949 781.398 442.559 771.412 436.793C761.425 431.028 757.535 419.07 757.708 418.771C757.881 418.472 770.181 415.862 780.167 421.628Z" fill="#B66B3C"/>
<path d="M807.876 415.74C807.876 404.209 799.466 394.861 799.12 394.861C798.775 394.861 790.365 404.209 790.365 415.74C790.365 427.271 798.775 436.619 799.12 436.619C799.466 436.619 807.876 427.271 807.876 415.74Z" fill="#B66B3C"/>
<path d="M765.687 396.547C775.673 402.312 779.563 414.27 779.391 414.569C779.218 414.868 766.917 417.478 756.931 411.712C746.945 405.947 743.055 393.989 743.227 393.69C743.4 393.391 755.701 390.781 765.687 396.547Z" fill="#B66B3C"/>
<path d="M793.396 390.659C793.396 379.128 784.986 369.78 784.64 369.78C784.295 369.78 775.885 379.128 775.885 390.659C775.885 402.19 784.295 411.538 784.64 411.538C784.986 411.538 793.396 402.19 793.396 390.659Z" fill="#B66B3C"/>
<path d="M769.274 373.597C763.509 363.611 751.551 359.721 751.252 359.893C750.953 360.066 748.343 372.366 754.109 382.353C759.874 392.339 771.832 396.229 772.131 396.056C772.43 395.884 775.04 383.583 769.274 373.597Z" fill="#B66B3C"/>
<path fill-rule="evenodd" clip-rule="evenodd" d="M770.97 391.801L808.35 456.545L806.406 457.667L769.026 392.923L770.97 391.801Z" fill="#B66B3C"/>
<path d="M900.84 421.628C910.826 427.393 914.716 439.351 914.543 439.65C914.371 439.949 902.07 442.559 892.084 436.793C882.098 431.028 878.207 419.07 878.38 418.771C878.553 418.472 890.853 415.862 900.84 421.628Z" fill="#B66B3C"/>
<path d="M928.548 415.74C928.548 404.209 920.138 394.861 919.793 394.861C919.447 394.861 911.037 404.209 911.037 415.74C911.037 427.271 919.447 436.619 919.793 436.619C920.138 436.619 928.548 427.271 928.548 415.74Z" fill="#B66B3C"/>
<path d="M886.359 396.547C896.345 402.312 900.235 414.27 900.062 414.569C899.89 414.868 887.589 417.478 877.603 411.712C867.617 405.947 863.727 393.989 863.899 393.69C864.072 393.391 876.372 390.781 886.359 396.547Z" fill="#B66B3C"/>
<path d="M914.067 390.659C914.067 379.128 905.657 369.781 905.312 369.781C904.966 369.781 896.556 379.128 896.556 390.659C896.556 402.19 904.966 411.538 905.312 411.538C905.657 411.538 914.067 402.19 914.067 390.659Z" fill="#B66B3C"/>
<path d="M889.946 373.597C884.18 363.611 872.223 359.721 871.924 359.893C871.624 360.066 869.015 372.366 874.78 382.353C880.546 392.339 892.503 396.229 892.802 396.056C893.102 395.884 895.711 383.583 889.946 373.597Z" fill="#B66B3C"/>
<path fill-rule="evenodd" clip-rule="evenodd" d="M891.642 391.801L929.022 456.545L927.078 457.667L889.698 392.923L891.642 391.801Z" fill="#B66B3C"/>
<path d="M1021.51 421.628C1031.5 427.393 1035.39 439.351 1035.22 439.65C1035.04 439.949 1022.74 442.559 1012.76 436.793C1002.77 431.028 998.879 419.07 999.052 418.771C999.225 418.472 1011.53 415.862 1021.51 421.628Z" fill="#B66B3C"/>
<path d="M1049.22 415.74C1049.22 404.209 1040.81 394.861 1040.46 394.861C1040.12 394.861 1031.71 404.209 1031.71 415.74C1031.71 427.271 1040.12 436.619 1040.46 436.619C1040.81 436.619 1049.22 427.271 1049.22 415.74Z" fill="#B66B3C"/>
<path d="M1007.03 396.547C1017.02 402.312 1020.91 414.27 1020.74 414.569C1020.56 414.868 1008.26 417.478 998.276 411.712C988.29 405.947 984.399 393.989 984.572 393.69C984.745 393.391 997.045 390.781 1007.03 396.547Z" fill="#B66B3C"/>
<path d="M1034.74 390.659C1034.74 379.128 1026.33 369.781 1025.98 369.781C1025.64 369.781 1017.23 379.128 1017.23 390.659C1017.23 402.19 1025.64 411.538 1025.98 411.538C1026.33 411.538 1034.74 402.19 1034.74 390.659Z" fill="#B66B3C"/>
<path d="M1010.62 373.597C1004.85 363.611 992.896 359.721 992.596 359.893C992.297 360.066 989.688 372.366 995.453 382.353C1001.22 392.339 1013.18 396.229 1013.48 396.056C1013.77 395.884 1016.38 383.583 1010.62 373.597Z" fill="#B66B3C"/>
<path fill-rule="evenodd" clip-rule="evenodd" d="M1012.31 391.801L1049.69 456.545L1047.75 457.667L1010.37 392.924L1012.31 391.801Z" fill="#B66B3C"/>
<path d="M1142.18 421.628C1152.17 427.393 1156.06 439.351 1155.89 439.65C1155.71 439.949 1143.41 442.559 1133.43 436.793C1123.44 431.028 1119.55 419.07 1119.72 418.771C1119.9 418.472 1132.2 415.862 1142.18 421.628Z" fill="#B66B3C"/>
<path d="M1169.89 415.74C1169.89 404.209 1161.48 394.861 1161.14 394.861C1160.79 394.861 1152.38 404.209 1152.38 415.74C1152.38 427.271 1160.79 436.619 1161.14 436.619C1161.48 436.619 1169.89 427.271 1169.89 415.74Z" fill="#B66B3C"/>
<path d="M1127.7 396.547C1137.69 402.312 1141.58 414.27 1141.41 414.569C1141.23 414.868 1128.93 417.477 1118.95 411.712C1108.96 405.946 1105.07 393.989 1105.24 393.69C1105.42 393.391 1117.72 390.781 1127.7 396.547Z" fill="#B66B3C"/>
<path d="M1155.41 390.659C1155.41 379.128 1147 369.78 1146.66 369.78C1146.31 369.78 1137.9 379.128 1137.9 390.659C1137.9 402.19 1146.31 411.538 1146.66 411.538C1147 411.538 1155.41 402.19 1155.41 390.659Z" fill="#B66B3C"/>
<path d="M1131.29 373.597C1125.53 363.611 1113.57 359.721 1113.27 359.893C1112.97 360.066 1110.36 372.366 1116.13 382.353C1121.89 392.339 1133.85 396.229 1134.15 396.056C1134.45 395.884 1137.06 383.583 1131.29 373.597Z" fill="#B66B3C"/>
<path fill-rule="evenodd" clip-rule="evenodd" d="M1132.99 391.801L1170.37 456.545L1168.42 457.667L1131.04 392.923L1132.99 391.801Z" fill="#B66B3C"/>
<path d="M1262.86 421.628C1272.84 427.393 1276.73 439.351 1276.56 439.65C1276.39 439.949 1264.09 442.559 1254.1 436.793C1244.11 431.028 1240.22 419.07 1240.4 418.771C1240.57 418.472 1252.87 415.862 1262.86 421.628Z" fill="#B66B3C"/>
<path d="M1290.56 415.74C1290.56 404.209 1282.15 394.861 1281.81 394.861C1281.46 394.861 1273.05 404.209 1273.05 415.74C1273.05 427.271 1281.46 436.619 1281.81 436.619C1282.15 436.619 1290.56 427.271 1290.56 415.74Z" fill="#B66B3C"/>
<path d="M1248.38 396.547C1258.36 402.313 1262.25 414.27 1262.08 414.569C1261.91 414.868 1249.61 417.478 1239.62 411.712C1229.63 405.947 1225.74 393.989 1225.92 393.69C1226.09 393.391 1238.39 390.782 1248.38 396.547Z" fill="#B66B3C"/>
<path d="M1276.08 390.659C1276.08 379.128 1267.67 369.781 1267.33 369.781C1266.98 369.781 1258.57 379.128 1258.57 390.659C1258.57 402.19 1266.98 411.538 1267.33 411.538C1267.67 411.538 1276.08 402.19 1276.08 390.659Z" fill="#B66B3C"/>
<path d="M1251.96 373.597C1246.2 363.611 1234.24 359.721 1233.94 359.893C1233.64 360.066 1231.03 372.367 1236.8 382.353C1242.56 392.339 1254.52 396.229 1254.82 396.057C1255.12 395.884 1257.73 383.583 1251.96 373.597Z" fill="#B66B3C"/>
<path fill-rule="evenodd" clip-rule="evenodd" d="M1253.66 391.801L1291.04 456.545L1289.09 457.667L1251.71 392.924L1253.66 391.801Z" fill="#B66B3C"/>
<path d="M1383.53 421.628C1393.51 427.393 1397.41 439.35 1397.23 439.65C1397.06 439.949 1384.76 442.558 1374.77 436.793C1364.79 431.027 1360.9 419.07 1361.07 418.771C1361.24 418.472 1373.54 415.862 1383.53 421.628Z" fill="#B66B3C"/>
<path d="M1411.24 415.74C1411.24 404.209 1402.83 394.861 1402.48 394.861C1402.14 394.861 1393.73 404.209 1393.73 415.74C1393.73 427.271 1402.14 436.619 1402.48 436.619C1402.83 436.619 1411.24 427.271 1411.24 415.74Z" fill="#B66B3C"/>
<path d="M1369.05 396.547C1379.03 402.312 1382.93 414.27 1382.75 414.569C1382.58 414.868 1370.28 417.478 1360.29 411.712C1350.31 405.947 1346.42 393.989 1346.59 393.69C1346.76 393.391 1359.06 390.781 1369.05 396.547Z" fill="#B66B3C"/>
<path d="M1396.76 390.659C1396.76 379.128 1388.35 369.781 1388 369.781C1387.66 369.781 1379.25 379.128 1379.25 390.659C1379.25 402.19 1387.66 411.538 1388 411.538C1388.35 411.538 1396.76 402.19 1396.76 390.659Z" fill="#B66B3C"/>
<path d="M1372.64 373.597C1366.87 363.611 1354.91 359.72 1354.61 359.893C1354.31 360.066 1351.7 372.366 1357.47 382.353C1363.24 392.339 1375.19 396.229 1375.49 396.056C1375.79 395.884 1378.4 383.583 1372.64 373.597Z" fill="#B66B3C"/>
<path fill-rule="evenodd" clip-rule="evenodd" d="M1374.33 391.801L1411.71 456.545L1409.77 457.667L1372.39 392.923L1374.33 391.801Z" fill="#B66B3C"/>
<path d="M1504.2 421.628C1514.19 427.393 1518.08 439.35 1517.9 439.65C1517.73 439.949 1505.43 442.558 1495.44 436.793C1485.46 431.027 1481.57 419.07 1481.74 418.771C1481.91 418.472 1494.21 415.862 1504.2 421.628Z" fill="#B66B3C"/>
<path d="M1531.91 415.74C1531.91 404.209 1523.5 394.861 1523.15 394.861C1522.81 394.861 1514.4 404.209 1514.4 415.74C1514.4 427.271 1522.81 436.619 1523.15 436.619C1523.5 436.619 1531.91 427.271 1531.91 415.74Z" fill="#B66B3C"/>
<path d="M1489.72 396.547C1499.71 402.312 1503.6 414.27 1503.42 414.569C1503.25 414.868 1490.95 417.477 1480.96 411.712C1470.98 405.946 1467.09 393.989 1467.26 393.69C1467.43 393.391 1479.73 390.781 1489.72 396.547Z" fill="#B66B3C"/>
<path d="M1517.43 390.659C1517.43 379.128 1509.02 369.78 1508.67 369.78C1508.33 369.78 1499.92 379.128 1499.92 390.659C1499.92 402.19 1508.33 411.538 1508.67 411.538C1509.02 411.538 1517.43 402.19 1517.43 390.659Z" fill="#B66B3C"/>
<path d="M1493.31 373.597C1487.54 363.611 1475.58 359.72 1475.29 359.893C1474.99 360.066 1472.38 372.366 1478.14 382.353C1483.91 392.339 1495.86 396.229 1496.16 396.056C1496.46 395.884 1499.07 383.583 1493.31 373.597Z" fill="#B66B3C"/>
<path fill-rule="evenodd" clip-rule="evenodd" d="M1495 391.801L1532.38 456.545L1530.44 457.667L1493.06 392.923L1495 391.801Z" fill="#B66B3C"/>
<path d="M56.135 536.333C66.1212 542.099 70.0115 554.056 69.8388 554.355C69.666 554.654 57.3656 557.264 47.3794 551.498C37.3932 545.733 33.5029 533.776 33.6757 533.476C33.8484 533.177 46.1489 530.568 56.135 536.333Z" fill="#B66B3C"/>
<path d="M83.8438 530.446C83.8438 518.915 75.4337 509.567 75.0881 509.567C74.7426 509.567 66.3325 518.915 66.3325 530.446C66.3325 541.977 74.7426 551.324 75.0881 551.324C75.4337 551.324 83.8438 541.977 83.8438 530.446Z" fill="#B66B3C"/>
<path d="M41.6546 511.252C51.6407 517.018 55.5311 528.975 55.3583 529.274C55.1855 529.573 42.8851 532.183 32.8989 526.417C22.9128 520.652 19.0224 508.695 19.1952 508.395C19.368 508.096 31.6684 505.487 41.6546 511.252Z" fill="#B66B3C"/>
<path d="M69.3633 505.365C69.3633 493.834 60.9532 484.486 60.6077 484.486C60.2621 484.486 51.8521 493.834 51.8521 505.365C51.8521 516.896 60.2621 526.243 60.6077 526.243C60.9532 526.243 69.3633 516.896 69.3633 505.365Z" fill="#B66B3C"/>
<path d="M45.2419 488.302C39.4764 478.316 27.5192 474.426 27.2199 474.599C26.9207 474.771 24.3112 487.072 30.0767 497.058C35.8422 507.044 47.7995 510.934 48.0987 510.762C48.3979 510.589 51.0074 498.289 45.2419 488.302Z" fill="#B66B3C"/>
<path fill-rule="evenodd" clip-rule="evenodd" d="M46.938 506.506L84.3178 571.25L82.3735 572.373L44.9938 507.629L46.938 506.506Z" fill="#B66B3C"/>
<path d="M176.807 536.333C186.793 542.099 190.683 554.056 190.511 554.355C190.338 554.654 178.037 557.264 168.051 551.498C158.065 545.733 154.175 533.776 154.348 533.476C154.52 533.177 166.821 530.568 176.807 536.333Z" fill="#B66B3C"/>
<path d="M204.516 530.445C204.516 518.914 196.106 509.567 195.761 509.567C195.415 509.567 187.005 518.914 187.005 530.445C187.005 541.976 195.415 551.324 195.761 551.324C196.106 551.324 204.516 541.976 204.516 530.445Z" fill="#B66B3C"/>
<path d="M162.326 511.252C172.313 517.018 176.203 528.975 176.03 529.274C175.857 529.573 163.557 532.183 153.571 526.417C143.585 520.652 139.694 508.695 139.867 508.395C140.04 508.096 152.34 505.487 162.326 511.252Z" fill="#B66B3C"/>
<path d="M190.035 505.364C190.035 493.833 181.625 484.486 181.28 484.486C180.934 484.486 172.524 493.833 172.524 505.364C172.524 516.896 180.934 526.243 181.28 526.243C181.625 526.243 190.035 516.896 190.035 505.364Z" fill="#B66B3C"/>
<path d="M165.914 488.302C160.148 478.316 148.191 474.426 147.892 474.599C147.593 474.771 144.983 487.072 150.749 497.058C156.514 507.044 168.471 510.934 168.771 510.762C169.07 510.589 171.679 498.289 165.914 488.302Z" fill="#B66B3C"/>
<path fill-rule="evenodd" clip-rule="evenodd" d="M167.61 506.506L204.99 571.25L203.045 572.373L165.666 507.629L167.61 506.506Z" fill="#B66B3C"/>
<path d="M297.479 536.333C307.465 542.099 311.355 554.056 311.183 554.355C311.01 554.654 298.709 557.264 288.723 551.498C278.737 545.733 274.847 533.776 275.019 533.476C275.192 533.177 287.493 530.568 297.479 536.333Z" fill="#B66B3C"/>
<path d="M325.188 530.446C325.188 518.915 316.777 509.567 316.432 509.567C316.086 509.567 307.676 518.915 307.676 530.446C307.676 541.977 316.086 551.324 316.432 551.324C316.777 551.324 325.188 541.977 325.188 530.446Z" fill="#B66B3C"/>
<path d="M282.998 511.252C292.984 517.018 296.875 528.975 296.702 529.274C296.529 529.573 284.229 532.183 274.243 526.417C264.257 520.652 260.366 508.695 260.539 508.395C260.712 508.096 273.012 505.487 282.998 511.252Z" fill="#B66B3C"/>
<path d="M310.707 505.364C310.707 493.833 302.297 484.486 301.951 484.486C301.606 484.486 293.196 493.833 293.196 505.364C293.196 516.896 301.606 526.243 301.951 526.243C302.297 526.243 310.707 516.896 310.707 505.364Z" fill="#B66B3C"/>
<path d="M286.585 488.302C280.82 478.316 268.862 474.426 268.563 474.599C268.264 474.771 265.654 487.072 271.42 497.058C277.185 507.044 289.143 510.934 289.442 510.762C289.741 510.589 292.351 498.289 286.585 488.302Z" fill="#B66B3C"/>
<path fill-rule="evenodd" clip-rule="evenodd" d="M288.282 506.507L325.662 571.25L323.717 572.373L286.338 507.629L288.282 506.507Z" fill="#B66B3C"/>
<path d="M418.151 536.333C428.137 542.099 432.027 554.056 431.854 554.355C431.682 554.654 419.381 557.264 409.395 551.498C399.409 545.733 395.519 533.776 395.691 533.476C395.864 533.177 408.164 530.568 418.151 536.333Z" fill="#B66B3C"/>
<path d="M445.859 530.446C445.859 518.915 437.449 509.567 437.104 509.567C436.758 509.567 428.348 518.915 428.348 530.446C428.348 541.977 436.758 551.324 437.104 551.324C437.449 551.324 445.859 541.977 445.859 530.446Z" fill="#B66B3C"/>
<path d="M403.67 511.252C413.656 517.018 417.547 528.975 417.374 529.274C417.201 529.573 404.901 532.183 394.915 526.417C384.928 520.652 381.038 508.695 381.211 508.395C381.384 508.096 393.684 505.487 403.67 511.252Z" fill="#B66B3C"/>
<path d="M431.379 505.365C431.379 493.834 422.969 484.486 422.623 484.486C422.278 484.486 413.868 493.834 413.868 505.365C413.868 516.896 422.278 526.243 422.623 526.243C422.969 526.243 431.379 516.896 431.379 505.365Z" fill="#B66B3C"/>
<path d="M407.257 488.302C401.492 478.316 389.534 474.426 389.235 474.599C388.936 474.771 386.326 487.072 392.092 497.058C397.857 507.044 409.815 510.935 410.114 510.762C410.413 510.589 413.023 498.289 407.257 488.302Z" fill="#B66B3C"/>
<path fill-rule="evenodd" clip-rule="evenodd" d="M408.954 506.507L446.333 571.25L444.389 572.373L407.009 507.629L408.954 506.507Z" fill="#B66B3C"/>
<path d="M538.823 536.333C548.809 542.099 552.699 554.056 552.526 554.355C552.354 554.654 540.053 557.264 530.067 551.498C520.081 545.733 516.19 533.776 516.363 533.476C516.536 533.177 528.836 530.568 538.823 536.333Z" fill="#B66B3C"/>
<path d="M566.531 530.446C566.531 518.915 558.121 509.567 557.776 509.567C557.43 509.567 549.02 518.915 549.02 530.446C549.02 541.977 557.43 551.324 557.776 551.324C558.121 551.324 566.531 541.977 566.531 530.446Z" fill="#B66B3C"/>
<path d="M524.343 511.252C534.329 517.018 538.219 528.975 538.046 529.274C537.874 529.573 525.573 532.183 515.587 526.417C505.601 520.652 501.71 508.695 501.883 508.395C502.056 508.096 514.356 505.487 524.343 511.252Z" fill="#B66B3C"/>
<path d="M552.051 505.364C552.051 493.833 543.641 484.486 543.296 484.486C542.95 484.486 534.54 493.833 534.54 505.364C534.54 516.896 542.95 526.243 543.296 526.243C543.641 526.243 552.051 516.896 552.051 505.364Z" fill="#B66B3C"/>
<path d="M527.929 488.302C522.163 478.316 510.206 474.426 509.907 474.599C509.608 474.771 506.998 487.072 512.764 497.058C518.529 507.044 530.486 510.935 530.786 510.762C531.085 510.589 533.694 498.289 527.929 488.302Z" fill="#B66B3C"/>
<path fill-rule="evenodd" clip-rule="evenodd" d="M529.626 506.506L567.005 571.25L565.061 572.373L527.681 507.629L529.626 506.506Z" fill="#B66B3C"/>
<path d="M659.495 536.333C669.481 542.099 673.371 554.056 673.199 554.355C673.026 554.654 660.725 557.264 650.739 551.498C640.753 545.733 636.863 533.776 637.036 533.476C637.208 533.177 649.509 530.568 659.495 536.333Z" fill="#B66B3C"/>
<path d="M687.204 530.446C687.204 518.915 678.794 509.567 678.448 509.567C678.102 509.567 669.692 518.915 669.692 530.446C669.692 541.977 678.102 551.324 678.448 551.324C678.794 551.324 687.204 541.977 687.204 530.446Z" fill="#B66B3C"/>
<path d="M645.014 511.252C655.001 517.018 658.891 528.975 658.718 529.274C658.545 529.573 646.245 532.183 636.259 526.417C626.273 520.652 622.382 508.695 622.555 508.395C622.728 508.096 635.028 505.487 645.014 511.252Z" fill="#B66B3C"/>
<path d="M672.723 505.364C672.723 493.833 664.313 484.486 663.968 484.486C663.622 484.486 655.212 493.833 655.212 505.364C655.212 516.896 663.622 526.243 663.968 526.243C664.313 526.243 672.723 516.896 672.723 505.364Z" fill="#B66B3C"/>
<path d="M648.601 488.302C642.836 478.316 630.879 474.426 630.579 474.599C630.28 474.771 627.671 487.072 633.436 497.058C639.202 507.044 651.159 510.934 651.458 510.762C651.757 510.589 654.367 498.289 648.601 488.302Z" fill="#B66B3C"/>
<path fill-rule="evenodd" clip-rule="evenodd" d="M650.297 506.506L687.677 571.25L685.733 572.373L648.353 507.629L650.297 506.506Z" fill="#B66B3C"/>
<path d="M780.167 536.333C790.153 542.098 794.043 554.056 793.871 554.355C793.698 554.654 781.397 557.264 771.411 551.498C761.425 545.733 757.535 533.775 757.707 533.476C757.88 533.177 770.181 530.567 780.167 536.333Z" fill="#B66B3C"/>
<path d="M807.875 530.445C807.875 518.914 799.465 509.567 799.12 509.567C798.774 509.567 790.364 518.914 790.364 530.445C790.364 541.976 798.774 551.324 799.12 551.324C799.465 551.324 807.875 541.976 807.875 530.445Z" fill="#B66B3C"/>
<path d="M765.686 511.252C775.672 517.018 779.563 528.975 779.39 529.274C779.217 529.573 766.917 532.183 756.931 526.417C746.945 520.652 743.054 508.694 743.227 508.395C743.4 508.096 755.7 505.486 765.686 511.252Z" fill="#B66B3C"/>
<path d="M793.395 505.364C793.395 493.833 784.985 484.486 784.639 484.486C784.294 484.486 775.884 493.833 775.884 505.364C775.884 516.895 784.294 526.243 784.639 526.243C784.985 526.243 793.395 516.895 793.395 505.364Z" fill="#B66B3C"/>
<path d="M769.273 488.302C763.508 478.316 751.55 474.426 751.251 474.598C750.952 474.771 748.342 487.072 754.108 497.058C759.873 507.044 771.831 510.934 772.13 510.762C772.429 510.589 775.039 498.288 769.273 488.302Z" fill="#B66B3C"/>
<path fill-rule="evenodd" clip-rule="evenodd" d="M770.969 506.506L808.349 571.25L806.405 572.372L769.025 507.629L770.969 506.506Z" fill="#B66B3C"/>
<path d="M900.839 536.333C910.825 542.099 914.715 554.056 914.542 554.355C914.37 554.654 902.069 557.264 892.083 551.498C882.097 545.733 878.207 533.775 878.379 533.476C878.552 533.177 890.852 530.568 900.839 536.333Z" fill="#B66B3C"/>
<path d="M928.547 530.445C928.547 518.914 920.137 509.567 919.792 509.567C919.446 509.567 911.036 518.914 911.036 530.445C911.036 541.976 919.446 551.324 919.792 551.324C920.137 551.324 928.547 541.976 928.547 530.445Z" fill="#B66B3C"/>
<path d="M886.358 511.252C896.344 517.018 900.235 528.975 900.062 529.274C899.889 529.573 887.589 532.183 877.603 526.417C867.616 520.652 863.726 508.695 863.899 508.395C864.072 508.096 876.372 505.487 886.358 511.252Z" fill="#B66B3C"/>
<path d="M914.067 505.364C914.067 493.833 905.657 484.486 905.311 484.486C904.966 484.486 896.556 493.833 896.556 505.364C896.556 516.896 904.966 526.243 905.311 526.243C905.657 526.243 914.067 516.896 914.067 505.364Z" fill="#B66B3C"/>
<path d="M889.945 488.302C884.18 478.316 872.222 474.426 871.923 474.599C871.624 474.771 869.014 487.072 874.78 497.058C880.545 507.044 892.503 510.934 892.802 510.762C893.101 510.589 895.711 498.289 889.945 488.302Z" fill="#B66B3C"/>
<path fill-rule="evenodd" clip-rule="evenodd" d="M891.641 506.506L929.021 571.25L927.077 572.373L889.697 507.629L891.641 506.506Z" fill="#B66B3C"/>
<path d="M1021.51 536.333C1031.5 542.099 1035.39 554.056 1035.21 554.355C1035.04 554.654 1022.74 557.264 1012.75 551.498C1002.77 545.733 998.878 533.776 999.051 533.476C999.224 533.177 1011.52 530.568 1021.51 536.333Z" fill="#B66B3C"/>
<path d="M1049.22 530.446C1049.22 518.915 1040.81 509.567 1040.46 509.567C1040.12 509.567 1031.71 518.915 1031.71 530.446C1031.71 541.977 1040.12 551.324 1040.46 551.324C1040.81 551.324 1049.22 541.977 1049.22 530.446Z" fill="#B66B3C"/>
<path d="M1007.03 511.252C1017.02 517.018 1020.91 528.975 1020.73 529.274C1020.56 529.573 1008.26 532.183 998.275 526.417C988.289 520.652 984.398 508.695 984.571 508.395C984.744 508.096 997.044 505.487 1007.03 511.252Z" fill="#B66B3C"/>
<path d="M1034.74 505.365C1034.74 493.834 1026.33 484.486 1025.98 484.486C1025.64 484.486 1017.23 493.834 1017.23 505.365C1017.23 516.896 1025.64 526.243 1025.98 526.243C1026.33 526.243 1034.74 516.896 1034.74 505.365Z" fill="#B66B3C"/>
<path d="M1010.62 488.302C1004.85 478.316 992.895 474.426 992.595 474.599C992.296 474.771 989.687 487.072 995.452 497.058C1001.22 507.044 1013.17 510.934 1013.47 510.762C1013.77 510.589 1016.38 498.289 1010.62 488.302Z" fill="#B66B3C"/>
<path fill-rule="evenodd" clip-rule="evenodd" d="M1012.31 506.506L1049.69 571.25L1047.75 572.373L1010.37 507.629L1012.31 506.506Z" fill="#B66B3C"/>
<path d="M1142.18 536.333C1152.17 542.098 1156.06 554.056 1155.89 554.355C1155.71 554.654 1143.41 557.264 1133.43 551.498C1123.44 545.733 1119.55 533.775 1119.72 533.476C1119.9 533.177 1132.2 530.567 1142.18 536.333Z" fill="#B66B3C"/>
<path d="M1169.89 530.445C1169.89 518.914 1161.48 509.566 1161.14 509.566C1160.79 509.566 1152.38 518.914 1152.38 530.445C1152.38 541.976 1160.79 551.324 1161.14 551.324C1161.48 551.324 1169.89 541.976 1169.89 530.445Z" fill="#B66B3C"/>
<path d="M1127.7 511.252C1137.69 517.018 1141.58 528.975 1141.41 529.274C1141.23 529.573 1128.93 532.183 1118.95 526.417C1108.96 520.652 1105.07 508.694 1105.24 508.395C1105.42 508.096 1117.72 505.486 1127.7 511.252Z" fill="#B66B3C"/>
<path d="M1155.41 505.364C1155.41 493.833 1147 484.486 1146.66 484.486C1146.31 484.486 1137.9 493.833 1137.9 505.364C1137.9 516.895 1146.31 526.243 1146.66 526.243C1147 526.243 1155.41 516.895 1155.41 505.364Z" fill="#B66B3C"/>
<path d="M1131.29 488.302C1125.52 478.316 1113.57 474.426 1113.27 474.598C1112.97 474.771 1110.36 487.072 1116.12 497.058C1121.89 507.044 1133.85 510.934 1134.15 510.761C1134.45 510.589 1137.06 498.288 1131.29 488.302Z" fill="#B66B3C"/>
<path fill-rule="evenodd" clip-rule="evenodd" d="M1132.99 506.506L1170.37 571.25L1168.42 572.372L1131.04 507.629L1132.99 506.506Z" fill="#B66B3C"/>
<path d="M1262.86 536.333C1272.84 542.099 1276.73 554.056 1276.56 554.355C1276.39 554.654 1264.09 557.264 1254.1 551.498C1244.11 545.733 1240.22 533.775 1240.4 533.476C1240.57 533.177 1252.87 530.568 1262.86 536.333Z" fill="#B66B3C"/>
<path d="M1290.56 530.445C1290.56 518.914 1282.15 509.567 1281.81 509.567C1281.46 509.567 1273.05 518.914 1273.05 530.445C1273.05 541.976 1281.46 551.324 1281.81 551.324C1282.15 551.324 1290.56 541.976 1290.56 530.445Z" fill="#B66B3C"/>
<path d="M1248.37 511.252C1258.36 517.018 1262.25 528.975 1262.08 529.274C1261.91 529.573 1249.6 532.183 1239.62 526.417C1229.63 520.652 1225.74 508.694 1225.91 508.395C1226.09 508.096 1238.39 505.486 1248.37 511.252Z" fill="#B66B3C"/>
<path d="M1276.08 505.364C1276.08 493.833 1267.67 484.486 1267.33 484.486C1266.98 484.486 1258.57 493.833 1258.57 505.364C1258.57 516.895 1266.98 526.243 1267.33 526.243C1267.67 526.243 1276.08 516.895 1276.08 505.364Z" fill="#B66B3C"/>
<path d="M1251.96 488.302C1246.2 478.316 1234.24 474.426 1233.94 474.598C1233.64 474.771 1231.03 487.072 1236.8 497.058C1242.56 507.044 1254.52 510.934 1254.82 510.762C1255.12 510.589 1257.73 498.288 1251.96 488.302Z" fill="#B66B3C"/>
<path fill-rule="evenodd" clip-rule="evenodd" d="M1253.66 506.506L1291.04 571.25L1289.09 572.372L1251.71 507.629L1253.66 506.506Z" fill="#B66B3C"/>
<path d="M1383.53 536.333C1393.51 542.098 1397.4 554.056 1397.23 554.355C1397.06 554.654 1384.76 557.264 1374.77 551.498C1364.79 545.732 1360.89 533.775 1361.07 533.476C1361.24 533.177 1373.54 530.567 1383.53 536.333Z" fill="#B66B3C"/>
<path d="M1411.24 530.445C1411.24 518.914 1402.83 509.566 1402.48 509.566C1402.13 509.566 1393.72 518.914 1393.72 530.445C1393.72 541.976 1402.13 551.324 1402.48 551.324C1402.83 551.324 1411.24 541.976 1411.24 530.445Z" fill="#B66B3C"/>
<path d="M1369.05 511.252C1379.03 517.017 1382.92 528.975 1382.75 529.274C1382.58 529.573 1370.28 532.183 1360.29 526.417C1350.31 520.652 1346.42 508.694 1346.59 508.395C1346.76 508.096 1359.06 505.486 1369.05 511.252Z" fill="#B66B3C"/>
<path d="M1396.76 505.364C1396.76 493.833 1388.35 484.485 1388 484.485C1387.65 484.485 1379.24 493.833 1379.24 505.364C1379.24 516.895 1387.65 526.243 1388 526.243C1388.35 526.243 1396.76 516.895 1396.76 505.364Z" fill="#B66B3C"/>
<path d="M1372.63 488.302C1366.87 478.316 1354.91 474.426 1354.61 474.598C1354.31 474.771 1351.7 487.072 1357.47 497.058C1363.23 507.044 1375.19 510.934 1375.49 510.761C1375.79 510.589 1378.4 498.288 1372.63 488.302Z" fill="#B66B3C"/>
<path fill-rule="evenodd" clip-rule="evenodd" d="M1374.33 506.506L1411.71 571.25L1409.77 572.372L1372.39 507.629L1374.33 506.506Z" fill="#B66B3C"/>
<path d="M1504.2 536.333C1514.19 542.099 1518.08 554.056 1517.9 554.355C1517.73 554.654 1505.43 557.264 1495.44 551.498C1485.46 545.733 1481.57 533.775 1481.74 533.476C1481.91 533.177 1494.21 530.568 1504.2 536.333Z" fill="#B66B3C"/>
<path d="M1531.91 530.445C1531.91 518.914 1523.5 509.567 1523.15 509.567C1522.81 509.567 1514.4 518.914 1514.4 530.445C1514.4 541.976 1522.81 551.324 1523.15 551.324C1523.5 551.324 1531.91 541.976 1531.91 530.445Z" fill="#B66B3C"/>
<path d="M1489.72 511.252C1499.71 517.018 1503.6 528.975 1503.42 529.274C1503.25 529.573 1490.95 532.183 1480.96 526.417C1470.98 520.652 1467.09 508.694 1467.26 508.395C1467.43 508.096 1479.73 505.486 1489.72 511.252Z" fill="#B66B3C"/>
<path d="M1517.43 505.364C1517.43 493.833 1509.02 484.486 1508.67 484.486C1508.33 484.486 1499.92 493.833 1499.92 505.364C1499.92 516.895 1508.33 526.243 1508.67 526.243C1509.02 526.243 1517.43 516.895 1517.43 505.364Z" fill="#B66B3C"/>
<path d="M1493.31 488.302C1487.54 478.316 1475.58 474.426 1475.28 474.598C1474.99 474.771 1472.38 487.072 1478.14 497.058C1483.91 507.044 1495.86 510.934 1496.16 510.762C1496.46 510.589 1499.07 498.288 1493.31 488.302Z" fill="#B66B3C"/>
<path fill-rule="evenodd" clip-rule="evenodd" d="M1495 506.506L1532.38 571.25L1530.44 572.372L1493.06 507.629L1495 506.506Z" fill="#B66B3C"/>
</svg>
