<svg xmlns="http://www.w3.org/2000/svg" width="3.05in" height="2.81in" viewBox="0 0 219.62 202.59"><defs><style>.a{opacity:0.96;}.b{fill:#231f20;}.c{fill:#dd7a29;}.d{fill:#723f26;}.e{fill:#f9f3eb;}.f{fill:#f7dcc4;}.g{fill:none;stroke:#e4df4a;stroke-linecap:round;stroke-miterlimit:10;}</style></defs><g class="a"><path class="b" d="M120.3,24.72h-3.79V28h-.7V21h.7v3.14h3.79V21h.7v7h-.7Z"/><path class="b" d="M127.33,28h-.7V27a2,2,0,0,1-1.86,1,2.12,2.12,0,0,1-2.22-2.36V22.53h.69v3.11a1.6,1.6,0,0,0,1.66,1.83c1,0,1.73-.64,1.73-2v-3h.7Z"/><path class="b" d="M130.81,28.07c-1.24,0-2.11-.62-2.2-1.62h.72c.06.6.58,1,1.47,1s1.22-.42,1.22-.94c0-1.35-3.28-.56-3.28-2.61,0-.81.77-1.48,1.92-1.48a1.77,1.77,0,0,1,2,1.67H132a1.17,1.17,0,0,0-1.32-1.07c-.73,0-1.19.39-1.19.87,0,1.48,3.23.69,3.26,2.62C132.71,27.42,131.94,28.07,130.81,28.07Z"/><path class="b" d="M134,20.59h.7V25l2.2-2.44h1l-2.59,2.72L137.93,28h-1l-2.25-2.45V28H134Z"/><path class="b" d="M118.23,64.06h-2.42v-7h2.35c1.47,0,2.17.78,2.17,1.76a1.61,1.61,0,0,1-1.25,1.62,1.76,1.76,0,0,1,1.41,1.73C120.49,63.24,119.7,64.06,118.23,64.06Zm-.12-6.39h-1.6v2.5h1.63c1,0,1.48-.48,1.48-1.26S119.12,57.67,118.11,57.67Zm0,3.08h-1.64v2.72h1.67c1,0,1.61-.51,1.61-1.35S119.15,60.75,118.15,60.75Z"/><path class="b" d="M122.48,64.06h-.7V58.61h.7v1a1.88,1.88,0,0,1,1.87-1.07v.73h-.19c-.91,0-1.68.41-1.68,1.78Z"/><path class="b" d="M127.69,58.53a2.28,2.28,0,0,1,2.16,1.28v-1.2h.7v5.45h-.7V62.85a2.31,2.31,0,0,1-2.17,1.29,2.81,2.81,0,0,1,0-5.61Zm.13.61a2.2,2.2,0,0,0,0,4.39,2.2,2.2,0,0,0,0-4.39Z"/><path class="b" d="M136.24,61a1.6,1.6,0,0,0-1.66-1.83c-1,0-1.73.64-1.73,2v3h-.7V58.61h.7v.93a2,2,0,0,1,1.86-1,2.12,2.12,0,0,1,2.22,2.36v3.19h-.69Z"/><path class="b" d="M175.51,45.45c1.59-1.1,2.84-2.28,2.84-3.38a1,1,0,0,0-1.15-1.16,1.27,1.27,0,0,0-1.29,1.35h-.31a1.54,1.54,0,0,1,1.6-1.62,1.33,1.33,0,0,1,1.46,1.42c0,1.3-1.56,2.63-2.63,3.33h2.79v.27h-3.31Z"/><path class="b" d="M180.09,44.38a1.12,1.12,0,0,0,1.2,1.07c1,0,1.5-.66,1.44-2.5a1.44,1.44,0,0,1-1.5,1,1.53,1.53,0,0,1-1.62-1.69,1.5,1.5,0,0,1,1.62-1.63c1.47,0,1.78,1.1,1.78,2.46,0,1.61-.42,2.62-1.73,2.62a1.4,1.4,0,0,1-1.49-1.34Zm2.58-2a1.37,1.37,0,0,0-1.44-1.48,1.26,1.26,0,0,0-1.32,1.37,1.27,1.27,0,0,0,1.36,1.42A1.31,1.31,0,0,0,182.67,42.38Z"/><path class="b" d="M184.73,40.71a1,1,0,1,1-.93.95A.91.91,0,0,1,184.73,40.71Zm-.66.95a.67.67,0,1,0,1.33,0,.67.67,0,1,0-1.33,0Zm3.12-.9h.33l-2.92,4.92h-.32Zm-.12,3.08a1,1,0,1,1-.93.95A.9.9,0,0,1,187.07,43.84Zm-.67.95a.67.67,0,1,0,.67-.73A.66.66,0,0,0,186.4,44.79Z"/><path class="b" d="M193.8,43.48c0-.93-.51-1.41-1.27-1.41s-1.36.5-1.36,1.56v2h-.31v-3.8h.31v.8a1.43,1.43,0,0,1,1.4-.88,1.47,1.47,0,0,1,1.54,1.65v2.23h-.31Z"/><path class="b" d="M198.43,45.68h-.31v-.83a1.39,1.39,0,0,1-1.39.89,1.47,1.47,0,0,1-1.55-1.65V41.88h.31v2.19a1.22,1.22,0,0,0,1.28,1.4c.79,0,1.35-.5,1.35-1.55v-2h.31Z"/><path class="b" d="M199.73,42.15h-.57v-.27h.57v-1h.32v1h1.13v.27h-1.13v2.52c0,.57.19.73.7.73h.43v.28h-.48c-.65,0-1-.26-1-1Z"/><path class="b" d="M202.32,45.68H202v-3.8h.31v.78a1.33,1.33,0,0,1,1.41-.86v.33h-.1a1.21,1.21,0,0,0-1.31,1.36Z"/><path class="b" d="M204.35,40.76a.27.27,0,1,1,.54,0,.27.27,0,0,1-.54,0Zm.11,1.12h.31v3.8h-.31Z"/><path class="b" d="M207.58,45.74a1.81,1.81,0,0,1-1.85-2,1.79,1.79,0,0,1,1.85-2,1.66,1.66,0,0,1,1.77,1.69c0,.17,0,.26,0,.38h-3.28a1.47,1.47,0,0,0,1.52,1.56,1.33,1.33,0,0,0,1.42-1h.33A1.65,1.65,0,0,1,207.58,45.74Zm-1.52-2.1h3a1.38,1.38,0,0,0-1.46-1.54A1.46,1.46,0,0,0,206.06,43.64Z"/><path class="b" d="M213.25,43.48A1.24,1.24,0,0,0,212,42.07c-.79,0-1.35.5-1.35,1.56v2h-.32v-3.8h.32v.8a1.42,1.42,0,0,1,1.4-.88,1.46,1.46,0,0,1,1.53,1.65v2.23h-.3Z"/><path class="b" d="M214.82,42.15h-.57v-.27h.57v-1h.31v1h1.13v.27h-1.13v2.52c0,.57.19.73.7.73h.43v.28h-.47c-.66,0-1-.26-1-1Z"/><path class="b" d="M218.36,45.74c-.83,0-1.42-.38-1.49-1.08h.32c.05.48.45.8,1.17.8s.95-.35.95-.76c0-1.05-2.34-.44-2.34-1.88,0-.54.52-1,1.27-1A1.19,1.19,0,0,1,219.59,43h-.31a.92.92,0,0,0-1.05-.85c-.55,0-.94.32-.94.72,0,1.17,2.31.55,2.33,1.88A1.13,1.13,0,0,1,218.36,45.74Z"/><path class="b" d="M118.58,127.12v.28h-2.69v2a1.68,1.68,0,0,1,1.35-.61,1.49,1.49,0,0,1,1.61,1.61,1.68,1.68,0,0,1-3.34.34h.31a1.38,1.38,0,0,0,2.73-.33,1.22,1.22,0,0,0-1.34-1.34,1.44,1.44,0,0,0-1.32.73h-.3v-2.69Z"/><path class="b" d="M120.49,127.13a1,1,0,1,1-.94,1A.9.9,0,0,1,120.49,127.13Zm-.67,1a.67.67,0,1,0,1.33,0,.67.67,0,1,0-1.33,0Zm3.12-.89h.33l-2.92,4.91H120Zm-.11,3.07a1,1,0,1,1-.94,1A.9.9,0,0,1,122.83,130.26Zm-.68,1a.67.67,0,1,0,1.34,0,.67.67,0,1,0-1.34,0Z"/><path class="b" d="M129.55,129.9c0-.93-.51-1.41-1.27-1.41s-1.35.5-1.35,1.56v2h-.32v-3.8h.32v.8a1.42,1.42,0,0,1,1.4-.88,1.47,1.47,0,0,1,1.53,1.65v2.23h-.31Z"/><path class="b" d="M134.19,132.1h-.32v-.83a1.39,1.39,0,0,1-1.39.89,1.47,1.47,0,0,1-1.54-1.65V128.3h.3v2.19a1.23,1.23,0,0,0,1.28,1.4c.79,0,1.35-.5,1.35-1.55v-2h.32Z"/><path class="b" d="M135.49,128.57h-.58v-.27h.58v-1h.31v1h1.13v.27H135.8v2.52c0,.57.19.73.7.73h.43v.28h-.48c-.65,0-1-.26-1-1Z"/><path class="b" d="M138.08,132.1h-.32v-3.8h.32v.78a1.32,1.32,0,0,1,1.4-.86v.33h-.1a1.21,1.21,0,0,0-1.3,1.36Z"/><path class="b" d="M140.11,127.18a.27.27,0,1,1,.53,0,.27.27,0,1,1-.53,0Zm.1,1.12h.32v3.8h-.32Z"/><path class="b" d="M143.33,132.16a1.81,1.81,0,0,1-1.85-2,1.79,1.79,0,0,1,1.85-1.95,1.67,1.67,0,0,1,1.78,1.69,2.12,2.12,0,0,1,0,.38h-3.28a1.47,1.47,0,0,0,1.52,1.56,1.33,1.33,0,0,0,1.42-1h.33A1.65,1.65,0,0,1,143.33,132.16Zm-1.52-2.1h3a1.38,1.38,0,0,0-1.46-1.54A1.46,1.46,0,0,0,141.81,130.06Z"/><path class="b" d="M149,129.9a1.23,1.23,0,0,0-1.28-1.41c-.79,0-1.35.5-1.35,1.56v2h-.31v-3.8h.31v.8a1.43,1.43,0,0,1,1.4-.88,1.47,1.47,0,0,1,1.54,1.65v2.23H149Z"/><path class="b" d="M150.57,128.57H150v-.27h.57v-1h.32v1H152v.27h-1.12v2.52c0,.57.19.73.7.73H152v.28h-.47c-.65,0-1-.26-1-1Z"/><path class="b" d="M154.11,132.16c-.83,0-1.42-.38-1.49-1.08h.32c.05.48.45.8,1.17.8s.95-.35.95-.76c0-1.05-2.33-.44-2.33-1.88a1.13,1.13,0,0,1,1.26-1,1.21,1.21,0,0,1,1.36,1.12H155a.92.92,0,0,0-1.05-.85c-.55,0-.94.32-.94.72,0,1.17,2.31.55,2.33,1.88A1.13,1.13,0,0,1,154.11,132.16Z"/><path class="b" d="M118.45,198.8a1.11,1.11,0,0,0-1.18-1.06c-1,0-1.54.68-1.47,2.53a1.47,1.47,0,0,1,1.53-1.05,1.53,1.53,0,0,1,1.61,1.7,1.51,1.51,0,0,1-1.61,1.64c-1.52,0-1.82-1.14-1.82-2.48,0-1.59.47-2.6,1.76-2.6a1.39,1.39,0,0,1,1.48,1.32Zm-2.6,2a1.39,1.39,0,0,0,1.47,1.49,1.25,1.25,0,0,0,1.31-1.37,1.27,1.27,0,0,0-1.35-1.43A1.33,1.33,0,0,0,115.85,200.81Z"/><path class="b" d="M122.8,198.8a1.11,1.11,0,0,0-1.18-1.06c-1,0-1.54.68-1.48,2.53a1.48,1.48,0,0,1,1.54-1.05,1.53,1.53,0,0,1,1.61,1.7,1.51,1.51,0,0,1-1.61,1.64c-1.52,0-1.82-1.14-1.82-2.48,0-1.59.46-2.6,1.76-2.6a1.4,1.4,0,0,1,1.48,1.32Zm-2.6,2a1.38,1.38,0,0,0,1.46,1.49,1.4,1.4,0,0,0,0-2.8A1.33,1.33,0,0,0,120.2,200.81Z"/><path class="b" d="M125,197.56a1,1,0,1,1-.94.95A.9.9,0,0,1,125,197.56Zm-.67.95a.67.67,0,1,0,.67-.74A.66.66,0,0,0,124.28,198.51Zm3.12-.9h.33l-2.92,4.92h-.32Zm-.12,3.08a1,1,0,1,1-.93.95A.91.91,0,0,1,127.28,200.69Zm-.67.95a.67.67,0,1,0,.67-.74A.67.67,0,0,0,126.61,201.64Z"/><path class="b" d="M134,200.32a1.23,1.23,0,0,0-1.27-1.4c-.79,0-1.35.5-1.35,1.56v2.05h-.32v-3.81h.32v.81a1.4,1.4,0,0,1,1.4-.88,1.47,1.47,0,0,1,1.53,1.65v2.23H134Z"/><path class="b" d="M138.65,202.53h-.32v-.83a1.39,1.39,0,0,1-1.39.89,1.47,1.47,0,0,1-1.54-1.65v-2.22h.3v2.2a1.23,1.23,0,0,0,1.28,1.4c.79,0,1.35-.5,1.35-1.56v-2h.32Z"/><path class="b" d="M140,199h-.58v-.28H140v-1h.31v1h1.13V199h-1.13v2.51c0,.58.19.74.7.74h.43v.28h-.48c-.65,0-1-.27-1-1Z"/><path class="b" d="M142.54,202.53h-.32v-3.81h.32v.79a1.31,1.31,0,0,1,1.4-.86V199h-.1a1.21,1.21,0,0,0-1.3,1.36Z"/><path class="b" d="M144.57,197.6a.25.25,0,0,1,.26-.27.28.28,0,0,1,0,.55A.26.26,0,0,1,144.57,197.6Zm.1,1.12H145v3.81h-.32Z"/><path class="b" d="M147.79,202.58a1.81,1.81,0,0,1-1.85-2,1.78,1.78,0,0,1,1.85-1.94,1.66,1.66,0,0,1,1.77,1.69c0,.17,0,.25,0,.38h-3.28a1.47,1.47,0,0,0,1.52,1.56,1.33,1.33,0,0,0,1.42-1h.33A1.64,1.64,0,0,1,147.79,202.58Zm-1.52-2.09h3a1.39,1.39,0,0,0-1.46-1.55A1.47,1.47,0,0,0,146.27,200.49Z"/><path class="b" d="M153.46,200.32a1.23,1.23,0,0,0-1.28-1.4c-.79,0-1.35.5-1.35,1.56v2.05h-.31v-3.81h.31v.81a1.4,1.4,0,0,1,1.4-.88,1.47,1.47,0,0,1,1.54,1.65v2.23h-.31Z"/><path class="b" d="M155,199h-.57v-.28H155v-1h.32v1h1.12V199h-1.12v2.51c0,.58.18.74.7.74h.42v.28H156c-.65,0-1-.27-1-1Z"/><path class="b" d="M158.57,202.58c-.83,0-1.42-.37-1.49-1.07h.32c0,.48.45.8,1.17.8s1-.35,1-.76c0-1.05-2.33-.44-2.33-1.89,0-.53.51-1,1.26-1a1.21,1.21,0,0,1,1.36,1.12h-.32a.93.93,0,0,0-1.05-.86c-.55,0-.94.33-.94.72,0,1.18,2.31.56,2.33,1.89A1.13,1.13,0,0,1,158.57,202.58Z"/><path class="b" d="M122.13,184.12h-.82a2.46,2.46,0,0,0-2.36-1.48,2.94,2.94,0,0,0,0,5.86,2.58,2.58,0,0,0,2.66-2.58h-2.94v-.56h3.68v.5a3.36,3.36,0,0,1-3.4,3.27,3.57,3.57,0,0,1,0-7.13A3.24,3.24,0,0,1,122.13,184.12Z"/><path class="b" d="M126,189.14a2.81,2.81,0,0,1,0-5.61,2.45,2.45,0,0,1,2.58,2.52,4.79,4.79,0,0,1,0,.55H124a1.91,1.91,0,0,0,2,2,1.69,1.69,0,0,0,1.76-1.22h.74A2.4,2.4,0,0,1,126,189.14ZM124,186h3.84a1.78,1.78,0,0,0-1.9-1.9A1.88,1.88,0,0,0,124,186Z"/><path class="b" d="M130.55,189.06h-.7v-5.45h.7v1a1.88,1.88,0,0,1,1.87-1.07v.73h-.19c-.91,0-1.68.41-1.68,1.77Z"/><path class="b" d="M141.45,185.94c0-1.2-.63-1.82-1.6-1.82s-1.69.66-1.69,2v3h-.69v-3.12c0-1.2-.64-1.82-1.61-1.82s-1.69.66-1.69,2v3h-.7v-5.45h.7v.94a2,2,0,0,1,1.81-1,2,2,0,0,1,2,1.34,2,2,0,0,1,2-1.34,2.09,2.09,0,0,1,2.17,2.35v3.2h-.69Z"/><path class="c" d="M49.52,12.35C86.44,12.35,99,51.91,99,100.71s-12.6,88.35-48.52,88.35C14.44,189.06,0,149.5,0,100.71S14.44,12.35,49.52,12.35Z"/><path class="d" d="M49.52,20.92c33.34,0,45.69,35.72,45.69,79.79s-12.35,79.78-44.78,79.78c-32.59,0-46.6-35.72-46.6-79.78S17.84,20.92,49.52,20.92Z"/><path class="e" d="M49.52,25.71c30.11,0,42.24,33.57,42.24,75s-12.13,75-41.42,75-43.05-33.58-43.05-75S20.91,25.71,49.52,25.71Z"/><path class="c" d="M31.67,16.82l18.18-.08,17.53.08C58.77,12,53.4,6.67,50.74,1a1.71,1.71,0,0,0-3.08,0C45,6.67,39.63,12,31.67,16.82Z"/><path class="f" d="M73.35,135.14c7.11,4.31,6.92,15,1.2,24.43s-16.08,13.39-23,9.2S46,155,51.74,145.51,66.59,131.05,73.35,135.14Z"/><line class="g" x1="65.48" y1="152.07" x2="112.57" y2="184.98"/><path class="b" d="M115.27,111.65H116l1.6,6.13,1.79-6.13h.78l1.74,6.13,1.61-6.13h.75l-2,7h-.78l-1.76-6-1.8,6h-.76Z"/><path class="b" d="M125.36,111.24h.7v2.87a2.06,2.06,0,0,1,1.9-1,2.11,2.11,0,0,1,2.18,2.36v3.2h-.69v-3.12a1.6,1.6,0,0,0-1.66-1.83c-1,0-1.73.64-1.73,2v3h-.7Z"/><path class="b" d="M131.53,111.63a.51.51,0,1,1,1,0,.51.51,0,1,1-1,0Zm.16,1.55h.7v5.46h-.7Z"/><path class="b" d="M134.18,113.77h-.76v-.59h.76v-1.37h.71v1.37h1.5v.59h-1.5v3.39c0,.67.23.88.86.88h.64v.6h-.75c-.95,0-1.46-.39-1.46-1.48Z"/><path class="b" d="M139.9,118.72a2.81,2.81,0,0,1,0-5.62,2.45,2.45,0,0,1,2.58,2.53,4.79,4.79,0,0,1,0,.55h-4.53a1.91,1.91,0,0,0,2,1.95,1.69,1.69,0,0,0,1.76-1.22h.74A2.4,2.4,0,0,1,139.9,118.72Zm-2-3.11h3.84a1.79,1.79,0,0,0-1.9-1.91A1.89,1.89,0,0,0,137.93,115.61Z"/><path class="b" d="M147.2,118.64h-.7v-5.46h.7v1a1.88,1.88,0,0,1,1.87-1.07v.73h-.19c-.91,0-1.68.41-1.68,1.78Z"/><path class="b" d="M150,111.63a.51.51,0,0,1,1,0,.51.51,0,1,1-1,0Zm.16,1.55h.7v5.46h-.7Z"/><path class="b" d="M154.74,113.1a2.36,2.36,0,0,1,2.51,1.86h-.75a1.66,1.66,0,0,0-1.76-1.26,2.23,2.23,0,0,0,0,4.43,1.66,1.66,0,0,0,1.76-1.27h.75a2.39,2.39,0,0,1-2.51,1.86,2.81,2.81,0,0,1,0-5.62Z"/><path class="b" d="M160.9,118.72a2.81,2.81,0,0,1,0-5.62,2.45,2.45,0,0,1,2.58,2.53,4.79,4.79,0,0,1,0,.55h-4.53a1.91,1.91,0,0,0,2,1.95,1.69,1.69,0,0,0,1.76-1.22h.74A2.4,2.4,0,0,1,160.9,118.72Zm-2-3.11h3.84a1.79,1.79,0,0,0-1.9-1.91A1.89,1.89,0,0,0,158.93,115.61Z"/><line class="g" x1="82.91" y1="36.85" x2="111.47" y2="25.47"/><line class="g" x1="89.94" y1="65.59" x2="110.73" y2="62.53"/><line class="g" x1="63.95" y1="106.82" x2="110.73" y2="115.12"/><polyline class="g" points="144.82 25.71 166.68 25.71 166.68 60.78 144.82 60.78"/></g></svg>