<svg width="968" height="447" viewBox="0 0 968 447" fill="none" xmlns="http://www.w3.org/2000/svg">
<path d="M372.838 221.399C372.838 225.178 370.228 228.987 364.999 232.623C359.798 236.24 352.208 239.537 342.739 242.322C323.813 247.888 297.609 251.345 268.622 251.345C239.635 251.345 213.431 247.888 194.505 242.322C185.036 239.537 177.446 236.24 172.246 232.623C167.016 228.987 164.406 225.178 164.406 221.399C164.406 217.62 167.016 213.811 172.246 210.174C177.446 206.558 185.036 203.261 194.505 200.476C213.431 194.91 239.635 191.453 268.622 191.453C297.609 191.453 323.813 194.91 342.739 200.476C352.208 203.261 359.798 206.558 364.999 210.174C370.228 213.811 372.838 217.62 372.838 221.399Z" stroke="#336A41" stroke-width="2"/>
<path d="M363.554 221.397C363.554 225.218 361.153 229.029 356.408 232.647C351.679 236.254 344.773 239.545 336.149 242.327C318.912 247.887 295.038 251.343 268.622 251.343C242.205 251.343 218.331 247.887 201.094 242.327C192.47 239.545 185.564 236.254 180.835 232.647C176.09 229.029 173.689 225.218 173.689 221.397C173.689 217.576 176.09 213.765 180.835 210.147C185.564 206.54 192.47 203.249 201.094 200.467C218.331 194.907 242.205 191.451 268.622 191.451C295.038 191.451 318.912 194.907 336.149 200.467C344.773 203.249 351.679 206.54 356.408 210.147C361.153 213.765 363.554 217.576 363.554 221.397Z" stroke="#906B42" stroke-width="2"/>
<path d="M360.46 221.397C360.46 225.232 358.129 229.045 353.546 232.657C348.973 236.261 342.294 239.55 333.952 242.33C317.279 247.888 294.181 251.343 268.623 251.343C243.064 251.343 219.966 247.888 203.293 242.33C194.951 239.55 188.272 236.261 183.7 232.657C179.116 229.045 176.785 225.232 176.785 221.397C176.785 217.562 179.116 213.749 183.7 210.137C188.272 206.533 194.951 203.244 203.293 200.464C219.966 194.906 243.064 191.451 268.623 191.451C294.181 191.451 317.279 194.906 333.952 200.464C342.294 203.244 348.973 206.533 353.546 210.137C358.129 213.749 360.46 217.562 360.46 221.397Z" stroke="#DE7B29" stroke-width="2"/>
<path d="M254.554 160.646H257.746V162.48H252.16V152.582H254.554V160.646ZM262.499 154.57C263.274 154.57 263.964 154.734 264.571 155.06C265.187 155.378 265.668 155.84 266.013 156.446C266.368 157.053 266.545 157.762 266.545 158.574C266.545 159.386 266.368 160.096 266.013 160.702C265.668 161.309 265.187 161.776 264.571 162.102C263.964 162.42 263.274 162.578 262.499 162.578C261.724 162.578 261.029 162.42 260.413 162.102C259.797 161.776 259.312 161.309 258.957 160.702C258.612 160.096 258.439 159.386 258.439 158.574C258.439 157.762 258.612 157.053 258.957 156.446C259.312 155.84 259.797 155.378 260.413 155.06C261.029 154.734 261.724 154.57 262.499 154.57ZM262.499 156.642C262.042 156.642 261.654 156.81 261.337 157.146C261.029 157.473 260.875 157.949 260.875 158.574C260.875 159.2 261.029 159.676 261.337 160.002C261.654 160.329 262.042 160.492 262.499 160.492C262.956 160.492 263.339 160.329 263.647 160.002C263.955 159.676 264.109 159.2 264.109 158.574C264.109 157.949 263.955 157.473 263.647 157.146C263.339 156.81 262.956 156.642 262.499 156.642ZM272.742 154.584C273.638 154.584 274.348 154.883 274.87 155.48C275.402 156.078 275.668 156.899 275.668 157.944V162.48H273.274V158.224C273.274 157.702 273.134 157.296 272.854 157.006C272.584 156.708 272.22 156.558 271.762 156.558C271.277 156.558 270.89 156.712 270.6 157.02C270.32 157.328 270.18 157.767 270.18 158.336V162.48H267.786V154.668H270.18V156.096C270.404 155.63 270.736 155.261 271.174 154.99C271.622 154.72 272.145 154.584 272.742 154.584ZM280.215 154.57C280.813 154.57 281.326 154.706 281.755 154.976C282.185 155.247 282.502 155.616 282.707 156.082V154.668H285.087V162.438C285.087 163.166 284.947 163.82 284.667 164.398C284.387 164.986 283.958 165.453 283.379 165.798C282.801 166.144 282.082 166.316 281.223 166.316C280.047 166.316 279.105 166.036 278.395 165.476C277.695 164.926 277.275 164.174 277.135 163.222H279.501C279.576 163.54 279.744 163.787 280.005 163.964C280.276 164.142 280.626 164.23 281.055 164.23C281.55 164.23 281.947 164.086 282.245 163.796C282.553 163.516 282.707 163.064 282.707 162.438V161.066C282.502 161.533 282.185 161.902 281.755 162.172C281.326 162.443 280.813 162.578 280.215 162.578C279.571 162.578 278.993 162.42 278.479 162.102C277.975 161.776 277.574 161.309 277.275 160.702C276.986 160.096 276.841 159.386 276.841 158.574C276.841 157.753 276.986 157.044 277.275 156.446C277.574 155.84 277.975 155.378 278.479 155.06C278.993 154.734 279.571 154.57 280.215 154.57ZM280.985 156.67C280.472 156.67 280.057 156.838 279.739 157.174C279.431 157.51 279.277 157.977 279.277 158.574C279.277 159.172 279.431 159.638 279.739 159.974C280.057 160.31 280.472 160.478 280.985 160.478C281.489 160.478 281.9 160.306 282.217 159.96C282.544 159.615 282.707 159.153 282.707 158.574C282.707 157.986 282.544 157.524 282.217 157.188C281.9 156.843 281.489 156.67 280.985 156.67Z" fill="#4F4F4F"/>
<rect x="0.271484" y="284.943" width="967.435" height="40.6247" fill="#E0D7CC"/>
<path d="M243.14 302.04C243.775 302.04 244.321 302.152 244.778 302.376C245.235 302.6 245.581 302.908 245.814 303.3C246.047 303.692 246.164 304.135 246.164 304.63C246.164 305.246 245.982 305.764 245.618 306.184C245.263 306.604 244.741 306.856 244.05 306.94V307.024C244.769 307.21 245.329 307.5 245.73 307.892C246.141 308.284 246.346 308.825 246.346 309.516C246.346 310.328 246.075 310.99 245.534 311.504C244.993 312.017 244.213 312.274 243.196 312.274C242.179 312.274 241.353 312.012 240.718 311.49C240.093 310.958 239.724 310.183 239.612 309.166H240.872C240.956 309.782 241.189 310.272 241.572 310.636C241.964 311 242.491 311.182 243.154 311.182C243.779 311.182 244.26 311.023 244.596 310.706C244.932 310.379 245.1 309.959 245.1 309.446C245.1 308.83 244.857 308.363 244.372 308.046C243.896 307.719 243.215 307.556 242.328 307.556H241.992V306.492H242.328C244.045 306.492 244.904 305.918 244.904 304.77C244.904 304.266 244.745 303.864 244.428 303.566C244.111 303.267 243.672 303.118 243.112 303.118C242.552 303.118 242.081 303.281 241.698 303.608C241.315 303.925 241.091 304.396 241.026 305.022H239.78C239.845 304.088 240.167 303.36 240.746 302.838C241.334 302.306 242.132 302.04 243.14 302.04ZM250.558 310.678V312.176H249.018V310.678H250.558ZM252.825 309.908V308.844L257.893 302.236H259.265V308.802H260.721V309.908H259.265V312.176H257.977V309.908H252.825ZM258.061 303.79L254.169 308.802H258.061V303.79ZM269.459 304.63V306.128H267.919V304.63H269.459ZM269.459 310.678V312.176H267.919V310.678H269.459ZM276.452 303.496V302.306H279.28V312.176H277.936V303.496H276.452Z" fill="#4F4F4F"/>
<path d="M514.221 311.196C515.807 310.132 517.077 309.077 518.029 308.032C518.981 306.977 519.457 305.997 519.457 305.092C519.457 304.532 519.312 304.084 519.023 303.748C518.743 303.402 518.285 303.23 517.651 303.23C516.997 303.23 516.503 303.44 516.167 303.86C515.831 304.27 515.644 304.84 515.607 305.568H514.347C514.412 304.466 514.753 303.622 515.369 303.034C515.985 302.436 516.778 302.138 517.749 302.138C518.673 302.138 519.405 302.385 519.947 302.88C520.488 303.374 520.759 304.074 520.759 304.98C520.759 305.726 520.516 306.487 520.031 307.262C519.555 308.027 518.953 308.741 518.225 309.404C517.506 310.057 516.764 310.612 515.999 311.07H521.011V312.12H514.221V311.196ZM524.936 310.678V312.176H523.396V310.678H524.936ZM527.763 304.63C527.763 304.144 527.893 303.701 528.155 303.3C528.416 302.898 528.803 302.581 529.317 302.348C529.83 302.114 530.441 301.998 531.151 301.998C531.86 301.998 532.467 302.114 532.971 302.348C533.484 302.581 533.871 302.898 534.133 303.3C534.394 303.701 534.525 304.144 534.525 304.63C534.525 305.18 534.375 305.656 534.077 306.058C533.778 306.459 533.325 306.744 532.719 306.912C533.372 307.089 533.881 307.397 534.245 307.836C534.609 308.274 534.791 308.816 534.791 309.46C534.791 310.393 534.459 311.126 533.797 311.658C533.134 312.19 532.252 312.456 531.151 312.456C530.049 312.456 529.167 312.19 528.505 311.658C527.842 311.126 527.511 310.393 527.511 309.46C527.511 308.816 527.688 308.274 528.043 307.836C528.407 307.397 528.915 307.089 529.569 306.912C528.962 306.744 528.509 306.459 528.211 306.058C527.912 305.656 527.763 305.18 527.763 304.63ZM529.023 304.812C529.023 305.372 529.214 305.806 529.597 306.114C529.979 306.412 530.497 306.562 531.151 306.562C531.804 306.562 532.317 306.412 532.691 306.114C533.073 305.806 533.265 305.372 533.265 304.812C533.265 304.252 533.073 303.822 532.691 303.524C532.308 303.216 531.795 303.062 531.151 303.062C530.507 303.062 529.989 303.216 529.597 303.524C529.214 303.822 529.023 304.252 529.023 304.812ZM528.757 309.39C528.757 310.024 528.971 310.519 529.401 310.874C529.83 311.219 530.413 311.392 531.151 311.392C531.879 311.392 532.457 311.214 532.887 310.86C533.316 310.505 533.531 310.015 533.531 309.39C533.531 308.755 533.307 308.274 532.859 307.948C532.411 307.621 531.841 307.458 531.151 307.458C530.451 307.458 529.877 307.621 529.429 307.948C528.981 308.274 528.757 308.755 528.757 309.39ZM543.905 304.63V306.128H542.365V304.63H543.905ZM543.905 310.678V312.176H542.365V310.678H543.905ZM550.898 303.496V302.306H553.726V312.176H552.382V303.496H550.898Z" fill="#4F4F4F"/>
<path d="M752.05 311.196C753.636 310.132 754.906 309.077 755.858 308.032C756.81 306.977 757.286 305.997 757.286 305.092C757.286 304.532 757.141 304.084 756.852 303.748C756.572 303.402 756.114 303.23 755.48 303.23C754.826 303.23 754.332 303.44 753.996 303.86C753.66 304.27 753.473 304.84 753.436 305.568H752.176C752.241 304.466 752.582 303.622 753.198 303.034C753.814 302.436 754.607 302.138 755.578 302.138C756.502 302.138 757.234 302.385 757.776 302.88C758.317 303.374 758.588 304.074 758.588 304.98C758.588 305.726 758.345 306.487 757.86 307.262C757.384 308.027 756.782 308.741 756.054 309.404C755.335 310.057 754.593 310.612 753.828 311.07H758.84V312.12H752.05V311.196ZM762.765 310.678V312.176H761.225V310.678H762.765ZM765.186 311.196C766.772 310.132 768.042 309.077 768.994 308.032C769.946 306.977 770.422 305.997 770.422 305.092C770.422 304.532 770.277 304.084 769.988 303.748C769.708 303.402 769.25 303.23 768.616 303.23C767.962 303.23 767.468 303.44 767.132 303.86C766.796 304.27 766.609 304.84 766.572 305.568H765.312C765.377 304.466 765.718 303.622 766.334 303.034C766.95 302.436 767.743 302.138 768.714 302.138C769.638 302.138 770.37 302.385 770.912 302.88C771.453 303.374 771.724 304.074 771.724 304.98C771.724 305.726 771.481 306.487 770.996 307.262C770.52 308.027 769.918 308.741 769.19 309.404C768.471 310.057 767.729 310.612 766.964 311.07H771.976V312.12H765.186V311.196ZM780.928 304.63V306.128H779.388V304.63H780.928ZM780.928 310.678V312.176H779.388V310.678H780.928ZM787.921 303.496V302.306H790.749V312.176H789.405V303.496H787.921Z" fill="#4F4F4F"/>
<rect x="0.935547" y="284.943" width="115.815" height="40.6247" fill="#336A41"/>
<path d="M24.2379 308.2V312.176H22.9639V302.306H26.0999C27.2293 302.306 28.0739 302.572 28.6339 303.104C29.1939 303.626 29.4739 304.345 29.4739 305.26C29.4739 306.184 29.1846 306.907 28.6059 307.43C28.0273 307.943 27.1919 308.2 26.0999 308.2H24.2379ZM25.9879 307.136C26.7626 307.136 27.3179 306.972 27.6539 306.646C27.9993 306.319 28.1719 305.857 28.1719 305.26C28.1719 304.644 27.9993 304.177 27.6539 303.86C27.3179 303.533 26.7626 303.37 25.9879 303.37H24.2379V307.136H25.9879ZM34.112 304.392C34.8587 304.392 35.4887 304.578 36.002 304.952C36.5247 305.325 36.8887 305.824 37.094 306.45V304.49H38.368V312.176H37.094V310.216C36.8887 310.841 36.5247 311.34 36.002 311.714C35.4887 312.087 34.8587 312.274 34.112 312.274C33.4307 312.274 32.824 312.115 32.292 311.798C31.76 311.48 31.34 311.028 31.032 310.44C30.7333 309.842 30.584 309.142 30.584 308.34C30.584 307.537 30.7333 306.837 31.032 306.24C31.34 305.642 31.76 305.185 32.292 304.868C32.824 304.55 33.4307 304.392 34.112 304.392ZM34.476 305.526C33.692 305.526 33.062 305.778 32.586 306.282C32.1193 306.776 31.886 307.462 31.886 308.34C31.886 309.217 32.1193 309.908 32.586 310.412C33.062 310.906 33.692 311.154 34.476 311.154C34.98 311.154 35.428 311.037 35.82 310.804C36.2213 310.57 36.534 310.244 36.758 309.824C36.982 309.394 37.094 308.9 37.094 308.34C37.094 307.78 36.982 307.285 36.758 306.856C36.534 306.426 36.2213 306.1 35.82 305.876C35.428 305.642 34.98 305.526 34.476 305.526ZM43.5456 304.392C44.2922 304.392 44.9222 304.578 45.4356 304.952C45.9582 305.325 46.3222 305.824 46.5276 306.45V301.816H47.8016V312.176H46.5276V310.216C46.3222 310.841 45.9582 311.34 45.4356 311.714C44.9222 312.087 44.2922 312.274 43.5456 312.274C42.8642 312.274 42.2576 312.115 41.7256 311.798C41.1936 311.48 40.7736 311.028 40.4656 310.44C40.1669 309.842 40.0176 309.142 40.0176 308.34C40.0176 307.537 40.1669 306.837 40.4656 306.24C40.7736 305.642 41.1936 305.185 41.7256 304.868C42.2576 304.55 42.8642 304.392 43.5456 304.392ZM43.9096 305.526C43.1256 305.526 42.4956 305.778 42.0196 306.282C41.5529 306.776 41.3196 307.462 41.3196 308.34C41.3196 309.217 41.5529 309.908 42.0196 310.412C42.4956 310.906 43.1256 311.154 43.9096 311.154C44.4136 311.154 44.8616 311.037 45.2536 310.804C45.6549 310.57 45.9676 310.244 46.1916 309.824C46.4156 309.394 46.5276 308.9 46.5276 308.34C46.5276 307.78 46.4156 307.285 46.1916 306.856C45.9676 306.426 45.6549 306.1 45.2536 305.876C44.8616 305.642 44.4136 305.526 43.9096 305.526ZM52.9792 304.392C53.7258 304.392 54.3558 304.578 54.8692 304.952C55.3918 305.325 55.7558 305.824 55.9612 306.45V301.816H57.2352V312.176H55.9612V310.216C55.7558 310.841 55.3918 311.34 54.8692 311.714C54.3558 312.087 53.7258 312.274 52.9792 312.274C52.2978 312.274 51.6912 312.115 51.1592 311.798C50.6272 311.48 50.2072 311.028 49.8992 310.44C49.6005 309.842 49.4512 309.142 49.4512 308.34C49.4512 307.537 49.6005 306.837 49.8992 306.24C50.2072 305.642 50.6272 305.185 51.1592 304.868C51.6912 304.55 52.2978 304.392 52.9792 304.392ZM53.3432 305.526C52.5592 305.526 51.9292 305.778 51.4532 306.282C50.9865 306.776 50.7532 307.462 50.7532 308.34C50.7532 309.217 50.9865 309.908 51.4532 310.412C51.9292 310.906 52.5592 311.154 53.3432 311.154C53.8472 311.154 54.2952 311.037 54.6872 310.804C55.0885 310.57 55.4012 310.244 55.6252 309.824C55.8492 309.394 55.9612 308.9 55.9612 308.34C55.9612 307.78 55.8492 307.285 55.6252 306.856C55.4012 306.426 55.0885 306.1 54.6872 305.876C54.2952 305.642 53.8472 305.526 53.3432 305.526ZM59.7948 304.49L62.2868 310.538L64.5968 304.49H66.0108L61.4468 315.816H60.0048L61.6008 312.05L58.3668 304.49H59.7948ZM71.9118 306.044C72.1638 305.512 72.5324 305.101 73.0178 304.812C73.5031 304.513 74.0818 304.364 74.7538 304.364V305.75H74.3618C73.6431 305.75 73.0551 305.936 72.5978 306.31C72.1404 306.674 71.9118 307.28 71.9118 308.13V312.176H70.6378V304.49H71.9118V306.044ZM75.7868 302.236C75.7868 302.002 75.8661 301.816 76.0248 301.676C76.1835 301.526 76.3935 301.452 76.6548 301.452C76.9161 301.452 77.1261 301.526 77.2848 301.676C77.4435 301.816 77.5228 302.002 77.5228 302.236C77.5228 302.469 77.4435 302.66 77.2848 302.81C77.1261 302.95 76.9161 303.02 76.6548 303.02C76.3935 303.02 76.1835 302.95 76.0248 302.81C75.8661 302.66 75.7868 302.469 75.7868 302.236ZM77.2848 304.49V312.176H76.0108V304.49H77.2848ZM82.7351 304.392C83.7151 304.392 84.5271 304.653 85.1711 305.176C85.8151 305.698 86.2117 306.398 86.3611 307.276H85.0171C84.9237 306.725 84.6671 306.296 84.2471 305.988C83.8364 305.67 83.3231 305.512 82.7071 305.512C82.2591 305.512 81.8484 305.614 81.4751 305.82C81.1111 306.025 80.8171 306.342 80.5931 306.772C80.3691 307.192 80.2571 307.714 80.2571 308.34C80.2571 308.965 80.3691 309.492 80.5931 309.922C80.8171 310.342 81.1111 310.654 81.4751 310.86C81.8484 311.065 82.2591 311.168 82.7071 311.168C83.3231 311.168 83.8364 311.009 84.2471 310.692C84.6671 310.374 84.9237 309.94 85.0171 309.39H86.3611C86.2117 310.276 85.8151 310.981 85.1711 311.504C84.5271 312.017 83.7151 312.274 82.7351 312.274C81.9977 312.274 81.3444 312.115 80.7751 311.798C80.2057 311.48 79.7577 311.028 79.4311 310.44C79.1137 309.842 78.9551 309.142 78.9551 308.34C78.9551 307.537 79.1137 306.837 79.4311 306.24C79.7577 305.642 80.2057 305.185 80.7751 304.868C81.3444 304.55 81.9977 304.392 82.7351 304.392ZM95.0984 307.906C95.0984 308.176 95.0797 308.41 95.0424 308.606H88.8964C88.9244 309.483 89.1717 310.141 89.6384 310.58C90.1144 311.018 90.6931 311.238 91.3744 311.238C91.9904 311.238 92.5037 311.084 92.9144 310.776C93.3344 310.458 93.5911 310.038 93.6844 309.516H95.0424C94.9491 310.048 94.7391 310.524 94.4124 310.944C94.0951 311.364 93.6797 311.69 93.1664 311.924C92.6531 312.157 92.0744 312.274 91.4304 312.274C90.6931 312.274 90.0397 312.115 89.4704 311.798C88.9011 311.48 88.4531 311.028 88.1264 310.44C87.8091 309.842 87.6504 309.142 87.6504 308.34C87.6504 307.537 87.8091 306.837 88.1264 306.24C88.4531 305.642 88.9011 305.185 89.4704 304.868C90.0397 304.55 90.6931 304.392 91.4304 304.392C92.1771 304.392 92.8257 304.55 93.3764 304.868C93.9364 305.185 94.3611 305.61 94.6504 306.142C94.9491 306.674 95.0984 307.262 95.0984 307.906ZM93.8104 307.99C93.8384 307.42 93.7451 306.944 93.5304 306.562C93.3157 306.179 93.0217 305.894 92.6484 305.708C92.2751 305.521 91.8691 305.428 91.4304 305.428C90.7304 305.428 90.1424 305.647 89.6664 306.086C89.1904 306.515 88.9337 307.15 88.8964 307.99H93.8104Z" fill="white"/>
<rect x="0.271484" y="345.568" width="967.435" height="40.6247" fill="#E0D7CC"/>
<path d="M248.471 362.665C249.105 362.665 249.651 362.777 250.109 363.001C250.566 363.225 250.911 363.533 251.145 363.925C251.378 364.317 251.495 364.76 251.495 365.255C251.495 365.871 251.313 366.389 250.949 366.809C250.594 367.229 250.071 367.481 249.381 367.565V367.649C250.099 367.835 250.659 368.125 251.061 368.517C251.471 368.909 251.677 369.45 251.677 370.141C251.677 370.953 251.406 371.615 250.865 372.129C250.323 372.642 249.544 372.899 248.527 372.899C247.509 372.899 246.683 372.637 246.049 372.115C245.423 371.583 245.055 370.808 244.943 369.791H246.203C246.287 370.407 246.52 370.897 246.903 371.261C247.295 371.625 247.822 371.807 248.485 371.807C249.11 371.807 249.591 371.648 249.927 371.331C250.263 371.004 250.431 370.584 250.431 370.071C250.431 369.455 250.188 368.988 249.703 368.671C249.227 368.344 248.545 368.181 247.659 368.181H247.323V367.117H247.659C249.376 367.117 250.235 366.543 250.235 365.395C250.235 364.891 250.076 364.489 249.759 364.191C249.441 363.892 249.003 363.743 248.443 363.743C247.883 363.743 247.411 363.906 247.029 364.233C246.646 364.55 246.422 365.021 246.357 365.647H245.111C245.176 364.713 245.498 363.985 246.077 363.463C246.665 362.931 247.463 362.665 248.471 362.665ZM255.889 371.303V372.801H254.349V371.303H255.889ZM257.903 364.121V362.931H260.731V372.801H259.387V364.121H257.903ZM270.128 365.255V366.753H268.588V365.255H270.128ZM270.128 371.303V372.801H268.588V371.303H270.128ZM277.121 364.121V362.931H279.949V372.801H278.605V364.121H277.121Z" fill="#4F4F4F"/>
<path d="M504.268 371.821C505.855 370.757 507.124 369.702 508.076 368.657C509.028 367.602 509.504 366.622 509.504 365.717C509.504 365.157 509.36 364.709 509.07 364.373C508.79 364.027 508.333 363.855 507.698 363.855C507.045 363.855 506.55 364.065 506.214 364.485C505.878 364.895 505.692 365.465 505.654 366.193H504.394C504.46 365.091 504.8 364.247 505.416 363.659C506.032 363.061 506.826 362.763 507.796 362.763C508.72 362.763 509.453 363.01 509.994 363.505C510.536 363.999 510.806 364.699 510.806 365.605C510.806 366.351 510.564 367.112 510.078 367.887C509.602 368.652 509 369.366 508.272 370.029C507.554 370.682 506.812 371.237 506.046 371.695H511.058V372.745H504.268V371.821ZM514.984 371.303V372.801H513.444V371.303H514.984ZM524.264 363.939H519.196V367.243C519.43 366.925 519.766 366.673 520.204 366.487C520.643 366.3 521.124 366.207 521.646 366.207C522.346 366.207 522.925 366.356 523.382 366.655C523.849 366.944 524.19 367.331 524.404 367.817C524.628 368.293 524.74 368.825 524.74 369.413C524.74 370.43 524.456 371.261 523.886 371.905C523.317 372.549 522.482 372.871 521.38 372.871C520.391 372.871 519.584 372.605 518.958 372.073C518.333 371.531 517.983 370.808 517.908 369.903H519.168C519.271 370.481 519.509 370.934 519.882 371.261C520.265 371.578 520.746 371.737 521.324 371.737C522.043 371.737 522.584 371.522 522.948 371.093C523.312 370.663 523.494 370.099 523.494 369.399C523.494 368.717 523.308 368.185 522.934 367.803C522.561 367.42 522.034 367.229 521.352 367.229C520.867 367.229 520.442 367.336 520.078 367.551C519.714 367.756 519.439 368.036 519.252 368.391H518.02V362.805H524.264V363.939ZM534.291 363.939H529.223V367.243C529.457 366.925 529.793 366.673 530.231 366.487C530.67 366.3 531.151 366.207 531.673 366.207C532.373 366.207 532.952 366.356 533.409 366.655C533.876 366.944 534.217 367.331 534.431 367.817C534.655 368.293 534.767 368.825 534.767 369.413C534.767 370.43 534.483 371.261 533.913 371.905C533.344 372.549 532.509 372.871 531.407 372.871C530.418 372.871 529.611 372.605 528.985 372.073C528.36 371.531 528.01 370.808 527.935 369.903H529.195C529.298 370.481 529.536 370.934 529.909 371.261C530.292 371.578 530.773 371.737 531.351 371.737C532.07 371.737 532.611 371.522 532.975 371.093C533.339 370.663 533.521 370.099 533.521 369.399C533.521 368.717 533.335 368.185 532.961 367.803C532.588 367.42 532.061 367.229 531.379 367.229C530.894 367.229 530.469 367.336 530.105 367.551C529.741 367.756 529.466 368.036 529.279 368.391H528.047V362.805H534.291V363.939ZM543.857 365.255V366.753H542.317V365.255H543.857ZM543.857 371.303V372.801H542.317V371.303H543.857ZM550.85 364.121V362.931H553.678V372.801H552.334V364.121H550.85Z" fill="#4F4F4F"/>
<path d="M765.617 371.821C767.204 370.757 768.473 369.702 769.425 368.657C770.377 367.602 770.853 366.622 770.853 365.717C770.853 365.157 770.709 364.709 770.419 364.373C770.139 364.027 769.682 363.855 769.047 363.855C768.394 363.855 767.899 364.065 767.563 364.485C767.227 364.895 767.041 365.465 767.003 366.193H765.743C765.809 365.091 766.149 364.247 766.765 363.659C767.381 363.061 768.175 362.763 769.145 362.763C770.069 362.763 770.802 363.01 771.343 363.505C771.885 363.999 772.155 364.699 772.155 365.605C772.155 366.351 771.913 367.112 771.427 367.887C770.951 368.652 770.349 369.366 769.621 370.029C768.903 370.682 768.161 371.237 767.395 371.695H772.407V372.745H765.617V371.821ZM781.36 365.255V366.753H779.82V365.255H781.36ZM781.36 371.303V372.801H779.82V371.303H781.36ZM788.352 364.121V362.931H791.18V372.801H789.836V364.121H788.352Z" fill="#4F4F4F"/>
<rect x="0.935547" y="345.568" width="115.815" height="40.6247" fill="#906B42"/>
<path d="M38.0687 362.931L35.5627 372.801H34.0087L31.7267 364.737L29.4447 372.801H27.8907L25.3707 362.931H26.7847L28.6747 371.317L31.0127 362.931H32.4267L34.7647 371.289L36.6687 362.931H38.0687ZM39.3376 362.861C39.3376 362.627 39.4169 362.441 39.5756 362.301C39.7343 362.151 39.9443 362.077 40.2056 362.077C40.4669 362.077 40.6769 362.151 40.8356 362.301C40.9943 362.441 41.0736 362.627 41.0736 362.861C41.0736 363.094 40.9943 363.285 40.8356 363.435C40.6769 363.575 40.4669 363.645 40.2056 363.645C39.9443 363.645 39.7343 363.575 39.5756 363.435C39.4169 363.285 39.3376 363.094 39.3376 362.861ZM40.8356 365.115V372.801H39.5616V365.115H40.8356ZM46.5519 371.681V372.801H45.5999C44.8159 372.801 44.2279 372.614 43.8359 372.241C43.4532 371.867 43.2619 371.242 43.2619 370.365V366.221H42.1139V365.115H43.2619V363.197H44.5499V365.115H46.5379V366.221H44.5499V370.393C44.5499 370.887 44.6385 371.228 44.8159 371.415C45.0025 371.592 45.3199 371.681 45.7679 371.681H46.5519ZM52.1525 364.989C53.0485 364.989 53.7719 365.278 54.3225 365.857C54.8732 366.426 55.1485 367.252 55.1485 368.335V372.801H53.8745V368.447C53.8745 367.681 53.6785 367.093 53.2865 366.683C52.8945 366.272 52.3625 366.067 51.6905 366.067C50.9905 366.067 50.4305 366.295 50.0105 366.753C49.5905 367.201 49.3805 367.859 49.3805 368.727V372.801H48.1065V362.441H49.3805V366.935C49.5765 366.309 49.9219 365.829 50.4165 365.493C50.9205 365.157 51.4992 364.989 52.1525 364.989ZM64.8036 365.017C65.4849 365.017 66.0916 365.175 66.6236 365.493C67.1556 365.81 67.5709 366.267 67.8696 366.865C68.1776 367.462 68.3316 368.162 68.3316 368.965C68.3316 369.767 68.1776 370.467 67.8696 371.065C67.5709 371.653 67.1556 372.105 66.6236 372.423C66.0916 372.74 65.4849 372.899 64.8036 372.899C64.0569 372.899 63.4223 372.712 62.8996 372.339C62.3863 371.956 62.0316 371.457 61.8356 370.841V372.801H60.5616V362.441H61.8356V367.075C62.0316 366.459 62.3863 365.964 62.8996 365.591C63.4223 365.208 64.0569 365.017 64.8036 365.017ZM64.4396 366.151C63.9449 366.151 63.4969 366.267 63.0956 366.501C62.6943 366.725 62.3816 367.051 62.1576 367.481C61.9336 367.91 61.8216 368.405 61.8216 368.965C61.8216 369.525 61.9336 370.019 62.1576 370.449C62.3816 370.869 62.6943 371.195 63.0956 371.429C63.4969 371.662 63.9449 371.779 64.4396 371.779C65.2329 371.779 65.8629 371.531 66.3296 371.037C66.8056 370.533 67.0436 369.842 67.0436 368.965C67.0436 368.087 66.8056 367.401 66.3296 366.907C65.8629 366.403 65.2329 366.151 64.4396 366.151ZM71.2692 366.669C71.5212 366.137 71.8899 365.726 72.3752 365.437C72.8605 365.138 73.4392 364.989 74.1112 364.989V366.375H73.7192C73.0005 366.375 72.4125 366.561 71.9552 366.935C71.4979 367.299 71.2692 367.905 71.2692 368.755V372.801H69.9952V365.115H71.2692V366.669ZM78.5182 365.017C79.2649 365.017 79.8949 365.203 80.4082 365.577C80.9309 365.95 81.2949 366.449 81.5002 367.075V365.115H82.7742V372.801H81.5002V370.841C81.2949 371.466 80.9309 371.965 80.4082 372.339C79.8949 372.712 79.2649 372.899 78.5182 372.899C77.8369 372.899 77.2302 372.74 76.6982 372.423C76.1662 372.105 75.7462 371.653 75.4382 371.065C75.1396 370.467 74.9902 369.767 74.9902 368.965C74.9902 368.162 75.1396 367.462 75.4382 366.865C75.7462 366.267 76.1662 365.81 76.6982 365.493C77.2302 365.175 77.8369 365.017 78.5182 365.017ZM78.8822 366.151C78.0982 366.151 77.4682 366.403 76.9922 366.907C76.5256 367.401 76.2922 368.087 76.2922 368.965C76.2922 369.842 76.5256 370.533 76.9922 371.037C77.4682 371.531 78.0982 371.779 78.8822 371.779C79.3862 371.779 79.8342 371.662 80.2262 371.429C80.6276 371.195 80.9402 370.869 81.1642 370.449C81.3882 370.019 81.5002 369.525 81.5002 368.965C81.5002 368.405 81.3882 367.91 81.1642 367.481C80.9402 367.051 80.6276 366.725 80.2262 366.501C79.8342 366.267 79.3862 366.151 78.8822 366.151ZM88.8478 364.989C89.7438 364.989 90.4672 365.278 91.0178 365.857C91.5685 366.426 91.8438 367.252 91.8438 368.335V372.801H90.5698V368.447C90.5698 367.681 90.3738 367.093 89.9818 366.683C89.5898 366.272 89.0578 366.067 88.3858 366.067C87.6858 366.067 87.1258 366.295 86.7058 366.753C86.2858 367.201 86.0758 367.859 86.0758 368.727V372.801H84.8018V365.115H86.0758V366.935C86.2718 366.309 86.6172 365.829 87.1118 365.493C87.6158 365.157 88.1945 364.989 88.8478 364.989Z" fill="white"/>
<rect x="0.271484" y="406.193" width="967.435" height="40.6247" fill="#E0D7CC"/>
<path d="M257.376 423.29C258.011 423.29 258.557 423.402 259.014 423.626C259.472 423.85 259.817 424.158 260.05 424.55C260.284 424.942 260.4 425.385 260.4 425.88C260.4 426.496 260.218 427.014 259.854 427.434C259.5 427.854 258.977 428.106 258.286 428.19V428.274C259.005 428.46 259.565 428.75 259.966 429.142C260.377 429.534 260.582 430.075 260.582 430.766C260.582 431.578 260.312 432.24 259.77 432.754C259.229 433.267 258.45 433.524 257.432 433.524C256.415 433.524 255.589 433.262 254.954 432.74C254.329 432.208 253.96 431.433 253.848 430.416H255.108C255.192 431.032 255.426 431.522 255.808 431.886C256.2 432.25 256.728 432.432 257.39 432.432C258.016 432.432 258.496 432.273 258.832 431.956C259.168 431.629 259.336 431.209 259.336 430.696C259.336 430.08 259.094 429.613 258.608 429.296C258.132 428.969 257.451 428.806 256.564 428.806H256.228V427.742H256.564C258.282 427.742 259.14 427.168 259.14 426.02C259.14 425.516 258.982 425.114 258.664 424.816C258.347 424.517 257.908 424.368 257.348 424.368C256.788 424.368 256.317 424.531 255.934 424.858C255.552 425.175 255.328 425.646 255.262 426.272H254.016C254.082 425.338 254.404 424.61 254.982 424.088C255.57 423.556 256.368 423.29 257.376 423.29ZM269.822 425.88V427.378H268.282V425.88H269.822ZM269.822 431.928V433.426H268.282V431.928H269.822ZM276.814 424.746V423.556H279.642V433.426H278.298V424.746H276.814Z" fill="#4F4F4F"/>
<path d="M504.541 432.446C506.127 431.382 507.397 430.327 508.349 429.282C509.301 428.227 509.777 427.247 509.777 426.342C509.777 425.782 509.632 425.334 509.343 424.998C509.063 424.652 508.605 424.48 507.971 424.48C507.317 424.48 506.823 424.69 506.487 425.11C506.151 425.52 505.964 426.09 505.927 426.818H504.667C504.732 425.716 505.073 424.872 505.689 424.284C506.305 423.686 507.098 423.388 508.069 423.388C508.993 423.388 509.725 423.635 510.267 424.13C510.808 424.624 511.079 425.324 511.079 426.23C511.079 426.976 510.836 427.737 510.351 428.512C509.875 429.277 509.273 429.991 508.545 430.654C507.826 431.307 507.084 431.862 506.319 432.32H511.331V433.37H504.541V432.446ZM515.256 431.928V433.426H513.716V431.928H515.256ZM517.523 431.158V430.094L522.591 423.486H523.963V430.052H525.419V431.158H523.963V433.426H522.675V431.158H517.523ZM522.759 425.04L518.867 430.052H522.759V425.04ZM534.618 424.564H529.55V427.868C529.784 427.55 530.12 427.298 530.558 427.112C530.997 426.925 531.478 426.832 532 426.832C532.7 426.832 533.279 426.981 533.736 427.28C534.203 427.569 534.544 427.956 534.758 428.442C534.982 428.918 535.094 429.45 535.094 430.038C535.094 431.055 534.81 431.886 534.24 432.53C533.671 433.174 532.836 433.496 531.734 433.496C530.745 433.496 529.938 433.23 529.312 432.698C528.687 432.156 528.337 431.433 528.262 430.528H529.522C529.625 431.106 529.863 431.559 530.236 431.886C530.619 432.203 531.1 432.362 531.678 432.362C532.397 432.362 532.938 432.147 533.302 431.718C533.666 431.288 533.848 430.724 533.848 430.024C533.848 429.342 533.662 428.81 533.288 428.428C532.915 428.045 532.388 427.854 531.706 427.854C531.221 427.854 530.796 427.961 530.432 428.176C530.068 428.381 529.793 428.661 529.606 429.016H528.374V423.43H534.618V424.564ZM544.184 425.88V427.378H542.644V425.88H544.184ZM544.184 431.928V433.426H542.644V431.928H544.184ZM551.177 424.746V423.556H554.005V433.426H552.661V424.746H551.177Z" fill="#4F4F4F"/>
<path d="M755.618 424.746V423.556H758.446V433.426H757.102V424.746H755.618ZM762.816 431.928V433.426H761.276V431.928H762.816ZM766.888 430.654C766.972 431.242 767.177 431.694 767.504 432.012C767.831 432.329 768.279 432.488 768.848 432.488C769.632 432.488 770.225 432.184 770.626 431.578C771.027 430.971 771.228 430.01 771.228 428.694C771.228 428.442 771.223 428.25 771.214 428.12C771.083 428.68 770.766 429.128 770.262 429.464C769.758 429.8 769.165 429.968 768.484 429.968C767.504 429.968 766.734 429.674 766.174 429.086C765.614 428.498 765.334 427.676 765.334 426.622C765.334 426.006 765.455 425.446 765.698 424.942C765.941 424.438 766.309 424.041 766.804 423.752C767.308 423.453 767.929 423.304 768.666 423.304C770.085 423.304 771.055 423.742 771.578 424.62C772.11 425.488 772.376 426.682 772.376 428.204C772.376 429.94 772.105 431.265 771.564 432.18C771.023 433.085 770.117 433.538 768.848 433.538C767.905 433.538 767.163 433.272 766.622 432.74C766.09 432.198 765.777 431.503 765.684 430.654H766.888ZM771.088 426.818C771.088 426.146 770.887 425.576 770.486 425.11C770.094 424.643 769.501 424.41 768.708 424.41C768.055 424.41 767.532 424.606 767.14 424.998C766.748 425.39 766.552 425.936 766.552 426.636C766.552 427.382 766.748 427.956 767.14 428.358C767.532 428.759 768.069 428.96 768.75 428.96C769.142 428.96 769.515 428.88 769.87 428.722C770.234 428.563 770.528 428.32 770.752 427.994C770.976 427.667 771.088 427.275 771.088 426.818ZM781.553 425.88V427.378H780.013V425.88H781.553ZM781.553 431.928V433.426H780.013V431.928H781.553ZM788.545 424.746V423.556H791.373V433.426H790.029V424.746H788.545Z" fill="#4F4F4F"/>
<rect x="0.935547" y="406.193" width="115.815" height="40.6247" fill="#DE7B29"/>
<path d="M39.8303 433.426H38.5563L33.4323 425.628V433.426H32.1583V423.556H33.4323L38.5563 431.368V423.556H39.8303V433.426ZM45.365 425.642C46.1023 425.642 46.7603 425.8 47.339 426.118C47.927 426.435 48.3843 426.892 48.711 427.49C49.047 428.087 49.215 428.787 49.215 429.59C49.215 430.392 49.047 431.092 48.711 431.69C48.3843 432.278 47.927 432.73 47.339 433.048C46.7603 433.365 46.1023 433.524 45.365 433.524C44.6276 433.524 43.965 433.365 43.377 433.048C42.7983 432.73 42.341 432.278 42.005 431.69C41.669 431.092 41.501 430.392 41.501 429.59C41.501 428.787 41.669 428.087 42.005 427.49C42.341 426.892 42.7983 426.435 43.377 426.118C43.965 425.8 44.6276 425.642 45.365 425.642ZM45.365 426.762C44.9076 426.762 44.483 426.864 44.091 427.07C43.7083 427.275 43.3956 427.592 43.153 428.022C42.9196 428.442 42.803 428.964 42.803 429.59C42.803 430.206 42.9196 430.728 43.153 431.158C43.3956 431.578 43.7083 431.89 44.091 432.096C44.483 432.301 44.9076 432.404 45.365 432.404C45.8223 432.404 46.2423 432.301 46.625 432.096C47.017 431.89 47.3296 431.578 47.563 431.158C47.8056 430.728 47.927 430.206 47.927 429.59C47.927 428.964 47.8056 428.442 47.563 428.022C47.3296 427.592 47.017 427.275 46.625 427.07C46.2423 426.864 45.8223 426.762 45.365 426.762ZM58.5761 425.642C59.2574 425.642 59.8641 425.8 60.3961 426.118C60.9281 426.435 61.3434 426.892 61.6421 427.49C61.9501 428.087 62.1041 428.787 62.1041 429.59C62.1041 430.392 61.9501 431.092 61.6421 431.69C61.3434 432.278 60.9281 432.73 60.3961 433.048C59.8641 433.365 59.2574 433.524 58.5761 433.524C57.8294 433.524 57.1947 433.337 56.6721 432.964C56.1587 432.581 55.8041 432.082 55.6081 431.466V433.426H54.3341V423.066H55.6081V427.7C55.8041 427.084 56.1587 426.589 56.6721 426.216C57.1947 425.833 57.8294 425.642 58.5761 425.642ZM58.2121 426.776C57.7174 426.776 57.2694 426.892 56.8681 427.126C56.4667 427.35 56.1541 427.676 55.9301 428.106C55.7061 428.535 55.5941 429.03 55.5941 429.59C55.5941 430.15 55.7061 430.644 55.9301 431.074C56.1541 431.494 56.4667 431.82 56.8681 432.054C57.2694 432.287 57.7174 432.404 58.2121 432.404C59.0054 432.404 59.6354 432.156 60.1021 431.662C60.5781 431.158 60.8161 430.467 60.8161 429.59C60.8161 428.712 60.5781 428.026 60.1021 427.532C59.6354 427.028 59.0054 426.776 58.2121 426.776ZM65.0417 427.294C65.2937 426.762 65.6623 426.351 66.1477 426.062C66.633 425.763 67.2117 425.614 67.8837 425.614V427H67.4917C66.773 427 66.185 427.186 65.7277 427.56C65.2703 427.924 65.0417 428.53 65.0417 429.38V433.426H63.7677V425.74H65.0417V427.294ZM72.2907 425.642C73.0374 425.642 73.6674 425.828 74.1807 426.202C74.7034 426.575 75.0674 427.074 75.2727 427.7V425.74H76.5467V433.426H75.2727V431.466C75.0674 432.091 74.7034 432.59 74.1807 432.964C73.6674 433.337 73.0374 433.524 72.2907 433.524C71.6094 433.524 71.0027 433.365 70.4707 433.048C69.9387 432.73 69.5187 432.278 69.2107 431.69C68.912 431.092 68.7627 430.392 68.7627 429.59C68.7627 428.787 68.912 428.087 69.2107 427.49C69.5187 426.892 69.9387 426.435 70.4707 426.118C71.0027 425.8 71.6094 425.642 72.2907 425.642ZM72.6547 426.776C71.8707 426.776 71.2407 427.028 70.7647 427.532C70.298 428.026 70.0647 428.712 70.0647 429.59C70.0647 430.467 70.298 431.158 70.7647 431.662C71.2407 432.156 71.8707 432.404 72.6547 432.404C73.1587 432.404 73.6067 432.287 73.9987 432.054C74.4 431.82 74.7127 431.494 74.9367 431.074C75.1607 430.644 75.2727 430.15 75.2727 429.59C75.2727 429.03 75.1607 428.535 74.9367 428.106C74.7127 427.676 74.4 427.35 73.9987 427.126C73.6067 426.892 73.1587 426.776 72.6547 426.776ZM82.6203 425.614C83.5163 425.614 84.2396 425.903 84.7903 426.482C85.341 427.051 85.6163 427.877 85.6163 428.96V433.426H84.3423V429.072C84.3423 428.306 84.1463 427.718 83.7543 427.308C83.3623 426.897 82.8303 426.692 82.1583 426.692C81.4583 426.692 80.8983 426.92 80.4783 427.378C80.0583 427.826 79.8483 428.484 79.8483 429.352V433.426H78.5743V425.74H79.8483V427.56C80.0443 426.934 80.3896 426.454 80.8843 426.118C81.3883 425.782 81.967 425.614 82.6203 425.614Z" fill="white"/>
<path d="M628.832 221.399C628.832 225.263 626.642 229.08 622.377 232.68C618.118 236.277 611.894 239.561 604.117 242.339C588.57 247.892 567.027 251.345 543.183 251.345C519.34 251.345 497.797 247.892 482.25 242.339C474.473 239.561 468.249 236.277 463.99 232.68C459.725 229.08 457.535 225.263 457.535 221.399C457.535 217.535 459.725 213.718 463.99 210.117C468.249 206.521 474.473 203.236 482.25 200.459C497.797 194.906 519.34 191.453 543.183 191.453C567.027 191.453 588.57 194.906 604.117 200.459C611.894 203.236 618.118 206.521 622.377 210.117C626.642 213.718 628.832 217.535 628.832 221.399Z" stroke="#336A41" stroke-width="2"/>
<path d="M621.097 221.399C621.097 225.301 619.085 229.124 615.216 232.711C611.346 236.299 605.691 239.577 598.619 242.35C584.482 247.894 564.884 251.345 543.185 251.345C521.487 251.345 501.888 247.894 487.751 242.35C480.68 239.577 475.025 236.299 471.155 232.711C467.286 229.124 465.273 225.301 465.273 221.399C465.273 217.497 467.286 213.674 471.155 210.087C475.025 206.499 480.68 203.221 487.751 200.448C501.888 194.904 521.487 191.453 543.185 191.453C564.884 191.453 584.482 194.904 598.619 200.448C605.691 203.221 611.346 206.499 615.216 210.087C619.085 213.674 621.097 217.497 621.097 221.399Z" stroke="#906B42" stroke-width="2"/>
<path d="M618.002 221.399C618.002 225.316 616.061 229.143 612.349 232.725C608.634 236.31 603.207 239.584 596.417 242.355C582.844 247.895 564.024 251.345 543.184 251.345C522.345 251.345 503.525 247.895 489.951 242.355C483.162 239.584 477.734 236.31 474.02 232.725C470.308 229.143 468.367 225.316 468.367 221.399C468.367 217.482 470.308 213.655 474.02 210.073C477.734 206.488 483.162 203.214 489.951 200.443C503.525 194.903 522.345 191.453 543.184 191.453C564.024 191.453 582.844 194.903 596.417 200.443C603.207 203.214 608.634 206.488 612.349 210.073C616.061 213.655 618.002 217.482 618.002 221.399Z" stroke="#DE7B29" stroke-width="2"/>
<path d="M525.534 152.652V162.48H523.14V156.334L521.012 162.48H518.94L516.798 156.32V162.48H514.404V152.652H517.33L520.004 159.498L522.622 152.652H525.534ZM534.607 158.364C534.607 158.56 534.584 158.775 534.537 159.008H529.119C529.147 159.596 529.297 160.021 529.567 160.282C529.838 160.534 530.183 160.66 530.603 160.66C530.958 160.66 531.252 160.572 531.485 160.394C531.719 160.217 531.873 159.988 531.947 159.708H534.481C534.379 160.259 534.155 160.754 533.809 161.192C533.464 161.622 533.025 161.962 532.493 162.214C531.961 162.457 531.369 162.578 530.715 162.578C529.95 162.578 529.269 162.42 528.671 162.102C528.083 161.776 527.621 161.309 527.285 160.702C526.949 160.096 526.781 159.386 526.781 158.574C526.781 157.753 526.945 157.044 527.271 156.446C527.607 155.84 528.074 155.378 528.671 155.06C529.269 154.734 529.95 154.57 530.715 154.57C531.49 154.57 532.171 154.729 532.759 155.046C533.347 155.364 533.8 155.812 534.117 156.39C534.444 156.96 534.607 157.618 534.607 158.364ZM532.185 158C532.195 157.487 532.055 157.104 531.765 156.852C531.485 156.591 531.135 156.46 530.715 156.46C530.277 156.46 529.913 156.591 529.623 156.852C529.334 157.114 529.171 157.496 529.133 158H532.185ZM538.823 154.57C539.421 154.57 539.934 154.706 540.363 154.976C540.793 155.247 541.105 155.616 541.301 156.082V152.12H543.695V162.48H541.301V161.066C541.105 161.533 540.793 161.902 540.363 162.172C539.934 162.443 539.421 162.578 538.823 162.578C538.179 162.578 537.601 162.42 537.087 162.102C536.583 161.776 536.182 161.309 535.883 160.702C535.594 160.096 535.449 159.386 535.449 158.574C535.449 157.753 535.594 157.044 535.883 156.446C536.182 155.84 536.583 155.378 537.087 155.06C537.601 154.734 538.179 154.57 538.823 154.57ZM539.593 156.67C539.08 156.67 538.665 156.838 538.347 157.174C538.039 157.51 537.885 157.977 537.885 158.574C537.885 159.172 538.039 159.638 538.347 159.974C538.665 160.31 539.08 160.478 539.593 160.478C540.097 160.478 540.508 160.306 540.825 159.96C541.152 159.615 541.315 159.153 541.315 158.574C541.315 157.986 541.152 157.524 540.825 157.188C540.508 156.843 540.097 156.67 539.593 156.67ZM545.12 152.47C545.12 152.106 545.25 151.808 545.512 151.574C545.773 151.332 546.118 151.21 546.548 151.21C546.977 151.21 547.322 151.332 547.584 151.574C547.845 151.808 547.976 152.106 547.976 152.47C547.976 152.825 547.845 153.124 547.584 153.366C547.322 153.6 546.977 153.716 546.548 153.716C546.118 153.716 545.773 153.6 545.512 153.366C545.25 153.124 545.12 152.825 545.12 152.47ZM547.738 154.668V162.48H545.344V154.668H547.738ZM557.16 154.668V162.48H554.752V161.066C554.528 161.524 554.192 161.888 553.744 162.158C553.306 162.429 552.792 162.564 552.204 162.564C551.308 162.564 550.594 162.266 550.062 161.668C549.54 161.071 549.278 160.25 549.278 159.204V154.668H551.658V158.91C551.658 159.442 551.794 159.858 552.064 160.156C552.344 160.446 552.718 160.59 553.184 160.59C553.67 160.59 554.052 160.436 554.332 160.128C554.612 159.82 554.752 159.382 554.752 158.812V154.668H557.16ZM568.932 154.584C569.894 154.584 570.65 154.883 571.2 155.48C571.751 156.068 572.026 156.89 572.026 157.944V162.48H569.646V158.224C569.646 157.73 569.511 157.347 569.24 157.076C568.979 156.796 568.62 156.656 568.162 156.656C567.686 156.656 567.308 156.806 567.028 157.104C566.758 157.394 566.622 157.804 566.622 158.336V162.48H564.228V158.224C564.228 157.73 564.098 157.347 563.836 157.076C563.575 156.796 563.216 156.656 562.758 156.656C562.282 156.656 561.904 156.801 561.624 157.09C561.344 157.38 561.204 157.795 561.204 158.336V162.48H558.81V154.668H561.204V155.998C561.41 155.56 561.722 155.214 562.142 154.962C562.572 154.71 563.071 154.584 563.64 154.584C564.238 154.584 564.765 154.724 565.222 155.004C565.68 155.275 566.025 155.667 566.258 156.18C566.529 155.695 566.898 155.308 567.364 155.018C567.84 154.729 568.363 154.584 568.932 154.584Z" fill="#4F4F4F"/>
<path d="M838.407 221.399C838.407 229.388 832.236 236.861 821.72 242.396C811.25 247.906 796.717 251.345 780.61 251.345C764.502 251.345 749.969 247.906 739.5 242.396C728.984 236.861 722.812 229.388 722.812 221.399C722.812 213.409 728.984 205.937 739.5 200.402C749.969 194.891 764.502 191.453 780.61 191.453C796.717 191.453 811.25 194.891 821.72 200.402C832.236 205.937 838.407 213.409 838.407 221.399Z" stroke="#DE7B29" stroke-width="2"/>
<path d="M847.691 221.399C847.691 229.311 840.59 236.801 828.337 242.371C816.174 247.899 799.301 251.345 780.61 251.345C761.919 251.345 745.046 247.899 732.884 242.371C720.63 236.801 713.529 229.311 713.529 221.399C713.529 213.487 720.63 205.997 732.884 200.427C745.046 194.899 761.919 191.453 780.61 191.453C799.301 191.453 816.174 194.899 828.337 200.427C840.59 205.997 847.691 213.487 847.691 221.399Z" stroke="#336A41" stroke-width="2"/>
<path d="M841.5 221.399C841.5 229.362 835.019 236.84 823.925 242.387C812.891 247.904 797.578 251.345 780.608 251.345C763.639 251.345 748.326 247.904 737.292 242.387C726.198 236.84 719.717 229.362 719.717 221.399C719.717 213.436 726.198 205.958 737.292 200.411C748.326 194.894 763.639 191.453 780.608 191.453C797.578 191.453 812.891 194.894 823.925 200.411C835.019 205.958 841.5 213.436 841.5 221.399Z" stroke="#906B42" stroke-width="2"/>
<path d="M769.202 159.694C769.202 160.217 769.067 160.698 768.796 161.136C768.535 161.575 768.143 161.925 767.62 162.186C767.107 162.448 766.481 162.578 765.744 162.578C764.633 162.578 763.719 162.308 763 161.766C762.281 161.225 761.889 160.469 761.824 159.498H764.372C764.409 159.872 764.54 160.166 764.764 160.38C764.997 160.595 765.291 160.702 765.646 160.702C765.954 160.702 766.197 160.618 766.374 160.45C766.551 160.282 766.64 160.058 766.64 159.778C766.64 159.526 766.556 159.316 766.388 159.148C766.229 158.98 766.029 158.845 765.786 158.742C765.543 158.63 765.207 158.5 764.778 158.35C764.153 158.136 763.639 157.93 763.238 157.734C762.846 157.529 762.505 157.23 762.216 156.838C761.936 156.437 761.796 155.919 761.796 155.284C761.796 154.696 761.945 154.188 762.244 153.758C762.543 153.329 762.953 153.002 763.476 152.778C764.008 152.545 764.615 152.428 765.296 152.428C766.397 152.428 767.27 152.69 767.914 153.212C768.567 153.735 768.936 154.454 769.02 155.368H766.43C766.383 155.042 766.262 154.785 766.066 154.598C765.879 154.402 765.623 154.304 765.296 154.304C765.016 154.304 764.787 154.379 764.61 154.528C764.442 154.678 764.358 154.897 764.358 155.186C764.358 155.42 764.433 155.62 764.582 155.788C764.741 155.947 764.937 156.078 765.17 156.18C765.403 156.283 765.739 156.414 766.178 156.572C766.813 156.787 767.331 157.002 767.732 157.216C768.133 157.422 768.479 157.725 768.768 158.126C769.057 158.528 769.202 159.05 769.202 159.694ZM775.482 154.584C776.378 154.584 777.087 154.883 777.61 155.48C778.142 156.078 778.408 156.899 778.408 157.944V162.48H776.014V158.224C776.014 157.702 775.874 157.296 775.594 157.006C775.323 156.708 774.959 156.558 774.502 156.558C774.016 156.558 773.629 156.712 773.34 157.02C773.06 157.328 772.92 157.767 772.92 158.336V162.48H770.526V152.12H772.92V156.096C773.144 155.63 773.475 155.261 773.914 154.99C774.362 154.72 774.884 154.584 775.482 154.584ZM783.64 154.57C784.415 154.57 785.106 154.734 785.712 155.06C786.328 155.378 786.809 155.84 787.154 156.446C787.509 157.053 787.686 157.762 787.686 158.574C787.686 159.386 787.509 160.096 787.154 160.702C786.809 161.309 786.328 161.776 785.712 162.102C785.106 162.42 784.415 162.578 783.64 162.578C782.866 162.578 782.17 162.42 781.554 162.102C780.938 161.776 780.453 161.309 780.098 160.702C779.753 160.096 779.58 159.386 779.58 158.574C779.58 157.762 779.753 157.053 780.098 156.446C780.453 155.84 780.938 155.378 781.554 155.06C782.17 154.734 782.866 154.57 783.64 154.57ZM783.64 156.642C783.183 156.642 782.796 156.81 782.478 157.146C782.17 157.473 782.016 157.949 782.016 158.574C782.016 159.2 782.17 159.676 782.478 160.002C782.796 160.329 783.183 160.492 783.64 160.492C784.098 160.492 784.48 160.329 784.788 160.002C785.096 159.676 785.25 159.2 785.25 158.574C785.25 157.949 785.096 157.473 784.788 157.146C784.48 156.81 784.098 156.642 783.64 156.642ZM791.322 156.138C791.621 155.662 792.003 155.284 792.47 155.004C792.946 154.724 793.459 154.584 794.01 154.584V157.146H793.324C792.689 157.146 792.195 157.282 791.84 157.552C791.495 157.823 791.322 158.28 791.322 158.924V162.48H788.928V154.668H791.322V156.138ZM799.436 160.422V162.48H798.358C797.443 162.48 796.729 162.256 796.216 161.808C795.712 161.351 795.46 160.6 795.46 159.554V156.684H794.41V154.668H795.46V152.75H797.854V154.668H799.422V156.684H797.854V159.596C797.854 159.904 797.915 160.119 798.036 160.24C798.167 160.362 798.381 160.422 798.68 160.422H799.436Z" fill="#4F4F4F"/>
<path d="M375.874 8.20047C377.648 8.20047 379.108 8.6338 380.254 9.50047C381.401 10.3671 382.114 11.5405 382.394 13.0205H378.774C378.534 12.5138 378.168 12.1138 377.674 11.8205C377.181 11.5138 376.588 11.3605 375.894 11.3605C374.814 11.3605 373.948 11.7271 373.294 12.4605C372.641 13.1805 372.314 14.1605 372.314 15.4005C372.314 16.7471 372.654 17.7805 373.334 18.5005C374.028 19.2205 375.008 19.5805 376.274 19.5805C377.088 19.5805 377.801 19.3605 378.414 18.9205C379.028 18.4671 379.461 17.8271 379.714 17.0005H375.394V14.5405H382.574V17.9205C382.308 18.7471 381.881 19.5138 381.294 20.2205C380.708 20.9271 379.954 21.5005 379.034 21.9405C378.128 22.3805 377.088 22.6005 375.914 22.6005C374.488 22.6005 373.241 22.3005 372.174 21.7005C371.108 21.0871 370.281 20.2338 369.694 19.1405C369.121 18.0471 368.834 16.8005 368.834 15.4005C368.834 14.0005 369.121 12.7538 369.694 11.6605C370.281 10.5671 371.101 9.72047 372.154 9.12047C373.221 8.50713 374.461 8.20047 375.874 8.20047ZM387.909 13.4205C388.335 12.7405 388.882 12.2005 389.549 11.8005C390.229 11.4005 390.962 11.2005 391.749 11.2005V14.8605H390.769C389.862 14.8605 389.155 15.0538 388.649 15.4405C388.155 15.8271 387.909 16.4805 387.909 17.4005V22.4805H384.489V11.3205H387.909V13.4205ZM397.42 11.1805C398.273 11.1805 399.007 11.3738 399.62 11.7605C400.233 12.1471 400.687 12.6738 400.98 13.3405V11.3205H404.38V22.4805H400.98V20.4605C400.687 21.1271 400.233 21.6538 399.62 22.0405C399.007 22.4271 398.273 22.6205 397.42 22.6205C396.5 22.6205 395.673 22.3938 394.94 21.9405C394.22 21.4738 393.647 20.8071 393.22 19.9405C392.807 19.0738 392.6 18.0605 392.6 16.9005C392.6 15.7271 392.807 14.7138 393.22 13.8605C393.647 12.9938 394.22 12.3338 394.94 11.8805C395.673 11.4138 396.5 11.1805 397.42 11.1805ZM398.52 14.1805C397.787 14.1805 397.193 14.4205 396.74 14.9005C396.3 15.3805 396.08 16.0471 396.08 16.9005C396.08 17.7538 396.3 18.4205 396.74 18.9005C397.193 19.3805 397.787 19.6205 398.52 19.6205C399.24 19.6205 399.827 19.3738 400.28 18.8805C400.747 18.3871 400.98 17.7271 400.98 16.9005C400.98 16.0605 400.747 15.4005 400.28 14.9205C399.827 14.4271 399.24 14.1805 398.52 14.1805ZM406.415 8.18047C406.415 7.66047 406.601 7.2338 406.975 6.90047C407.348 6.5538 407.841 6.38047 408.455 6.38047C409.068 6.38047 409.561 6.5538 409.935 6.90047C410.308 7.2338 410.495 7.66047 410.495 8.18047C410.495 8.68713 410.308 9.1138 409.935 9.46047C409.561 9.7938 409.068 9.96047 408.455 9.96047C407.841 9.96047 407.348 9.7938 406.975 9.46047C406.601 9.1138 406.415 8.68713 406.415 8.18047ZM410.155 11.3205V22.4805H406.735V11.3205H410.155ZM419.596 11.2005C420.876 11.2005 421.889 11.6271 422.636 12.4805C423.396 13.3338 423.776 14.5071 423.776 16.0005V22.4805H420.356V16.4005C420.356 15.6538 420.156 15.0738 419.756 14.6605C419.369 14.2338 418.849 14.0205 418.196 14.0205C417.503 14.0205 416.949 14.2405 416.536 14.6805C416.136 15.1205 415.936 15.7471 415.936 16.5605V22.4805H412.516V11.3205H415.936V13.3605C416.256 12.6938 416.729 12.1671 417.356 11.7805C417.996 11.3938 418.743 11.2005 419.596 11.2005ZM440.195 18.5005C440.195 19.2471 440.002 19.9338 439.615 20.5605C439.242 21.1871 438.682 21.6871 437.935 22.0605C437.202 22.4338 436.309 22.6205 435.255 22.6205C433.669 22.6205 432.362 22.2338 431.335 21.4605C430.309 20.6871 429.749 19.6071 429.655 18.2205H433.295C433.349 18.7538 433.535 19.1738 433.855 19.4805C434.189 19.7871 434.609 19.9405 435.115 19.9405C435.555 19.9405 435.902 19.8205 436.155 19.5805C436.409 19.3405 436.535 19.0205 436.535 18.6205C436.535 18.2605 436.415 17.9605 436.175 17.7205C435.949 17.4805 435.662 17.2871 435.315 17.1405C434.969 16.9805 434.489 16.7938 433.875 16.5805C432.982 16.2738 432.249 15.9805 431.675 15.7005C431.115 15.4071 430.629 14.9805 430.215 14.4205C429.815 13.8471 429.615 13.1071 429.615 12.2005C429.615 11.3605 429.829 10.6338 430.255 10.0205C430.682 9.40713 431.269 8.94047 432.015 8.62047C432.775 8.28713 433.642 8.12047 434.615 8.12047C436.189 8.12047 437.435 8.4938 438.355 9.24047C439.289 9.98713 439.815 11.0138 439.935 12.3205H436.235C436.169 11.8538 435.995 11.4871 435.715 11.2205C435.449 10.9405 435.082 10.8005 434.615 10.8005C434.215 10.8005 433.889 10.9071 433.635 11.1205C433.395 11.3338 433.275 11.6471 433.275 12.0605C433.275 12.3938 433.382 12.6805 433.595 12.9205C433.822 13.1471 434.102 13.3338 434.435 13.4805C434.769 13.6271 435.249 13.8138 435.875 14.0405C436.782 14.3471 437.522 14.6538 438.095 14.9605C438.669 15.2538 439.162 15.6871 439.575 16.2605C439.989 16.8338 440.195 17.5805 440.195 18.5005ZM441.766 8.18047C441.766 7.66047 441.953 7.2338 442.326 6.90047C442.7 6.5538 443.193 6.38047 443.806 6.38047C444.42 6.38047 444.913 6.5538 445.286 6.90047C445.66 7.2338 445.846 7.66047 445.846 8.18047C445.846 8.68713 445.66 9.1138 445.286 9.46047C444.913 9.7938 444.42 9.96047 443.806 9.96047C443.193 9.96047 442.7 9.7938 442.326 9.46047C441.953 9.1138 441.766 8.68713 441.766 8.18047ZM445.506 11.3205V22.4805H442.086V11.3205H445.506ZM450.888 19.6205H456.048V22.4805H447.148V19.7805L451.948 14.1605H447.228V11.3205H455.848V14.0205L450.888 19.6205ZM468.272 16.6005C468.272 16.8805 468.239 17.1871 468.172 17.5205H460.432C460.472 18.3605 460.686 18.9671 461.072 19.3405C461.459 19.7005 461.952 19.8805 462.552 19.8805C463.059 19.8805 463.479 19.7538 463.812 19.5005C464.146 19.2471 464.366 18.9205 464.472 18.5205H468.092C467.946 19.3071 467.626 20.0138 467.132 20.6405C466.639 21.2538 466.012 21.7405 465.252 22.1005C464.492 22.4471 463.646 22.6205 462.712 22.6205C461.619 22.6205 460.646 22.3938 459.792 21.9405C458.952 21.4738 458.292 20.8071 457.812 19.9405C457.332 19.0738 457.092 18.0605 457.092 16.9005C457.092 15.7271 457.326 14.7138 457.792 13.8605C458.272 12.9938 458.939 12.3338 459.792 11.8805C460.646 11.4138 461.619 11.1805 462.712 11.1805C463.819 11.1805 464.792 11.4071 465.632 11.8605C466.472 12.3138 467.119 12.9538 467.572 13.7805C468.039 14.5938 468.272 15.5338 468.272 16.6005ZM464.812 16.0805C464.826 15.3471 464.626 14.8005 464.212 14.4405C463.812 14.0671 463.312 13.8805 462.712 13.8805C462.086 13.8805 461.566 14.0671 461.152 14.4405C460.739 14.8138 460.506 15.3605 460.452 16.0805H464.812ZM480.519 8.20047C482.319 8.20047 483.806 8.6738 484.979 9.62047C486.166 10.5671 486.932 11.8471 487.279 13.4605H483.659C483.392 12.8071 482.979 12.2938 482.419 11.9205C481.872 11.5471 481.219 11.3605 480.459 11.3605C479.459 11.3605 478.652 11.7271 478.039 12.4605C477.426 13.1938 477.119 14.1738 477.119 15.4005C477.119 16.6271 477.426 17.6071 478.039 18.3405C478.652 19.0605 479.459 19.4205 480.459 19.4205C481.219 19.4205 481.872 19.2338 482.419 18.8605C482.979 18.4871 483.392 17.9805 483.659 17.3405H487.279C486.932 18.9405 486.166 20.2205 484.979 21.1805C483.806 22.1271 482.319 22.6005 480.519 22.6005C479.146 22.6005 477.939 22.3005 476.899 21.7005C475.859 21.0871 475.052 20.2338 474.479 19.1405C473.919 18.0471 473.639 16.8005 473.639 15.4005C473.639 14.0005 473.919 12.7538 474.479 11.6605C475.052 10.5671 475.859 9.72047 476.899 9.12047C477.939 8.50713 479.146 8.20047 480.519 8.20047ZM494.416 11.1805C495.522 11.1805 496.509 11.4138 497.376 11.8805C498.256 12.3338 498.942 12.9938 499.436 13.8605C499.942 14.7271 500.196 15.7405 500.196 16.9005C500.196 18.0605 499.942 19.0738 499.436 19.9405C498.942 20.8071 498.256 21.4738 497.376 21.9405C496.509 22.3938 495.522 22.6205 494.416 22.6205C493.309 22.6205 492.316 22.3938 491.436 21.9405C490.556 21.4738 489.862 20.8071 489.356 19.9405C488.862 19.0738 488.616 18.0605 488.616 16.9005C488.616 15.7405 488.862 14.7271 489.356 13.8605C489.862 12.9938 490.556 12.3338 491.436 11.8805C492.316 11.4138 493.309 11.1805 494.416 11.1805ZM494.416 14.1405C493.762 14.1405 493.209 14.3805 492.756 14.8605C492.316 15.3271 492.096 16.0071 492.096 16.9005C492.096 17.7938 492.316 18.4738 492.756 18.9405C493.209 19.4071 493.762 19.6405 494.416 19.6405C495.069 19.6405 495.616 19.4071 496.056 18.9405C496.496 18.4738 496.716 17.7938 496.716 16.9005C496.716 16.0071 496.496 15.3271 496.056 14.8605C495.616 14.3805 495.069 14.1405 494.416 14.1405ZM516.429 11.2005C517.802 11.2005 518.882 11.6271 519.669 12.4805C520.456 13.3205 520.849 14.4938 520.849 16.0005V22.4805H517.449V16.4005C517.449 15.6938 517.256 15.1471 516.869 14.7605C516.496 14.3605 515.982 14.1605 515.329 14.1605C514.649 14.1605 514.109 14.3738 513.709 14.8005C513.322 15.2138 513.129 15.8005 513.129 16.5605V22.4805H509.709V16.4005C509.709 15.6938 509.522 15.1471 509.149 14.7605C508.776 14.3605 508.262 14.1605 507.609 14.1605C506.929 14.1605 506.389 14.3671 505.989 14.7805C505.589 15.1938 505.389 15.7871 505.389 16.5605V22.4805H501.969V11.3205H505.389V13.2205C505.682 12.5938 506.129 12.1005 506.729 11.7405C507.342 11.3805 508.056 11.2005 508.869 11.2005C509.722 11.2005 510.476 11.4005 511.129 11.8005C511.782 12.1871 512.276 12.7471 512.609 13.4805C512.996 12.7871 513.522 12.2338 514.189 11.8205C514.869 11.4071 515.616 11.2005 516.429 11.2005ZM530.081 11.1805C531.001 11.1805 531.821 11.4138 532.541 11.8805C533.275 12.3338 533.848 12.9938 534.261 13.8605C534.688 14.7138 534.901 15.7271 534.901 16.9005C534.901 18.0605 534.688 19.0738 534.261 19.9405C533.848 20.8071 533.275 21.4738 532.541 21.9405C531.821 22.3938 531.001 22.6205 530.081 22.6205C529.228 22.6205 528.495 22.4271 527.881 22.0405C527.268 21.6538 526.821 21.1271 526.541 20.4605V27.8005H523.121V11.3205H526.541V13.3405C526.821 12.6738 527.268 12.1471 527.881 11.7605C528.495 11.3738 529.228 11.1805 530.081 11.1805ZM528.981 14.1805C528.261 14.1805 527.668 14.4271 527.201 14.9205C526.748 15.4005 526.521 16.0605 526.521 16.9005C526.521 17.7271 526.748 18.3871 527.201 18.8805C527.668 19.3738 528.261 19.6205 528.981 19.6205C529.715 19.6205 530.301 19.3805 530.741 18.9005C531.195 18.4205 531.421 17.7538 531.421 16.9005C531.421 16.0471 531.195 15.3805 530.741 14.9005C530.301 14.4205 529.715 14.1805 528.981 14.1805ZM540.916 11.1805C541.769 11.1805 542.503 11.3738 543.116 11.7605C543.729 12.1471 544.183 12.6738 544.476 13.3405V11.3205H547.876V22.4805H544.476V20.4605C544.183 21.1271 543.729 21.6538 543.116 22.0405C542.503 22.4271 541.769 22.6205 540.916 22.6205C539.996 22.6205 539.169 22.3938 538.436 21.9405C537.716 21.4738 537.143 20.8071 536.716 19.9405C536.303 19.0738 536.096 18.0605 536.096 16.9005C536.096 15.7271 536.303 14.7138 536.716 13.8605C537.143 12.9938 537.716 12.3338 538.436 11.8805C539.169 11.4138 539.996 11.1805 540.916 11.1805ZM542.016 14.1805C541.283 14.1805 540.689 14.4205 540.236 14.9005C539.796 15.3805 539.576 16.0471 539.576 16.9005C539.576 17.7538 539.796 18.4205 540.236 18.9005C540.689 19.3805 541.283 19.6205 542.016 19.6205C542.736 19.6205 543.323 19.3738 543.776 18.8805C544.243 18.3871 544.476 17.7271 544.476 16.9005C544.476 16.0605 544.243 15.4005 543.776 14.9205C543.323 14.4271 542.736 14.1805 542.016 14.1805ZM553.651 13.4205C554.077 12.7405 554.624 12.2005 555.291 11.8005C555.971 11.4005 556.704 11.2005 557.491 11.2005V14.8605H556.511C555.604 14.8605 554.897 15.0538 554.391 15.4405C553.897 15.8271 553.651 16.4805 553.651 17.4005V22.4805H550.231V11.3205H553.651V13.4205ZM558.602 8.18047C558.602 7.66047 558.789 7.2338 559.162 6.90047C559.536 6.5538 560.029 6.38047 560.642 6.38047C561.256 6.38047 561.749 6.5538 562.122 6.90047C562.496 7.2338 562.682 7.66047 562.682 8.18047C562.682 8.68713 562.496 9.1138 562.122 9.46047C561.749 9.7938 561.256 9.96047 560.642 9.96047C560.029 9.96047 559.536 9.7938 559.162 9.46047C558.789 9.1138 558.602 8.68713 558.602 8.18047ZM562.342 11.3205V22.4805H558.922V11.3205H562.342ZM568.763 11.1805C570.177 11.1805 571.303 11.5338 572.143 12.2405C572.997 12.9471 573.53 13.8805 573.743 15.0405H570.543C570.45 14.5871 570.237 14.2338 569.903 13.9805C569.583 13.7138 569.177 13.5805 568.683 13.5805C568.297 13.5805 568.003 13.6671 567.803 13.8405C567.603 14.0005 567.503 14.2338 567.503 14.5405C567.503 14.8871 567.683 15.1471 568.043 15.3205C568.417 15.4938 568.997 15.6671 569.783 15.8405C570.637 16.0405 571.337 16.2471 571.883 16.4605C572.43 16.6605 572.903 16.9938 573.303 17.4605C573.703 17.9271 573.903 18.5538 573.903 19.3405C573.903 19.9805 573.73 20.5471 573.383 21.0405C573.037 21.5338 572.537 21.9205 571.883 22.2005C571.23 22.4805 570.457 22.6205 569.563 22.6205C568.057 22.6205 566.85 22.2871 565.943 21.6205C565.037 20.9538 564.483 20.0005 564.283 18.7605H567.583C567.637 19.2405 567.837 19.6071 568.183 19.8605C568.543 20.1138 569.003 20.2405 569.563 20.2405C569.95 20.2405 570.243 20.1538 570.443 19.9805C570.643 19.7938 570.743 19.5538 570.743 19.2605C570.743 18.8738 570.557 18.6005 570.183 18.4405C569.823 18.2671 569.23 18.0871 568.403 17.9005C567.577 17.7271 566.897 17.5405 566.363 17.3405C565.83 17.1405 565.37 16.8205 564.983 16.3805C564.597 15.9271 564.403 15.3138 564.403 14.5405C564.403 13.5405 564.783 12.7338 565.543 12.1205C566.303 11.4938 567.377 11.1805 568.763 11.1805ZM581.017 11.1805C582.124 11.1805 583.111 11.4138 583.977 11.8805C584.857 12.3338 585.544 12.9938 586.037 13.8605C586.544 14.7271 586.797 15.7405 586.797 16.9005C586.797 18.0605 586.544 19.0738 586.037 19.9405C585.544 20.8071 584.857 21.4738 583.977 21.9405C583.111 22.3938 582.124 22.6205 581.017 22.6205C579.911 22.6205 578.917 22.3938 578.037 21.9405C577.157 21.4738 576.464 20.8071 575.957 19.9405C575.464 19.0738 575.217 18.0605 575.217 16.9005C575.217 15.7405 575.464 14.7271 575.957 13.8605C576.464 12.9938 577.157 12.3338 578.037 11.8805C578.917 11.4138 579.911 11.1805 581.017 11.1805ZM581.017 14.1405C580.364 14.1405 579.811 14.3805 579.357 14.8605C578.917 15.3271 578.697 16.0071 578.697 16.9005C578.697 17.7938 578.917 18.4738 579.357 18.9405C579.811 19.4071 580.364 19.6405 581.017 19.6405C581.671 19.6405 582.217 19.4071 582.657 18.9405C583.097 18.4738 583.317 17.7938 583.317 16.9005C583.317 16.0071 583.097 15.3271 582.657 14.8605C582.217 14.3805 581.671 14.1405 581.017 14.1405ZM595.651 11.2005C596.931 11.2005 597.944 11.6271 598.691 12.4805C599.451 13.3338 599.831 14.5071 599.831 16.0005V22.4805H596.411V16.4005C596.411 15.6538 596.211 15.0738 595.811 14.6605C595.424 14.2338 594.904 14.0205 594.251 14.0205C593.557 14.0205 593.004 14.2405 592.591 14.6805C592.191 15.1205 591.991 15.7471 591.991 16.5605V22.4805H588.571V11.3205H591.991V13.3605C592.311 12.6938 592.784 12.1671 593.411 11.7805C594.051 11.3938 594.797 11.2005 595.651 11.2005ZM372.911 44.4405C372.911 41.8938 373.404 39.6071 374.391 37.5805C375.391 35.5538 376.711 33.9071 378.351 32.6405H381.651V32.9805C379.811 34.5005 378.437 36.2138 377.531 38.1205C376.637 40.0138 376.191 42.1205 376.191 44.4405C376.191 49.0538 378.011 52.8738 381.651 55.9005V56.2205H378.351C376.711 54.9671 375.391 53.3271 374.391 51.3005C373.404 49.2738 372.911 46.9871 372.911 44.4405ZM385.213 37.6805V52.4805H381.793V37.6805H385.213ZM398.175 46.6005C398.175 46.8805 398.141 47.1871 398.075 47.5205H390.335C390.375 48.3605 390.588 48.9671 390.975 49.3405C391.361 49.7005 391.855 49.8805 392.455 49.8805C392.961 49.8805 393.381 49.7538 393.715 49.5005C394.048 49.2471 394.268 48.9205 394.375 48.5205H397.995C397.848 49.3071 397.528 50.0138 397.035 50.6405C396.541 51.2538 395.915 51.7405 395.155 52.1005C394.395 52.4471 393.548 52.6205 392.615 52.6205C391.521 52.6205 390.548 52.3938 389.695 51.9405C388.855 51.4738 388.195 50.8071 387.715 49.9405C387.235 49.0738 386.995 48.0605 386.995 46.9005C386.995 45.7271 387.228 44.7138 387.695 43.8605C388.175 42.9938 388.841 42.3338 389.695 41.8805C390.548 41.4138 391.521 41.1805 392.615 41.1805C393.721 41.1805 394.695 41.4071 395.535 41.8605C396.375 42.3138 397.021 42.9538 397.475 43.7805C397.941 44.5938 398.175 45.5338 398.175 46.6005ZM394.715 46.0805C394.728 45.3471 394.528 44.8005 394.115 44.4405C393.715 44.0671 393.215 43.8805 392.615 43.8805C391.988 43.8805 391.468 44.0671 391.055 44.4405C390.641 44.8138 390.408 45.3605 390.355 46.0805H394.715ZM407.037 41.2005C408.317 41.2005 409.331 41.6271 410.077 42.4805C410.837 43.3338 411.217 44.5071 411.217 46.0005V52.4805H407.797V46.4005C407.797 45.6538 407.597 45.0738 407.197 44.6605C406.811 44.2338 406.291 44.0205 405.637 44.0205C404.944 44.0205 404.391 44.2405 403.977 44.6805C403.577 45.1205 403.377 45.7471 403.377 46.5605V52.4805H399.957V41.3205H403.377V43.3605C403.697 42.6938 404.171 42.1671 404.797 41.7805C405.437 41.3938 406.184 41.2005 407.037 41.2005ZM417.713 41.1805C418.566 41.1805 419.3 41.3738 419.913 41.7605C420.526 42.1471 420.98 42.6738 421.273 43.3405V41.3205H424.673V52.4205C424.673 53.4605 424.473 54.3938 424.073 55.2205C423.673 56.0605 423.06 56.7271 422.233 57.2205C421.406 57.7138 420.38 57.9605 419.153 57.9605C417.473 57.9605 416.126 57.5605 415.113 56.7605C414.113 55.9738 413.513 54.9005 413.313 53.5405H416.693C416.8 53.9938 417.04 54.3471 417.413 54.6005C417.8 54.8538 418.3 54.9805 418.913 54.9805C419.62 54.9805 420.186 54.7738 420.613 54.3605C421.053 53.9605 421.273 53.3138 421.273 52.4205V50.4605C420.98 51.1271 420.526 51.6538 419.913 52.0405C419.3 52.4271 418.566 52.6205 417.713 52.6205C416.793 52.6205 415.966 52.3938 415.233 51.9405C414.513 51.4738 413.94 50.8071 413.513 49.9405C413.1 49.0738 412.893 48.0605 412.893 46.9005C412.893 45.7271 413.1 44.7138 413.513 43.8605C413.94 42.9938 414.513 42.3338 415.233 41.8805C415.966 41.4138 416.793 41.1805 417.713 41.1805ZM418.813 44.1805C418.08 44.1805 417.486 44.4205 417.033 44.9005C416.593 45.3805 416.373 46.0471 416.373 46.9005C416.373 47.7538 416.593 48.4205 417.033 48.9005C417.486 49.3805 418.08 49.6205 418.813 49.6205C419.533 49.6205 420.12 49.3738 420.573 48.8805C421.04 48.3871 421.273 47.7271 421.273 46.9005C421.273 46.0605 421.04 45.4005 420.573 44.9205C420.12 44.4271 419.533 44.1805 418.813 44.1805ZM433.348 49.5405V52.4805H431.808C430.501 52.4805 429.481 52.1605 428.748 51.5205C428.028 50.8671 427.668 49.7938 427.668 48.3005V44.2005H426.168V41.3205H427.668V38.5805H431.088V41.3205H433.328V44.2005H431.088V48.3605C431.088 48.8005 431.174 49.1071 431.348 49.2805C431.534 49.4538 431.841 49.5405 432.268 49.5405H433.348ZM442.35 41.2005C443.63 41.2005 444.643 41.6271 445.39 42.4805C446.15 43.3338 446.53 44.5071 446.53 46.0005V52.4805H443.11V46.4005C443.11 45.6538 442.91 45.0738 442.51 44.6605C442.123 44.2338 441.603 44.0205 440.95 44.0205C440.257 44.0205 439.703 44.2405 439.29 44.6805C438.89 45.1205 438.69 45.7471 438.69 46.5605V52.4805H435.27V37.6805H438.69V43.3605C439.01 42.6938 439.483 42.1671 440.11 41.7805C440.75 41.3938 441.497 41.2005 442.35 41.2005ZM459.109 49.5405V52.4805H457.569C456.263 52.4805 455.243 52.1605 454.509 51.5205C453.789 50.8671 453.429 49.7938 453.429 48.3005V44.2005H451.929V41.3205H453.429V38.5805H456.849V41.3205H459.089V44.2005H456.849V48.3605C456.849 48.8005 456.936 49.1071 457.109 49.2805C457.296 49.4538 457.603 49.5405 458.029 49.5405H459.109ZM466.252 41.1805C467.358 41.1805 468.345 41.4138 469.212 41.8805C470.092 42.3338 470.778 42.9938 471.272 43.8605C471.778 44.7271 472.032 45.7405 472.032 46.9005C472.032 48.0605 471.778 49.0738 471.272 49.9405C470.778 50.8071 470.092 51.4738 469.212 51.9405C468.345 52.3938 467.358 52.6205 466.252 52.6205C465.145 52.6205 464.152 52.3938 463.272 51.9405C462.392 51.4738 461.698 50.8071 461.192 49.9405C460.698 49.0738 460.452 48.0605 460.452 46.9005C460.452 45.7405 460.698 44.7271 461.192 43.8605C461.698 42.9938 462.392 42.3338 463.272 41.8805C464.152 41.4138 465.145 41.1805 466.252 41.1805ZM466.252 44.1405C465.598 44.1405 465.045 44.3805 464.592 44.8605C464.152 45.3271 463.932 46.0071 463.932 46.9005C463.932 47.7938 464.152 48.4738 464.592 48.9405C465.045 49.4071 465.598 49.6405 466.252 49.6405C466.905 49.6405 467.452 49.4071 467.892 48.9405C468.332 48.4738 468.552 47.7938 468.552 46.9005C468.552 46.0071 468.332 45.3271 467.892 44.8605C467.452 44.3805 466.905 44.1405 466.252 44.1405ZM494.129 41.3205L491.269 52.4805H487.449L485.429 45.0005L483.389 52.4805H479.569L476.709 41.3205H480.129L481.609 49.3605L483.689 41.3205H487.329L489.469 49.3805L490.949 41.3205H494.129ZM495.048 38.1805C495.048 37.6605 495.234 37.2338 495.608 36.9005C495.981 36.5538 496.474 36.3805 497.088 36.3805C497.701 36.3805 498.194 36.5538 498.568 36.9005C498.941 37.2338 499.128 37.6605 499.128 38.1805C499.128 38.6871 498.941 39.1138 498.568 39.4605C498.194 39.7938 497.701 39.9605 497.088 39.9605C496.474 39.9605 495.981 39.7938 495.608 39.4605C495.234 39.1138 495.048 38.6871 495.048 38.1805ZM498.788 41.3205V52.4805H495.368V41.3205H498.788ZM505.389 41.1805C506.242 41.1805 506.975 41.3738 507.589 41.7605C508.202 42.1471 508.649 42.6738 508.929 43.3405V37.6805H512.349V52.4805H508.929V50.4605C508.649 51.1271 508.202 51.6538 507.589 52.0405C506.975 52.4271 506.242 52.6205 505.389 52.6205C504.469 52.6205 503.642 52.3938 502.909 51.9405C502.189 51.4738 501.615 50.8071 501.189 49.9405C500.775 49.0738 500.569 48.0605 500.569 46.9005C500.569 45.7271 500.775 44.7138 501.189 43.8605C501.615 42.9938 502.189 42.3338 502.909 41.8805C503.642 41.4138 504.469 41.1805 505.389 41.1805ZM506.489 44.1805C505.755 44.1805 505.162 44.4205 504.709 44.9005C504.269 45.3805 504.049 46.0471 504.049 46.9005C504.049 47.7538 504.269 48.4205 504.709 48.9005C505.162 49.3805 505.755 49.6205 506.489 49.6205C507.209 49.6205 507.795 49.3738 508.249 48.8805C508.715 48.3871 508.949 47.7271 508.949 46.9005C508.949 46.0605 508.715 45.4005 508.249 44.9205C507.795 44.4271 507.209 44.1805 506.489 44.1805ZM521.023 49.5405V52.4805H519.483C518.177 52.4805 517.157 52.1605 516.423 51.5205C515.703 50.8671 515.343 49.7938 515.343 48.3005V44.2005H513.843V41.3205H515.343V38.5805H518.763V41.3205H521.003V44.2005H518.763V48.3605C518.763 48.8005 518.85 49.1071 519.023 49.2805C519.21 49.4538 519.517 49.5405 519.943 49.5405H521.023ZM530.026 41.2005C531.306 41.2005 532.319 41.6271 533.066 42.4805C533.826 43.3338 534.206 44.5071 534.206 46.0005V52.4805H530.786V46.4005C530.786 45.6538 530.586 45.0738 530.186 44.6605C529.799 44.2338 529.279 44.0205 528.626 44.0205C527.932 44.0205 527.379 44.2405 526.966 44.6805C526.566 45.1205 526.366 45.7471 526.366 46.5605V52.4805H522.946V37.6805H526.366V43.3605C526.686 42.6938 527.159 42.1671 527.786 41.7805C528.426 41.3938 529.172 41.2005 530.026 41.2005ZM543.885 43.4205C544.312 42.7405 544.858 42.2005 545.525 41.8005C546.205 41.4005 546.938 41.2005 547.725 41.2005V44.8605H546.745C545.838 44.8605 545.132 45.0538 544.625 45.4405C544.132 45.8271 543.885 46.4805 543.885 47.4005V52.4805H540.465V41.3205H543.885V43.4205ZM553.397 41.1805C554.25 41.1805 554.983 41.3738 555.597 41.7605C556.21 42.1471 556.663 42.6738 556.957 43.3405V41.3205H560.357V52.4805H556.957V50.4605C556.663 51.1271 556.21 51.6538 555.597 52.0405C554.983 52.4271 554.25 52.6205 553.397 52.6205C552.477 52.6205 551.65 52.3938 550.917 51.9405C550.197 51.4738 549.623 50.8071 549.197 49.9405C548.783 49.0738 548.577 48.0605 548.577 46.9005C548.577 45.7271 548.783 44.7138 549.197 43.8605C549.623 42.9938 550.197 42.3338 550.917 41.8805C551.65 41.4138 552.477 41.1805 553.397 41.1805ZM554.497 44.1805C553.763 44.1805 553.17 44.4205 552.717 44.9005C552.277 45.3805 552.057 46.0471 552.057 46.9005C552.057 47.7538 552.277 48.4205 552.717 48.9005C553.17 49.3805 553.763 49.6205 554.497 49.6205C555.217 49.6205 555.803 49.3738 556.257 48.8805C556.723 48.3871 556.957 47.7271 556.957 46.9005C556.957 46.0605 556.723 45.4005 556.257 44.9205C555.803 44.4271 555.217 44.1805 554.497 44.1805ZM569.031 49.5405V52.4805H567.491C566.185 52.4805 565.165 52.1605 564.431 51.5205C563.711 50.8671 563.351 49.7938 563.351 48.3005V44.2005H561.851V41.3205H563.351V38.5805H566.771V41.3205H569.011V44.2005H566.771V48.3605C566.771 48.8005 566.858 49.1071 567.031 49.2805C567.218 49.4538 567.525 49.5405 567.951 49.5405H569.031ZM570.633 38.1805C570.633 37.6605 570.82 37.2338 571.193 36.9005C571.567 36.5538 572.06 36.3805 572.673 36.3805C573.287 36.3805 573.78 36.5538 574.153 36.9005C574.527 37.2338 574.713 37.6605 574.713 38.1805C574.713 38.6871 574.527 39.1138 574.153 39.4605C573.78 39.7938 573.287 39.9605 572.673 39.9605C572.06 39.9605 571.567 39.7938 571.193 39.4605C570.82 39.1138 570.633 38.6871 570.633 38.1805ZM574.373 41.3205V52.4805H570.953V41.3205H574.373ZM581.955 41.1805C583.061 41.1805 584.048 41.4138 584.915 41.8805C585.795 42.3338 586.481 42.9938 586.975 43.8605C587.481 44.7271 587.735 45.7405 587.735 46.9005C587.735 48.0605 587.481 49.0738 586.975 49.9405C586.481 50.8071 585.795 51.4738 584.915 51.9405C584.048 52.3938 583.061 52.6205 581.955 52.6205C580.848 52.6205 579.855 52.3938 578.975 51.9405C578.095 51.4738 577.401 50.8071 576.895 49.9405C576.401 49.0738 576.155 48.0605 576.155 46.9005C576.155 45.7405 576.401 44.7271 576.895 43.8605C577.401 42.9938 578.095 42.3338 578.975 41.8805C579.855 41.4138 580.848 41.1805 581.955 41.1805ZM581.955 44.1405C581.301 44.1405 580.748 44.3805 580.295 44.8605C579.855 45.3271 579.635 46.0071 579.635 46.9005C579.635 47.7938 579.855 48.4738 580.295 48.9405C580.748 49.4071 581.301 49.6405 581.955 49.6405C582.608 49.6405 583.155 49.4071 583.595 48.9405C584.035 48.4738 584.255 47.7938 584.255 46.9005C584.255 46.0071 584.035 45.3271 583.595 44.8605C583.155 44.3805 582.608 44.1405 581.955 44.1405ZM596.088 44.4205C596.088 46.9671 595.588 49.2605 594.588 51.3005C593.588 53.3271 592.275 54.9671 590.648 56.2205H587.308V55.9005C590.961 52.8738 592.788 49.0538 592.788 44.4405C592.788 42.1205 592.335 40.0138 591.428 38.1205C590.521 36.2138 589.148 34.5005 587.308 32.9805V32.6405H590.648C592.275 33.9071 593.588 35.5538 594.588 37.5805C595.588 39.6071 596.088 41.8871 596.088 44.4205Z" fill="black"/>
</svg>
